<?xml version="1.0" encoding="utf-8"?>
<!-- Generator: Adobe Illustrator 17.0.0, SVG Export Plug-In . SVG Version: 6.00 Build 0)  -->
<!DOCTYPE svg PUBLIC "-//W3C//DTD SVG 1.1//EN" "http://www.w3.org/Graphics/SVG/1.1/DTD/svg11.dtd">
<svg version="1.1" id="Capa_1" xmlns="http://www.w3.org/2000/svg" xmlns:xlink="http://www.w3.org/1999/xlink" x="0px" y="0px"
	 width="1280px" height="800px" viewBox="0 0 1280 800" enable-background="new 0 0 1280 800" xml:space="preserve">
<g>
	<polygon fill="#F5D72C" points="714.118,333.649 709.713,311.399 702.532,280.647 696.548,263.995 681.355,241.301 
		693.799,233.232 708.966,213.06 715.562,206.488 715.562,189.325 698.459,192.062 683.877,197.93 669.218,206.488 653.619,222.137 
		645.085,218.343 632.519,215.249 615.761,217.297 601.487,221.461 594.615,223.65 579.116,207.617 561.183,193.99 549.683,187.688 
		539.317,194.069 534.296,213.06 541.063,221.192 559.565,237.481 565.286,240.292 566.978,245.404 558.837,262.246 556.65,286.363 
		561.037,306.692 565.286,320.972 565.286,336.111 562.386,345.065 631.813,340.97 712.622,336.111 	"/>
	<polygon fill="#D01209" stroke="#F5D72C" stroke-width="1.392" stroke-miterlimit="10" points="617.327,316.194 615.823,305.516 
		619.308,295.031 626.2,292.74 632.968,296.643 632.968,302.365 631.163,311.399 	"/>
	<polygon fill="#D01209" stroke="#FFFFFF" stroke-width="1.392" stroke-miterlimit="10" points="663.254,292.74 669.48,288.454 
		678.086,289.937 678.086,292.74 678.086,298.234 671.391,302.365 665.655,300.632 	"/>
	<polygon fill="#D01209" stroke="#FFFFFF" stroke-width="1.392" stroke-miterlimit="10" points="570.693,302.365 580.331,298.899 
		583.582,288.706 575.368,281.153 564.54,278.145 559.74,282.356 558.975,285.213 560.78,298.298 	"/>
	<polygon stroke="#FFFFFF" stroke-miterlimit="10" points="614.771,310.179 615.823,295.766 606.965,302.365 	"/>
	<polygon points="534.296,205.747 543.822,185.056 523.633,178.263 521.858,187.688 	"/>
	<polygon fill="#FFFFFF" points="649.38,269.846 657.064,265.496 656.43,253.404 649.38,258.596 648.93,270.596 	"/>
	<polygon fill="#FFFFFF" points="590.076,267.777 594.615,262.946 590.823,252.596 586.08,258.746 585.03,269.096 	"/>
	<g>
		<g>
			<path fill="#FFFFFF" d="M424.546,67.69c0,133.119,0,266.237,0,399.356c0,90.521,0,181.041,0,271.562c0,4.488,6.96,4.488,6.96,0
				c0-133.119,0-266.237,0-399.356c0-90.521,0-181.041,0-271.562C431.506,63.202,424.546,63.202,424.546,67.69L424.546,67.69z"/>
		</g>
	</g>
	<g>
		<g>
			<path fill="#FFFFFF" d="M803.364,40.305c0,133.3,0,266.6,0,399.899c0,76.647,0,153.295,0,229.942c0,4.488,6.96,4.488,6.96,0
				c0-133.3,0-266.6,0-399.899c0-76.647,0-153.295,0-229.942C810.324,35.817,803.364,35.817,803.364,40.305L803.364,40.305z"/>
		</g>
	</g>
	<g>
		<g>
			<path fill="#FFFFFF" d="M847.483,52.476c0,132.272,0,264.544,0,396.815c0,61.448,0,122.895,0,184.343c0,4.488,6.96,4.488,6.96,0
				c0-132.272,0-264.544,0-396.815c0-61.448,0-122.895,0-184.343C854.443,47.988,847.483,47.988,847.483,52.476L847.483,52.476z"/>
		</g>
	</g>
	<g>
		<g>
			<path fill="#FFFFFF" d="M506.699,149.843c0,65.418,0,130.837,0,196.255c0,4.488,6.96,4.488,6.96,0c0-65.418,0-130.837,0-196.255
				C513.659,145.355,506.699,145.355,506.699,149.843L506.699,149.843z"/>
		</g>
	</g>
	<g>
		<g>
			<path fill="#FFFFFF" d="M712.082,130.066c0,66.94,0,133.879,0,200.819c0,4.488,6.96,4.488,6.96,0c0-66.94,0-133.879,0-200.819
				C719.042,125.577,712.082,125.577,712.082,130.066L712.082,130.066z"/>
		</g>
	</g>
	<g>
		<g>
			<path fill="#FFFFFF" d="M447.366,143.758c0,68.968,0,137.936,0,206.904c0,4.488,6.96,4.488,6.96,0c0-68.968,0-137.936,0-206.904
				C454.326,139.269,447.366,139.269,447.366,143.758L447.366,143.758z"/>
		</g>
	</g>
	<g>
		<g>
			<path fill="#FFFFFF" d="M772.937,116.373c0,69.475,0,138.951,0,208.426c0,4.488,6.96,4.488,6.96,0c0-69.475,0-138.951,0-208.426
				C779.897,111.885,772.937,111.885,772.937,116.373L772.937,116.373z"/>
		</g>
	</g>
	<g>
		<g>
			<path fill="#FFFFFF" d="M480.836,481.499c0,9.128,0,18.256,0,27.384c0,4.488,6.96,4.488,6.96,0c0-9.128,0-18.256,0-27.384
				C487.796,477.011,480.836,477.011,480.836,481.499L480.836,481.499z"/>
		</g>
	</g>
	<g>
		<g>
			<path fill="#FFFFFF" d="M482.357,553.003c0,10.142,0,20.285,0,30.427c0,4.488,6.96,4.488,6.96,0c0-10.142,0-20.285,0-30.427
				C489.318,548.514,482.357,548.514,482.357,553.003L482.357,553.003z"/>
		</g>
	</g>
	<g>
		<g>
			<path fill="#FFFFFF" d="M512.785,483.02c0,9.635,0,19.271,0,28.906c0,4.488,6.96,4.488,6.96,0c0-9.635,0-19.271,0-28.906
				C519.745,478.532,512.785,478.532,512.785,483.02L512.785,483.02z"/>
		</g>
	</g>
	<g>
		<g>
			<path fill="#FFFFFF" d="M511.263,553.003c0,9.635,0,19.271,0,28.906c0,4.488,6.96,4.488,6.96,0c0-9.635,0-19.271,0-28.906
				C518.223,548.514,511.263,548.514,511.263,553.003L511.263,553.003z"/>
		</g>
	</g>
	<g>
		<g>
			<path fill="#FFFFFF" d="M484.316,588.431c9.128,0,18.256,0,27.384,0c4.488,0,4.488-6.96,0-6.96c-9.128,0-18.256,0-27.384,0
				C479.828,581.471,479.828,588.431,484.316,588.431L484.316,588.431z"/>
		</g>
	</g>
	<g>
		<g>
			<path fill="#FFFFFF" d="M484.316,483.458c10.142,0,20.285,0,30.427,0c4.488,0,4.488-6.96,0-6.96c-10.142,0-20.285,0-30.427,0
				C479.828,476.497,479.828,483.458,484.316,483.458L484.316,483.458z"/>
		</g>
	</g>
	<g>
		<g>
			<path fill="#FFFFFF" d="M453.452,513.447c0,10.142,0,20.285,0,30.427c0,4.488,6.96,4.488,6.96,0c0-10.142,0-20.285,0-30.427
				C460.412,508.959,453.452,508.959,453.452,513.447L453.452,513.447z"/>
		</g>
	</g>
	<g>
		<g>
			<path fill="#FFFFFF" d="M535.605,513.447c0,10.65,0,21.299,0,31.948c0,4.488,6.96,4.488,6.96,0c0-10.649,0-21.299,0-31.948
				C542.565,508.959,535.605,508.959,535.605,513.447L535.605,513.447z"/>
		</g>
	</g>
	<g>
		<g>
			<path fill="#FFFFFF" d="M517.787,518.003c6.935,0,13.871,0,20.806,0c4.488,0,4.488-6.96,0-6.96c-6.935,0-13.871,0-20.806,0
				C513.299,511.042,513.299,518.003,517.787,518.003L517.787,518.003z"/>
		</g>
	</g>
	<g>
		<g>
			<path fill="#FFFFFF" d="M516.445,556.259c7.383,0,14.766,0,22.148,0c4.488,0,4.488-6.96,0-6.96c-7.383,0-14.766,0-22.148,0
				C511.956,549.299,511.956,556.259,516.445,556.259L516.445,556.259z"/>
		</g>
	</g>
	<g>
		<g>
			<path fill="#FFFFFF" d="M542.073,552.779c0-1.342,0-2.685,0-4.027c0-1.897-1.583-3.48-3.48-3.48s-3.48,1.583-3.48,3.48
				c0,1.342,0,2.685,0,4.027c0,1.897,1.583,3.48,3.48,3.48S542.073,554.676,542.073,552.779L542.073,552.779z"/>
		</g>
	</g>
	<g>
		<g>
			<path fill="#FFFFFF" d="M456.04,554.916c9.62,0,19.24,0,28.86,0c4.488,0,4.488-6.96,0-6.96c-9.62,0-19.24,0-28.86,0
				C451.552,547.956,451.552,554.916,456.04,554.916L456.04,554.916z"/>
		</g>
	</g>
	<g>
		<g>
			<path fill="#FFFFFF" d="M460.862,548.752c0-0.895,0-1.79,0-2.685c0-1.897-1.583-3.48-3.48-3.48c-1.897,0-3.48,1.583-3.48,3.48
				c0,0.895,0,1.79,0,2.685c0,1.897,1.583,3.48,3.48,3.48C459.279,552.232,460.862,550.649,460.862,548.752L460.862,548.752z"/>
		</g>
	</g>
	<g>
		<g>
			<path fill="#FFFFFF" d="M456.711,516.66c8.949,0,17.898,0,26.846,0c4.488,0,4.488-6.96,0-6.96c-8.949,0-17.898,0-26.846,0
				C452.223,509.7,452.223,516.66,456.711,516.66L456.711,516.66z"/>
		</g>
	</g>
	<g>
		<g>
			<path fill="#FFFFFF" d="M540.606,517.331c2.685,0,5.369,0,8.054,0c4.488,0,4.488-6.96,0-6.96c-2.685,0-5.369,0-8.054,0
				C536.118,510.371,536.118,517.331,540.606,517.331L540.606,517.331z"/>
		</g>
	</g>
	<g>
		<g>
			<path fill="#FFFFFF" d="M539.935,555.588c2.908,0,5.817,0,8.725,0c4.488,0,4.488-6.96,0-6.96c-2.908,0-5.817,0-8.725,0
				C535.447,548.627,535.447,555.588,539.935,555.588L539.935,555.588z"/>
		</g>
	</g>
	<g>
		<g>
			<path fill="#FFFFFF" d="M552.14,552.107c0-12.528,0-25.057,0-37.585c0-4.488-6.96-4.488-6.96,0c0,12.528,0,25.057,0,37.585
				C545.18,556.596,552.14,556.596,552.14,552.107L552.14,552.107z"/>
		</g>
	</g>
	<g>
		<g>
			<path fill="#FFFFFF" d="M515.773,483.102c2.908,0,5.817,0,8.725,0c4.488,0,4.488-6.96,0-6.96c-2.908,0-5.817,0-8.725,0
				C511.285,476.142,511.285,483.102,515.773,483.102L515.773,483.102z"/>
		</g>
	</g>
	<g>
		<g>
			<path fill="#FFFFFF" d="M527.307,511.838c0-10.067,0-20.135,0-30.202c0-4.488-6.96-4.488-6.96,0c0,10.067,0,20.135,0,30.202
				C520.347,516.326,527.307,516.326,527.307,511.838L527.307,511.838z"/>
		</g>
	</g>
	<g>
		<g>
			<path fill="#FFFFFF" d="M515.773,587.132c1.79,0,3.58,0,5.369,0c1.897,0,3.48-1.583,3.48-3.48c0-1.897-1.583-3.48-3.48-3.48
				c-1.79,0-3.58,0-5.369,0c-1.897,0-3.48,1.583-3.48,3.48C512.293,585.549,513.876,587.132,515.773,587.132L515.773,587.132z"/>
		</g>
	</g>
	<g>
		<g>
			<path fill="#FFFFFF" d="M526.587,582.31c0-8.725,0-17.45,0-26.175c0-4.488-6.96-4.488-6.96,0c0,8.725,0,17.45,0,26.175
				C519.626,586.798,526.587,586.798,526.587,582.31L526.587,582.31z"/>
		</g>
	</g>
	<g>
		<g>
			<path fill="#FFFFFF" d="M447.766,359.809c-0.102,9.263-1.378,19.029,7.679,24.537c7.668,4.664,17.631,1.13,25.961,2.47
				c4.389,0.706,6.273-6,1.85-6.712c-6.621-1.066-13.222,0.039-19.864-0.501c-10.612-0.863-8.751-12.097-8.666-19.795
				C454.775,355.318,447.815,355.323,447.766,359.809L447.766,359.809z"/>
		</g>
	</g>
	<g>
		<g>
			<path fill="#FFFFFF" d="M495.17,386.941c69.604,0,139.208,0,208.811,0c4.488,0,4.488-6.96,0-6.96c-69.604,0-139.208,0-208.811,0
				C490.682,379.98,490.682,386.941,495.17,386.941L495.17,386.941z"/>
		</g>
	</g>
	<g>
		<g>
			<path fill="#FFFFFF" d="M720.2,384.913c26.071-0.453,49.501-20.916,58.768-44.452c1.646-4.181-5.087-5.977-6.712-1.85
				c-8.109,20.592-29.32,38.947-52.057,39.342C715.717,378.031,715.709,384.991,720.2,384.913L720.2,384.913z"/>
		</g>
	</g>
	<g>
		<g>
			<path fill="#FFFFFF" d="M508.928,345.184c-3.464,3.365-0.287,7.003,3.589,7.416c5.04,0.537,9.929-0.645,14.922-0.89
				c21.033-1.034,41.94-4.079,62.965-5.396c21.37-1.339,42.78-1.898,64.177-2.615c19.829-0.665,39.707-2.599,59.538-2.709
				c4.487-0.025,4.489-6.985,0-6.96c-16.598,0.093-33.212,1.751-49.801,2.368c-19.444,0.723-38.895,1.211-58.332,2.115
				c-18.771,0.873-37.45,2.437-56.139,4.364c-4.365,0.45-8.733,0.868-13.105,1.237c-4.073,0.344-8.517,0.073-12.505,0.944
				c-1.822,0.398-3.74,0.474-5.594,0.604c-1.269,0.089-2.54,0.117-3.812,0.119c-0.969,0.002-2.269-0.63-1.438,0.265
				c0.34,0.82,0.68,1.641,1.019,2.461c-0.187,0.533-0.374,1.066-0.561,1.6C517.074,346.974,512.148,342.057,508.928,345.184
				L508.928,345.184z"/>
		</g>
	</g>
	<g>
		<g>
			<path fill="#FFFFFF" d="M512.064,149.071c35.527-0.02,71.04-1.104,106.5-3.284c17.429-1.072,34.779-3.294,52.229-4.005
				c6.854-0.279,13.486-0.445,20.292-1.404c5.483-0.773,11.827-2.549,17.378-1.568c4.388,0.776,6.265-5.931,1.85-6.712
				c-11.018-1.947-22.765,2.531-33.879,2.588c-18.032,0.092-35.976,2.725-53.95,3.892c-36.756,2.387-73.588,3.511-110.42,3.532
				C507.576,142.114,507.576,149.074,512.064,149.071L512.064,149.071z"/>
		</g>
	</g>
	<g>
		<g>
			<path fill="#FFFFFF" d="M454.601,133.178c-3.412-15.16,17.175-17.794,27.752-18.827c14.943-1.459,29.88-0.156,44.842-0.39
				c31.712-0.496,63.164-5.086,94.819-6.465c27.752-1.209,55.784-1.511,83.367-5.043c12.805-1.64,25.646-3.142,38.569-3.344
				c6.603-0.103,26.9-1.377,28.308,8.213c0.65,4.427,7.356,2.538,6.712-1.85c-2.01-13.688-24.009-13.356-33.964-13.332
				c-14.997,0.036-29.799,2.296-44.661,3.974c-31.841,3.597-64.004,2.971-95.916,5.513c-27.617,2.2-55.427,5.825-83.176,5.348
				c-18.935-0.325-81.121-6.416-73.363,28.053C448.875,139.407,455.585,137.55,454.601,133.178L454.601,133.178z"/>
		</g>
	</g>
	<g>
		<g>
			<path fill="#FFFFFF" d="M726.958,122.041c9.255-0.085,18.451-1.267,27.706-1.352c4.486-0.041,4.49-7.001,0-6.96
				c-9.255,0.085-18.451,1.267-27.706,1.352C722.472,115.122,722.468,122.082,726.958,122.041L726.958,122.041z"/>
		</g>
	</g>
	<g>
		<g>
			<path fill="#FFFFFF" d="M722.227,111.229c10.089,0.445,19.751-2.561,29.734-3.379c4.441-0.364,4.476-7.327,0-6.96
				c-9.969,0.816-19.674,3.822-29.734,3.379C717.738,104.071,717.757,111.032,722.227,111.229L722.227,111.229z"/>
		</g>
	</g>
	<g>
		<g>
			<path fill="#FFFFFF" d="M473.119,140.162c10.461-1.816,21.151-1.361,31.72-1.807c9.943-0.419,20.01-3.544,29.952-1.572
				c4.383,0.87,6.251-5.839,1.85-6.712c-10.03-1.99-19.968,0.351-29.983,1.227c-11.821,1.034-23.63,0.111-35.389,2.152
				C466.853,134.217,468.731,140.924,473.119,140.162L473.119,140.162z"/>
		</g>
	</g>
	<g>
		<g>
			<path fill="#FFFFFF" d="M468.815,128.123c22.603-0.155,44.947-6.022,67.576-4.73c4.486,0.256,4.461-6.706,0-6.96
				c-22.63-1.292-44.973,4.576-67.576,4.73C464.329,121.193,464.326,128.153,468.815,128.123L468.815,128.123z"/>
		</g>
	</g>
	<g>
		<g>
			<path fill="#FFFFFF" d="M443.386,92.183c29.092-7.276,59.146-9.406,89.017-10.617c30.939-1.254,61.903-1.684,92.839-3.074
				c32.556-1.463,64.874-4.47,97.323-7.268c14.132-1.219,28.455-0.385,42.516-2.379c4.243-0.602,8.473-1.277,12.727-1.794
				c3.552-0.432,7.914-1.319,11.451-0.436c-0.188-0.11-0.377-0.22-0.565-0.33c3.227,3.119,8.153-1.797,4.922-4.922
				c-4.626-4.472-15.821-1.305-21.291-0.558c-12.069,1.649-23.97,2.319-36.16,2.73c-16.314,0.55-32.526,2.742-48.786,4.102
				c-16.164,1.352-32.353,2.383-48.55,3.234c-31.243,1.642-62.513,2.33-93.78,3.291c-29.6,0.909-59.319,2.484-88.474,7.98
				c-5.047,0.951-10.057,2.084-15.039,3.33C437.183,86.56,439.03,93.272,443.386,92.183L443.386,92.183z"/>
		</g>
	</g>
	<g>
		<g>
			<path fill="#FFFFFF" d="M433,63.925c14.516,0.871,28.96-1.12,43.309-3.091c15.94-2.189,31.94-3.855,47.948-5.463
				c32.914-3.305,65.866-4.495,98.913-5.559c32.703-1.053,65.415-1.878,98.101-3.427c26.719-1.266,53.489-5.139,80.266-3.213
				c17.266,1.242,34.251,5.748,48.681,15.546c3.725,2.529,7.202-3.504,3.513-6.01c-21.342-14.493-47.4-17.421-72.592-16.986
				c-12.927,0.223-25.82,1.406-38.7,2.435c-15.539,1.241-31.143,1.759-46.718,2.355c-32.698,1.251-65.414,1.997-98.113,3.224
				c-33.206,1.246-66.107,3.808-99.145,7.391C476.767,53.48,454.91,58.279,433,56.965C428.515,56.696,428.541,63.658,433,63.925
				L433,63.925z"/>
		</g>
	</g>
	<g>
		<g>
			<path fill="#FFFFFF" d="M424.914,748.623c7.092,21.476,39.458,16.042,56.315,13.243c4.42-0.734,2.539-7.44-1.85-6.712
				c-8.229,1.367-16.506,2.341-24.863,2.191c-8.147-0.146-19.899-1.516-22.89-10.573
				C430.225,742.531,423.502,744.348,424.914,748.623L424.914,748.623z"/>
		</g>
	</g>
	<g>
		<g>
			<path fill="#FFFFFF" d="M495.846,762.666c91.003,0,182.006,0,273.009,0c4.488,0,4.488-6.96,0-6.96c-91.003,0-182.006,0-273.009,0
				C491.358,755.706,491.358,762.666,495.846,762.666L495.846,762.666z"/>
		</g>
	</g>
	<g>
		<g>
			<path fill="#FFFFFF" d="M803.893,680.797c-0.602,14.97,2.485,30.009-3.941,44.189c-4.719,10.413-14.368,17.577-22.07,25.657
				c-3.095,3.247,1.819,8.176,4.922,4.922c8.594-9.016,18.503-16.794,23.762-28.398c6.749-14.892,3.656-30.651,4.288-46.369
				C811.034,676.307,804.073,676.324,803.893,680.797L803.893,680.797z"/>
		</g>
	</g>
	<g>
		<g>
			<path fill="#FFFFFF" d="M847.818,648.36c0.046,14.07,1.058,28.129,0.239,42.194c-0.774,13.284-3.601,27.949-13.086,37.901
				c-14.033,14.724-37.285,15.132-53.035,27.594c-3.519,2.784,1.442,7.675,4.922,4.922c16.873-13.351,41.018-13.047,55.463-30.313
				c8.463-10.116,11.209-23.961,12.439-36.731c1.457-15.135,0.068-30.403,0.019-45.567
				C854.764,643.873,847.803,643.871,847.818,648.36L847.818,648.36z"/>
		</g>
	</g>
	<g>
		<g>
			<path fill="#FFFFFF" d="M758.02,478.494c-0.983-6.225-7.414-4.23-10.796-1.484c-4.637,3.766-8.811,8.604-12.114,13.58
				c-4.508,6.793-5.743,16.146-3.457,23.886c2.493,8.439,9.83,13.887,17.833,16.595c16.971,5.742,37.889-1.868,40.823-20.908
				c1.612-10.46-2.86-19.144-10.794-25.768c-4.023-3.359-8.584-6.117-13.789-7.049c-4.944-0.885-9.932,0.428-14.869-0.608
				c-4.379-0.919-6.242,5.79-1.85,6.712c7.359,1.544,14.633-0.824,21.469,3.028c6.747,3.801,12.798,10.294,13.297,18.307
				c0.963,15.459-13.289,22.162-26.623,20.853c-6.81-0.668-13.536-3.882-17.271-9.739c-3.532-5.539-2.707-12.357-0.546-18.205
				c1.434-3.881,4.276-7.035,6.976-10.08c1.443-1.627,2.973-3.173,4.583-4.634c0.71-0.644,1.457-1.191,2.273-1.691
				c0.71-0.435-2.141-2.738-1.858-0.946C752.007,484.768,758.713,482.883,758.02,478.494L758.02,478.494z"/>
		</g>
	</g>
	<g>
		<g>
			<path fill="#FFFFFF" d="M699.678,511.879c-12.621,3.957-25.207,13.892-31.075,25.851c-6.973,14.209,3.874,27.662,18.678,29.418
				c16.015,1.9,33.697-13.74,32.855-30.142c-0.65-12.656-11.705-31.074-26.54-27.155c-4.336,1.146-2.494,7.859,1.85,6.712
				c10.529-2.782,17.368,13.409,17.784,21.505c0.33,6.426-4.722,12.614-9.157,16.706c-5.558,5.129-12.992,6.843-20.114,4.408
				c-26.791-9.155,3.573-36.204,17.57-40.592C705.795,517.252,703.972,510.532,699.678,511.879L699.678,511.879z"/>
		</g>
	</g>
	<g>
		<g>
			<path fill="#FFFFFF" d="M667.188,692.69c5.244,12.266,10.342,24.589,16.548,36.412c5.629,10.723,12.407,22.004,22.543,29.034
				c3.699,2.565,7.173-3.471,3.513-6.01c-9.853-6.834-16.013-18.705-21.374-29.089c-5.681-11.003-10.357-22.485-15.22-33.861
				C671.439,685.061,665.445,688.611,667.188,692.69L667.188,692.69z"/>
		</g>
	</g>
	<g>
		<g>
			<path fill="#FFFFFF" d="M683.732,680.37c2.977,7.435,6.041,14.836,9.371,22.121c2.781,6.084,5.796,14.211,11.121,18.609
				c3.432,2.835,8.385-2.061,4.922-4.922c-4.546-3.755-7.057-10.849-9.489-16.026c-3.333-7.094-6.301-14.358-9.213-21.632
				C688.796,674.407,682.062,676.2,683.732,680.37L683.732,680.37z"/>
		</g>
	</g>
	<g>
		<g>
			<path fill="#FFFFFF" d="M702.328,667.687c4.829,8.268,8,17.567,11.816,26.322c2.749,6.307,6.281,17.623,13.084,20.879
				c4.027,1.928,7.56-4.073,3.513-6.01c-2.283-1.093-3.625-4.189-4.793-6.275c-2.384-4.254-4.335-8.76-6.281-13.225
				c-3.657-8.39-6.7-17.279-11.329-25.203C706.076,660.301,700.06,663.803,702.328,667.687L702.328,667.687z"/>
		</g>
	</g>
	<g>
		<g>
			<path fill="#FFFFFF" d="M722.25,653.34c6.545,16.119,14.519,31.746,21.975,47.459c1.923,4.053,7.923,0.519,6.01-3.513
				c-7.177-15.125-15.053-30.478-21.274-45.796C727.296,647.388,720.561,649.179,722.25,653.34L722.25,653.34z"/>
		</g>
	</g>
	<g>
		<g>
			<path fill="#FFFFFF" d="M745.577,642.683c4.67,7.554,8.8,15.488,12.974,23.321c2.629,4.935,5.203,9.901,7.636,14.935
				c0.916,1.896,1.818,3.806,2.604,5.761c0.244,0.606,0.461,1.222,0.663,1.843c0.713,2.191-0.692-0.708,1.699-1.967
				c-3.973,2.092-0.455,8.099,3.513,6.01c3.417-1.799,1.454-6.265,0.383-8.847c-2.228-5.37-4.905-10.552-7.577-15.711
				c-5.033-9.72-10.125-19.542-15.885-28.858C749.232,635.362,743.21,638.854,745.577,642.683L745.577,642.683z"/>
		</g>
	</g>
	<g>
		<g>
			<path fill="#FFFFFF" d="M760.312,630.548c13.276,13.072,14.955,33.587,26.355,47.979c2.786,3.517,7.677-1.443,4.922-4.922
				c-11.443-14.447-12.878-34.71-26.355-47.979C762.034,622.476,757.11,627.395,760.312,630.548L760.312,630.548z"/>
		</g>
	</g>
	<g>
		<g>
			<path fill="#FFFFFF" d="M454.17,415.878c-0.036-3.964-0.462-7.992,0.389-11.898c-1.939,0.512-3.878,1.024-5.817,1.536
				c4.295,4.385,7.941,9.298,13.014,12.854c2.328,1.632,5.067-0.603,5.237-3.005c0.365-5.171-1.527-10.257-1.026-15.387
				c0.436-4.467-6.528-4.425-6.96,0c-0.501,5.132,1.391,10.217,1.026,15.387c1.745-1.002,3.491-2.003,5.237-3.005
				c-4.517-3.166-7.777-7.857-11.606-11.766c-1.763-1.799-5.255-1.045-5.817,1.536c-0.994,4.565-0.68,9.117-0.637,13.748
				C447.251,420.364,454.211,420.368,454.17,415.878L454.17,415.878z"/>
		</g>
	</g>
	<g>
		<g>
			<path fill="#FFFFFF" d="M466.825,407.57c1.048,3.375,1.18,6.911,2.915,10.064c2.165,3.932,8.176,0.421,6.01-3.513
				c-1.385-2.516-1.369-5.682-2.214-8.401C472.21,401.448,465.49,403.272,466.825,407.57L466.825,407.57z"/>
		</g>
	</g>
	<g>
		<g>
			<path fill="#FFFFFF" d="M474.87,406.863c1.464,2.893,3.088,5.709,3.753,8.914c2.237-0.617,4.474-1.234,6.712-1.85
				c-0.191-0.886-0.351-1.735-0.4-2.639c-0.016-0.284,0.215-1.075-0.017-0.645c-0.422,0.644-0.975,0.991-1.657,1.04
				c-0.438-0.064-0.443-0.041-0.015,0.069c-0.36-0.113,0.764,0.512,0.926,0.643c2.017,1.637,3.882,3.979,4.71,6.459
				c1.415,4.235,8.138,2.419,6.712-1.85c-1.6-4.789-5.376-9.888-10.169-11.83c-2.383-0.966-4.798-0.287-6.345,1.732
				c-1.85,2.416-1.035,6.183-0.456,8.87c0.948,4.394,7.618,2.524,6.712-1.85c-0.781-3.767-2.733-7.176-4.454-10.577
				C478.852,399.345,472.848,402.869,474.87,406.863L474.87,406.863z"/>
		</g>
	</g>
	<g>
		<g>
			<path fill="#FFFFFF" d="M492.822,402.247c2.329,4.304,3.879,8.859,5.291,13.53c1.295,4.284,8.014,2.457,6.712-1.85
				c-1.583-5.236-3.384-10.37-5.993-15.193C496.696,394.785,490.686,398.299,492.822,402.247L492.822,402.247z"/>
		</g>
	</g>
	<g>
		<g>
			<path fill="#FFFFFF" d="M493.674,405.385c2.358-0.9,4.759-1.381,7.282-1.414c4.485-0.059,4.49-7.019,0-6.96
				c-3.099,0.041-6.232,0.556-9.132,1.663c-1.771,0.676-2.97,2.319-2.431,4.281C489.86,404.651,491.9,406.062,493.674,405.385
				L493.674,405.385z"/>
		</g>
	</g>
	<g>
		<g>
			<path fill="#FFFFFF" d="M509.575,416.669c3.584-1.409,7.602-3.627,6.877-8.114c-0.299-1.853-1.889-3.513-3.481-4.402
				c-2.123-1.185-4.284-0.009-5.112,2.08c-1.389,3.504-0.792,8.362,0.764,11.701c0.816,1.75,2.319,3.313,4.262,3.735
				c2.728,0.592,5.125-0.919,6.945-2.817c3.106-3.238-1.81-8.166-4.922-4.922c-0.494,0.515-0.832,0.806-1.117,0.98
				c0.631-0.385-0.522,0.061,0.473-0.056c-0.602,0.071,0.494,0.161,0.68,0.246c-0.667-0.308,0.529,0.527-0.013-0.026
				c0.582,0.594,0.077,0.073-0.049-0.144c-0.461-0.791,0.221,0.675-0.121-0.234c-0.111-0.295-0.193-0.601-0.276-0.905
				c-0.351-1.282-0.338-1.5-0.347-3.069c-0.002-0.322,0.016-0.643,0.034-0.964c0.008-0.14,0.147-1.145,0.01-0.254
				c0.075-0.487,0.205-0.962,0.387-1.42c-1.704,0.693-3.408,1.387-5.112,2.08c0.131,0.073,0.256,0.157,0.38,0.242
				c0.495,0.339-0.709-0.586-0.196-0.14c0.216,0.188,0.684,0.871,0.096,0.03c0.407,0.583-0.22-0.78-0.03-0.092
				c-0.176-0.636-0.046-1.116,0.344-1.61c-0.531,0.674-1.474,1.029-2.327,1.365c-1.764,0.693-2.974,2.305-2.431,4.281
				C505.757,415.921,507.807,417.364,509.575,416.669L509.575,416.669z"/>
		</g>
	</g>
	<g>
		<g>
			<path fill="#FFFFFF" d="M517.473,410.645c1.772,2.222,3.196,4.349,3.721,7.184c0.711,3.837,7.273,2.974,6.836-0.925
				c-0.193-1.725-0.612-6.176,0.764-7.188c-0.458,0.337-0.743-0.334,0.003,0.416c1.26,1.267,1.716,3.481,2.142,5.132
				c1.12,4.343,7.834,2.499,6.711-1.85c-1.171-4.54-4.44-12.125-10.544-10.473c-5.833,1.578-6.596,8.977-6.037,13.963
				c2.279-0.308,4.557-0.617,6.836-0.925c-0.745-4.023-3.015-7.125-5.511-10.255C519.596,402.214,514.705,407.174,517.473,410.645
				L517.473,410.645z"/>
		</g>
	</g>
	<g>
		<g>
			<path fill="#FFFFFF" d="M545.167,401.751c-2.995,1.172-5.4,2.959-6.449,6.109c-0.78,2.34-0.127,5.121,1.164,7.146
				c3.112,4.88,9.901,5.525,12.806,0.064c2.107-3.96-3.901-7.477-6.01-3.513c-0.044,0.082-0.62,0.983-0.127,0.346
				c-0.121,0.156-0.778,0.699-0.059,0.165c-0.228,0.169-0.859,0.342,0.005,0.047c-0.545,0.186,0.803,0.03-0.153-0.018
				c0.951,0.048,0.354,0.028,0.062-0.066c0.916,0.294,0.043-0.023-0.202-0.182c0.738,0.48,0.113,0.074-0.051-0.081
				c-0.689-0.65,0.061,0.191-0.263-0.275c-0.148-0.212-0.269-0.442-0.39-0.671c-0.264-0.501,0.153,0.545-0.103-0.383
				c-0.232-0.841,0.035,0.77-0.03-0.1c-0.073-0.976-0.124,0.19-0.009-0.372c0.038-0.186,0.377-0.926,0.023-0.183
				c0.087-0.169,0.184-0.332,0.291-0.488c-0.249,0.309-0.239,0.311,0.032,0.005c0.642-0.692-0.502,0.277,0.343-0.305
				c0.253-0.174,0.838-0.483,0.968-0.534c1.765-0.691,2.974-2.307,2.431-4.281C548.985,402.496,546.936,401.058,545.167,401.751
				L545.167,401.751z"/>
		</g>
	</g>
	<g>
		<g>
			<path fill="#FFFFFF" d="M543.601,400.708c2.602,5.203,5.236,10.383,8.207,15.387c2.288,3.855,8.306,0.356,6.01-3.513
				c-2.97-5.005-5.604-10.185-8.207-15.387C547.602,393.18,541.599,396.706,543.601,400.708L543.601,400.708z"/>
		</g>
	</g>
	<g>
		<g>
			<path fill="#FFFFFF" d="M557.449,401.298c-4.374,5.681-1.661,18.906,7.521,16.396c10.342-2.827,3.807-16.24-4.103-17.483
				c-1.872-0.294-3.736,0.449-4.281,2.431c-0.46,1.671,0.554,3.986,2.431,4.281c1.46,0.229,2.679,1.135,3.611,2.426
				c0.267,0.37,0.482,0.771,0.694,1.174c-0.066-0.126,0.22,1.157,0.175,0.578c0.053,0.691,0.136-0.19,0.063-0.181
				c-0.668,0.084-0.179,0.108-0.756-0.042c0.549,0.143-0.058-0.166,0.078,0.026c-0.287-0.404-0.496-1.141-0.544-1.731
				c-0.143-1.74,0.138-3.083,1.123-4.362c1.16-1.507,0.232-3.894-1.248-4.761C560.417,398.999,558.604,399.798,557.449,401.298
				L557.449,401.298z"/>
		</g>
	</g>
	<g>
		<g>
			<path fill="#FFFFFF" d="M593.281,393.42c-4.903,0.501-9.439,2.283-11.049,7.326c-1.247,3.905,0.615,8.485,2.899,11.611
				c2.187,2.993,5.577,5.953,9.528,5.747c5.403-0.282,6.911-5.992,7.231-10.433c-2.279,0.308-4.557,0.617-6.836,0.925
				c1.482,3.816,2.139,7.828,3.078,11.797c1.033,4.367,7.744,2.515,6.712-1.85c-0.939-3.969-1.595-7.981-3.078-11.797
				c-1.42-3.657-6.544-3.117-6.836,0.925c-0.077,1.064-0.163,2.213-0.63,3.193c-0.397,0.834-0.399,0.256,0.07,0.333
				c-1.446-0.236-2.753-1.7-3.578-2.83c-2.729-3.735-2.781-7.449,2.489-7.987C597.701,399.929,597.745,392.964,593.281,393.42
				L593.281,393.42z"/>
		</g>
	</g>
	<g>
		<g>
			<path fill="#FFFFFF" d="M610.998,410.336c-0.919-3.924,0.228-8.29,1.539-11.998c-1.939,0.512-3.878,1.024-5.817,1.536
				c4.568,4.258,7.701,10.105,9.876,15.904c1.561,4.162,8.291,2.361,6.712-1.85c-2.595-6.919-6.201-13.88-11.666-18.975
				c-2.002-1.867-4.938-0.95-5.817,1.536c-1.742,4.929-2.748,10.535-1.539,15.699C605.31,416.556,612.021,414.703,610.998,410.336
				L610.998,410.336z"/>
		</g>
	</g>
	<g>
		<g>
			<path fill="#FFFFFF" d="M611.132,410.001c2.052-0.513,4.103-1.026,6.155-1.539c1.84-0.46,2.924-2.486,2.431-4.281
				c-0.512-1.86-2.442-2.89-4.281-2.431c-2.052,0.513-4.103,1.026-6.155,1.539c-1.84,0.46-2.924,2.486-2.431,4.281
				C607.363,409.43,609.293,410.461,611.132,410.001L611.132,410.001z"/>
		</g>
	</g>
	<g>
		<g>
			<path fill="#FFFFFF" d="M628.049,415.365c-0.04-5.988-0.473-11.964-0.513-17.952c-2.162,0.585-4.323,1.171-6.485,1.756
				c2.848,3.973,4.71,8.372,6.668,12.823c1.21,2.75,5.79,1.968,6.361-0.831c0.917-4.496,1.111-9.111,3.753-13.017
				c-2.003,0-4.007,0-6.01,0c3.442,5.836,3.66,12.855,5.804,19.172c1.434,4.226,8.158,2.412,6.712-1.85
				c-2.354-6.935-2.716-14.408-6.506-20.835c-1.392-2.361-4.569-2.13-6.01,0c-3.017,4.46-3.407,9.547-4.454,14.68
				c2.12-0.277,4.24-0.554,6.361-0.831c-1.958-4.451-3.819-8.85-6.668-12.823c-1.917-2.674-6.509-1.944-6.485,1.756
				c0.04,5.988,0.473,11.964,0.513,17.952C621.118,419.852,628.078,419.854,628.049,415.365L628.049,415.365z"/>
		</g>
	</g>
	<g>
		<g>
			<path fill="#FFFFFF" d="M642.08,399.169c3.524,6.732,5.665,16.176,14.802,16.598c4.489,0.207,4.469-6.754,0-6.96
				c-2.423-0.112-3.557-2.284-4.59-4.204c-1.561-2.901-2.673-6.026-4.202-8.947C646.008,391.679,640.001,395.198,642.08,399.169
				L642.08,399.169z"/>
		</g>
	</g>
	<g>
		<g>
			<path fill="#FFFFFF" d="M646.523,406.411c2.052-0.513,4.103-1.026,6.155-1.539c1.84-0.46,2.924-2.486,2.431-4.281
				c-0.512-1.86-2.442-2.89-4.281-2.431c-2.052,0.513-4.103,1.026-6.155,1.539c-1.84,0.46-2.924,2.486-2.431,4.281
				C642.754,405.84,644.684,406.87,646.523,406.411L646.523,406.411z"/>
		</g>
	</g>
	<g>
		<g>
			<path fill="#FFFFFF" d="M643.446,397.691c2.372-0.654,5.203-1.422,7.577-0.351c1.729,0.78,3.729,0.514,4.761-1.248
				c0.882-1.506,0.481-3.981-1.248-4.761c-4.267-1.926-8.514-1.571-12.94-0.351C637.274,392.171,639.111,398.886,643.446,397.691
				L643.446,397.691z"/>
		</g>
	</g>
	<g>
		<g>
			<path fill="#FFFFFF" d="M667.141,406.756c2.616-0.105,3.001,3.143,2.44,0.958c-0.136-0.529-0.213-1.075-0.3-1.614
				c-0.21-1.301-0.281-2.634-0.381-3.947c-0.198-2.598-0.317-5.212-0.331-7.818c-1.16,1.16-2.32,2.32-3.48,3.48
				c1.976,0.068,4.016,0.83,5.783,1.681c0.803,0.387,1.579,0.838,2.234,1.442c0.117,0.108,1.805-3.351,0.366-1.578
				c-0.349,0.43-1.133,0.667-1.615,0.852c0.894,2.12,1.788,4.24,2.682,6.361c2.647-1.186-0.043,0.353-0.262-2.033
				c0.035,0.384-0.288,1.321-0.724,2.112c-0.446,0.808-1.122,1.641-1.821,2.115c-0.685,0.465-0.139,0.48-0.591,0.033
				c-3.193-3.158-8.116,1.762-4.922,4.922c5.038,4.982,11.562,0.559,13.955-4.779c1.003-2.238,1.77-5.351,0.111-7.499
				c-2.444-3.164-6.063-2.313-9.258-0.882c-3.587,1.607-0.994,7.765,2.682,6.361c4.919-1.879,8.643-6.173,4.32-10.906
				c-2.957-3.237-8.674-5.014-12.938-5.162c-1.89-0.065-3.489,1.632-3.48,3.48c0.019,3.806,0.237,7.63,0.665,11.411
				c0.328,2.904,0.788,8.132,4.867,7.969C671.613,413.537,671.631,406.576,667.141,406.756L667.141,406.756z"/>
		</g>
	</g>
	<g>
		<g>
			<path fill="#FFFFFF" d="M688.271,392.005c-6.559,1.143-8.299,7.774-7.35,13.503c0.983,5.934,5.745,10.682,11.885,10.506
				c5.797-0.166,8.853-5.688,8.326-10.964c-0.558-5.586-4.3-10.842-9.985-12.018c-4.38-0.906-6.244,5.802-1.85,6.712
				c2.711,0.561,4.138,2.532,4.802,5.123c0.304,1.187,0.425,3.986-1.293,4.188c-4.944,0.582-7.839-9.438-2.684-10.337
				C694.537,397.947,692.659,391.241,688.271,392.005L688.271,392.005z"/>
		</g>
	</g>
	<g>
		<g>
			<path fill="#FFFFFF" d="M700.071,398.335c2.28,2.204,5.133,3.699,7.181,6.155c1.216,1.458,3.672,1.25,4.922,0
				c1.431-1.431,1.214-3.466,0-4.922c-2.054-2.463-4.921-3.971-7.181-6.155C701.766,390.295,696.839,395.211,700.071,398.335
				L700.071,398.335z"/>
		</g>
	</g>
	<g>
		<g>
			<path fill="#FFFFFF" d="M706.746,391.771c0.912,7.448-2.363,14.731,1.501,21.76c2.162,3.933,8.173,0.422,6.01-3.513
				c-2.952-5.371,0.163-12.422-0.551-18.247C713.167,387.375,706.201,387.322,706.746,391.771L706.746,391.771z"/>
		</g>
	</g>
	<g>
		<g>
			<path fill="#FFFFFF" d="M575.106,620.431c-7.766,1.319-15.509,5.946-22.174,9.9c-6.445,3.823-15.422,9.146-17.768,16.803
				c-0.573,1.87,0.666,3.715,2.431,4.281c11.752,3.768,26.444-4.595,35.363-11.582c3.36-2.632,7.885-6.313,8.21-10.946
				c0.373-5.333-5.44-6.516-9.549-6.374c-4.475,0.155-4.49,7.116,0,6.96c0.604-0.021,2.864-0.081,3.013,0.04
				c-1.126-0.914,0.008-1.383-1.358,0.551c-2.179,3.083-5.891,5.415-9.002,7.415c-6.557,4.216-16.773,9.806-24.826,7.224
				c0.81,1.427,1.62,2.854,2.431,4.281c1.818-5.933,10.713-10.355,15.608-13.259c5.871-3.483,12.644-7.423,19.473-8.582
				C581.375,626.392,579.495,619.685,575.106,620.431L575.106,620.431z"/>
		</g>
	</g>
	<g>
		<g>
			<path fill="#FFFFFF" d="M642.229,621.41c-15.842,1.626-32.514,10.276-43.282,21.982c-1.556,1.692-1.236,4.226,0.704,5.466
				c4.972,3.176,12.04,1.644,17.359,0.366c7.854-1.887,15.537-5.161,22.582-9.078c4.358-2.423,11.03-6.138,12.233-11.488
				c1.536-6.833-7.054-8.123-11.802-8.351c-4.489-0.215-4.468,6.746,0,6.96c1.822,0.087,3.986,0.121,5.55,1.08
				c-1.267-0.776,0.258-1.957-1.097-0.345c-3.068,3.652-7.931,5.994-12.102,8.094c-5.474,2.756-11.275,4.908-17.213,6.416
				c-3.358,0.853-8.796,2.379-11.996,0.336c0.235,1.822,0.47,3.644,0.704,5.466c9.443-10.265,24.381-18.508,38.361-19.943
				C646.648,627.916,646.692,620.952,642.229,621.41L642.229,621.41z"/>
		</g>
	</g>
	<g>
		<g>
			<path fill="#C4A926" d="M678.895,243.762c12.035,11.502,17.796,27.981,21.914,43.718c4.169,15.932,6.296,32.318,8.334,48.631
				c0.549,4.393,7.516,4.446,6.96,0c-2.176-17.418-4.49-34.841-8.941-51.851c-4.289-16.392-10.856-33.482-23.345-45.419
				C680.573,235.741,675.644,240.655,678.895,243.762L678.895,243.762z"/>
		</g>
	</g>
	<g>
		<g>
			<path fill="#C4A926" d="M686.138,243.297c13.062-7.45,24.851-21.791,28.832-36.373c1.184-4.337-5.531-6.175-6.711-1.85
				c-3.518,12.888-14.099,25.634-25.633,32.213C678.728,239.51,682.233,245.525,686.138,243.297L686.138,243.297z"/>
		</g>
	</g>
	<g>
		<g>
			<path fill="#C4A926" d="M654.566,226.111c7.553-8.666,15.214-16.855,25.39-22.454c4.931-2.713,10.304-4.804,15.541-6.837
				c5.418-2.103,11.246-4.14,17.125-3.982c4.491,0.121,4.479-6.84,0-6.96c-11.869-0.319-24.407,5.925-34.826,11.065
				c-11.345,5.596-19.964,14.853-28.151,24.247C646.71,224.557,651.612,229.501,654.566,226.111L654.566,226.111z"/>
		</g>
	</g>
	<g>
		<g>
			<path fill="#C4A926" d="M520.061,181.618c30.381,5.469,61.68,24.8,75.079,53.37c1.905,4.061,7.904,0.525,6.01-3.513
				c-14.079-30.021-47.282-50.816-79.239-56.569C517.523,174.117,515.648,180.824,520.061,181.618L520.061,181.618z"/>
		</g>
	</g>
	<g>
		<g>
			<path fill="#C4A926" d="M539.975,212.135c-2.399-7.265-0.475-17.26,7.656-19.926c4.245-1.392,2.427-8.114-1.85-6.712
				c-11.682,3.83-16.173,17.415-12.517,28.488C534.664,218.226,541.386,216.409,539.975,212.135L539.975,212.135z"/>
		</g>
	</g>
	<g>
		<g>
			<path fill="#C4A926" d="M517.506,179.775c-0.759,13.197,8.384,26.264,15.604,36.554c8.539,12.168,19.494,23.39,33.851,28.328
				c4.256,1.464,6.068-5.261,1.85-6.712c-12.969-4.46-22.687-15.147-30.355-26.074c-6.294-8.969-14.651-20.62-13.991-32.096
				C524.724,175.289,517.762,175.314,517.506,179.775L517.506,179.775z"/>
		</g>
	</g>
	<g>
		<g>
			<path fill="#C4A926" d="M572.182,234.766c-13.858,9.853-16.549,30.133-18.503,45.748c-1.223,9.771,1.026,18.487,4.201,27.678
				c3.301,9.555,6.962,19.538,1.959,29.188c-2.063,3.978,3.943,7.499,6.01,3.513c9.498-18.318-4.699-34.626-5.714-52.944
				c-0.454-8.198,1.76-17.259,3.727-25.156c1.945-7.811,4.963-17.132,11.833-22.017
				C579.319,238.199,575.849,232.159,572.182,234.766L572.182,234.766z"/>
		</g>
	</g>
	<g>
		<g>
			<path fill="#D01209" d="M559.878,280.193c-6.528,7.422-3.14,17.858,5.166,22.284c8.148,4.342,18.978-1.318,20.006-10.569
				c1.522-13.691-25.842-24.162-27.705-7.741c-0.505,4.456,6.46,4.407,6.96,0c0.108-0.953,0.554-1.129,1.65-1.39
				c1.251-0.298,3.261,0.206,4.695,0.672c3.24,1.054,6.754,3.55,7.514,7.035c0.916,4.195-5.316,7.24-8.601,6.364
				c-4.809-1.282-8.396-7.605-4.765-11.733C567.751,281.759,562.848,276.817,559.878,280.193L559.878,280.193z"/>
		</g>
	</g>
	<g>
		<path fill="#FFFFFF" d="M591.084,253.404c-12.103,3.53-8.573,24.711,3.53,20.677c10.59-4.034,5.547-19.668-4.034-20.172"/>
		<g>
			<path d="M590.159,250.048c-6.538,2.177-10.124,7.97-10.048,14.759c0.068,6.149,4.152,12.851,10.796,13.223
				c7.66,0.429,13.439-5.975,13.063-13.424c-0.374-7.388-6.104-13.461-13.39-14.178c-4.467-0.439-4.424,6.525,0,6.96
				c7.404,0.728,9.097,14.984,0.592,13.707c-6.894-1.035-4.362-12.604,0.837-14.336C596.246,255.349,594.43,248.626,590.159,250.048
				L590.159,250.048z"/>
		</g>
	</g>
	<g>
		<g>
			<path d="M590.25,257.859c0.654,2.613,0.78,6.372-2.696,6.185c-4.487-0.241-4.464,6.721,0,6.96
				c8.412,0.451,11.124-8.131,9.407-14.996C595.873,251.657,589.161,253.504,590.25,257.859L590.25,257.859z"/>
		</g>
	</g>
	<g>
		<path d="M590.076,271.559c4.034-0.504,7.565-4.539,7.06-7.565"/>
		<g>
			<path d="M591.001,274.915c4.828-0.75,10.247-5.652,9.615-10.92c-0.226-1.883-1.412-3.48-3.48-3.48
				c-1.726,0-3.706,1.592-3.48,3.48c0.039,0.329,0.048,0.635,0.031,0.966c0.037-0.72-0.165,0.319-0.197,0.412
				c0.193-0.555-0.342,0.51-0.334,0.496c-0.468,0.757,0.17-0.135-0.448,0.542c-0.961,1.052-2.078,1.563-3.558,1.793
				c-1.877,0.292-2.89,2.612-2.431,4.281C587.266,274.468,589.128,275.206,591.001,274.915L591.001,274.915z"/>
		</g>
	</g>
	<g>
		<g>
			<path d="M653.594,250.048c-6.538,2.177-10.124,7.97-10.048,14.759c0.068,6.149,4.152,12.851,10.796,13.223
				c7.66,0.429,13.439-5.975,13.063-13.424c-0.374-7.388-6.104-13.461-13.39-14.178c-4.467-0.439-4.424,6.525,0,6.96
				c7.404,0.728,9.097,14.984,0.592,13.707c-6.894-1.035-4.362-12.604,0.837-14.336C659.68,255.349,657.864,248.626,653.594,250.048
				L653.594,250.048z"/>
		</g>
	</g>
	<g>
		<g>
			<path d="M653.685,257.859c0.654,2.613,0.78,6.372-2.696,6.185c-4.487-0.241-4.464,6.721,0,6.96
				c8.412,0.451,11.124-8.131,9.407-14.996C659.307,251.657,652.595,253.504,653.685,257.859L653.685,257.859z"/>
		</g>
	</g>
	<g>
		<g>
			<path d="M654.435,274.915c4.828-0.75,10.247-5.652,9.615-10.92c-0.226-1.883-1.412-3.48-3.48-3.48
				c-1.726,0-3.706,1.592-3.48,3.48c0.039,0.329,0.048,0.635,0.031,0.966c0.037-0.72-0.165,0.319-0.197,0.412
				c0.193-0.555-0.342,0.51-0.334,0.496c-0.468,0.757,0.17-0.135-0.448,0.542c-0.961,1.052-2.078,1.563-3.558,1.793
				c-1.877,0.292-2.89,2.612-2.431,4.281C650.7,274.468,652.562,275.206,654.435,274.915L654.435,274.915z"/>
		</g>
	</g>
	<g>
		<g>
			<path fill="#C4A926" d="M611.257,278.569c3.529-0.001,7.013-0.093,10.507-0.629c1.878-0.288,2.889-2.615,2.431-4.281
				c-0.546-1.986-2.407-2.718-4.281-2.431c-2.85,0.437-5.781,0.379-8.657,0.38C606.768,271.611,606.768,278.571,611.257,278.569
				L611.257,278.569z"/>
		</g>
	</g>
	<g>
		<g>
			<path fill="#C4A926" d="M595.54,227.006c10.73-3.171,20.244-7.027,31.619-6.925c7.021,0.063,18.398-0.479,23.999,4.517
				c3.337,2.977,8.277-1.928,4.922-4.922c-6.626-5.911-17.366-6.151-25.765-6.482c-5.423-0.214-10.751-0.108-16.104,0.864
				c-7.024,1.275-13.697,4.219-20.521,6.236C589.395,221.563,591.225,228.281,595.54,227.006L595.54,227.006z"/>
		</g>
	</g>
	<g>
		<g>
			<path fill="#D01209" d="M672.782,284.721c-6.989-0.647-14.116,5.72-12.839,12.977c1.125,6.396,8.762,9.492,14.483,7.474
				c4.688-1.653,8.589-6.143,8.579-11.261c-0.014-6.989-7.566-9.306-13.249-9.694c-4.482-0.306-4.453,6.656,0,6.96
				c1.786,0.122,3.585,0.382,5.164,1.269c0.227,0.128,0.898,0.792,0.788,0.637c0.321,0.453,0.362,0.849,0.315,0.491
				c0.142,1.094-0.039,1.389-0.542,2.287c-0.504,0.902-1.378,1.699-2.306,2.266c-1.729,1.057-4.644,1.287-6.191-1.092
				c-0.667-1.026,0.01-2.523,0.682-3.355c1.317-1.63,3.088-2.186,5.116-1.998C677.252,292.095,677.212,285.132,672.782,284.721
				L672.782,284.721z"/>
		</g>
	</g>
	<g>
		<path fill="#F5D72C" d="M616.3,311.399c-1.513-5.547,0-14.625,6.556-15.634"/>
		<g>
			<path fill="#D01209" d="M619.656,310.474c-0.95-3.85-0.646-10.377,4.125-11.353c4.396-0.899,2.531-7.607-1.85-6.712
				c-8.756,1.79-10.826,12.46-8.987,19.914C614.019,316.681,620.731,314.832,619.656,310.474L619.656,310.474z"/>
		</g>
	</g>
	<g>
		<g>
			<path d="M626.89,289.26c-7.742,0.113-17.68,2.402-22.184,9.317c-5.408,8.303,5.6,17.409,12.788,19.166
				c16.438,4.016,28.785-21.472,10.825-27.854c-4.24-1.507-6.048,5.22-1.85,6.712c4.022,1.429,4.864,5.055,3.094,8.712
				c-2.012,4.156-6.419,6.647-10.97,5.535c-3.751-0.916-10.848-6.056-6.799-10.004c3.614-3.525,10.284-4.553,15.096-4.623
				C631.375,296.155,631.381,289.195,626.89,289.26L626.89,289.26z"/>
		</g>
	</g>
</g>
<g>
</g>
<g>
</g>
<g>
</g>
<g>
</g>
<g>
</g>
<g>
</g>
<g>
</g>
<g>
</g>
<g>
</g>
<g>
</g>
<g>
</g>
<g>
</g>
<g>
</g>
<g>
</g>
<g>
</g>
</svg>
