<?xml version="1.0" encoding="utf-8"?>
<!-- Generator: Adobe Illustrator 17.0.0, SVG Export Plug-In . SVG Version: 6.00 Build 0)  -->
<!DOCTYPE svg PUBLIC "-//W3C//DTD SVG 1.1//EN" "http://www.w3.org/Graphics/SVG/1.1/DTD/svg11.dtd">
<svg version="1.1" id="Capa_1" xmlns="http://www.w3.org/2000/svg" xmlns:xlink="http://www.w3.org/1999/xlink" x="0px" y="0px"
	 width="329.633px" height="335.379px" viewBox="0 0 329.633 335.379" enable-background="new 0 0 329.633 335.379"
	 xml:space="preserve">
<g>
	<g>
		<path fill="#29A6CB" d="M317.594,305.693c0,10.027-8.204,18.23-18.23,18.23H30.269c-10.027,0-18.231-8.204-18.231-18.23V28.141
			c0-10.027,8.204-18.23,18.231-18.23h269.095c10.027,0,18.23,8.204,18.23,18.23V305.693z"/>
	</g>
	<g>
		<path fill="#FFFFFF" d="M65.79,207.182c-0.49-1.43-0.997-2.842-1.521-4.237c-0.524-1.395-1.031-2.825-1.52-4.29H47.435
			c-0.49,1.464-0.988,2.903-1.495,4.315c-0.507,1.413-1.005,2.817-1.494,4.211h-6.855c1.359-3.871,2.648-7.446,3.868-10.724
			c1.219-3.278,2.413-6.382,3.58-9.312c1.167-2.929,2.326-5.719,3.476-8.37c1.15-2.65,2.335-5.266,3.555-7.847h6.292
			c1.22,2.581,2.406,5.197,3.557,7.847c1.151,2.651,2.31,5.441,3.479,8.37c1.169,2.93,2.372,6.034,3.61,9.312
			c1.238,3.278,2.537,6.853,3.897,10.724H65.79z M55.091,177.939c-0.803,1.849-1.718,4.099-2.747,6.749
			c-1.029,2.651-2.101,5.528-3.217,8.632h11.927c-1.117-3.104-2.197-5.998-3.244-8.684C56.766,181.95,55.858,179.718,55.091,177.939
			z"/>
		<path fill="#FFFFFF" d="M92.73,185.524c-0.523-0.174-1.248-0.357-2.171-0.549c-0.924-0.191-1.997-0.288-3.217-0.288
			c-0.698,0-1.438,0.07-2.223,0.209c-0.785,0.14-1.334,0.262-1.648,0.366v21.919h-6.33V181.13c1.22-0.453,2.746-0.88,4.577-1.282
			c1.831-0.401,3.862-0.602,6.095-0.602c0.418,0,0.906,0.026,1.465,0.078c0.557,0.052,1.116,0.123,1.674,0.209
			c0.558,0.087,1.099,0.192,1.622,0.314c0.523,0.123,0.942,0.235,1.255,0.34L92.73,185.524z"/>
		<path fill="#FFFFFF" d="M97.909,172.603l6.33-1.046v8.266h9.73v5.284h-9.73v11.143c0,2.197,0.349,3.767,1.046,4.708
			c0.697,0.941,1.883,1.412,3.558,1.412c1.151,0,2.171-0.122,3.06-0.366c0.889-0.243,1.596-0.471,2.119-0.68l1.046,5.022
			c-0.732,0.314-1.692,0.637-2.877,0.968c-1.186,0.331-2.581,0.497-4.185,0.497c-1.954,0-3.583-0.262-4.891-0.785
			c-1.308-0.523-2.346-1.282-3.113-2.276c-0.768-0.994-1.308-2.197-1.622-3.609c-0.314-1.413-0.471-3.025-0.471-4.839V172.603z"/>
		<path fill="#FFFFFF" d="M129.192,202.265c2.371,0,4.097-0.4,5.179-1.203c1.081-0.802,1.622-1.936,1.622-3.4
			c0-0.872-0.183-1.622-0.549-2.25s-0.889-1.194-1.569-1.7c-0.68-0.505-1.509-0.976-2.485-1.413
			c-0.977-0.436-2.092-0.863-3.348-1.282c-1.255-0.453-2.467-0.95-3.636-1.491c-1.168-0.54-2.197-1.211-3.086-2.014
			c-0.889-0.802-1.604-1.761-2.145-2.877c-0.542-1.116-0.811-2.459-0.811-4.028c0-3.278,1.133-5.85,3.4-7.716
			c2.267-1.865,5.353-2.799,9.259-2.799c2.267,0,4.281,0.253,6.042,0.759c1.761,0.506,3.147,1.055,4.159,1.648l-2.04,5.336
			c-1.186-0.662-2.485-1.168-3.897-1.517c-1.413-0.348-2.869-0.523-4.368-0.523c-1.779,0-3.165,0.366-4.159,1.099
			c-0.994,0.732-1.491,1.762-1.491,3.086c0,0.803,0.165,1.491,0.497,2.066c0.331,0.576,0.802,1.091,1.413,1.543
			c0.61,0.454,1.325,0.872,2.145,1.255c0.819,0.384,1.717,0.75,2.694,1.099c1.708,0.628,3.234,1.265,4.577,1.91
			c1.342,0.646,2.476,1.412,3.4,2.302c0.924,0.889,1.63,1.936,2.119,3.139c0.488,1.203,0.732,2.66,0.732,4.368
			c0,3.278-1.16,5.816-3.479,7.611c-2.32,1.797-5.711,2.694-10.175,2.694c-1.5,0-2.869-0.096-4.107-0.288
			c-1.238-0.192-2.337-0.428-3.295-0.707c-0.96-0.278-1.788-0.566-2.485-0.863c-0.698-0.296-1.256-0.566-1.674-0.811l1.936-5.388
			c0.942,0.523,2.214,1.046,3.819,1.569C124.989,202.003,126.925,202.265,129.192,202.265z"/>
		<path fill="#FFFFFF" d="M148.025,172.603l6.33-1.046v8.266h9.73v5.284h-9.73v11.143c0,2.197,0.349,3.767,1.046,4.708
			c0.697,0.941,1.883,1.412,3.558,1.412c1.151,0,2.171-0.122,3.06-0.366c0.889-0.243,1.596-0.471,2.119-0.68l1.046,5.022
			c-0.732,0.314-1.692,0.637-2.877,0.968c-1.186,0.331-2.581,0.497-4.185,0.497c-1.954,0-3.583-0.262-4.891-0.785
			c-1.308-0.523-2.346-1.282-3.113-2.276c-0.768-0.994-1.308-2.197-1.622-3.609c-0.314-1.413-0.471-3.025-0.471-4.839V172.603z"/>
		<path fill="#FFFFFF" d="M179.308,179.142c2.092,0,3.853,0.262,5.283,0.785c1.43,0.523,2.572,1.256,3.427,2.197
			c0.854,0.942,1.465,2.084,1.831,3.427c0.366,1.343,0.549,2.816,0.549,4.42v16.583c-0.977,0.209-2.451,0.463-4.42,0.759
			c-1.971,0.296-4.194,0.445-6.67,0.445c-1.64,0-3.139-0.157-4.499-0.471c-1.36-0.314-2.52-0.819-3.479-1.517
			c-0.959-0.697-1.709-1.604-2.25-2.72c-0.541-1.116-0.811-2.493-0.811-4.133c0-1.569,0.305-2.894,0.915-3.976
			c0.61-1.081,1.439-1.962,2.485-2.642c1.046-0.68,2.258-1.168,3.636-1.464c1.377-0.296,2.816-0.445,4.315-0.445
			c0.697,0,1.43,0.044,2.197,0.131c0.767,0.087,1.586,0.235,2.459,0.444v-1.046c0-0.732-0.088-1.43-0.262-2.093
			c-0.175-0.662-0.48-1.247-0.916-1.752c-0.437-0.505-1.012-0.897-1.727-1.177c-0.715-0.278-1.613-0.418-2.694-0.418
			c-1.465,0-2.808,0.105-4.028,0.314c-1.221,0.209-2.215,0.454-2.982,0.732l-0.785-5.126c0.802-0.279,1.97-0.558,3.505-0.837
			C175.925,179.282,177.563,179.142,179.308,179.142z M179.831,202.735c1.953,0,3.435-0.104,4.447-0.314v-7.01
			c-0.349-0.104-0.855-0.209-1.517-0.314c-0.663-0.104-1.396-0.157-2.197-0.157c-0.698,0-1.404,0.052-2.119,0.157
			c-0.715,0.105-1.36,0.297-1.936,0.576c-0.576,0.279-1.038,0.672-1.386,1.177c-0.349,0.506-0.523,1.143-0.523,1.91
			c0,1.5,0.471,2.537,1.413,3.113C176.954,202.448,178.227,202.735,179.831,202.735z"/>
		<path fill="#FFFFFF" d="M197.827,172.603l6.33-1.046v8.266h9.73v5.284h-9.73v11.143c0,2.197,0.349,3.767,1.046,4.708
			c0.697,0.941,1.883,1.412,3.558,1.412c1.151,0,2.171-0.122,3.06-0.366c0.889-0.243,1.596-0.471,2.119-0.68l1.046,5.022
			c-0.732,0.314-1.692,0.637-2.877,0.968c-1.186,0.331-2.581,0.497-4.185,0.497c-1.954,0-3.583-0.262-4.891-0.785
			c-1.308-0.523-2.346-1.282-3.113-2.276c-0.768-0.994-1.308-2.197-1.622-3.609c-0.314-1.413-0.471-3.025-0.471-4.839V172.603z"/>
		<path fill="#FFFFFF" d="M227.069,171.818c0,1.186-0.384,2.128-1.151,2.825c-0.768,0.698-1.674,1.046-2.72,1.046
			c-1.082,0-2.006-0.348-2.772-1.046c-0.768-0.697-1.151-1.639-1.151-2.825c0-1.22,0.383-2.179,1.151-2.877
			c0.767-0.697,1.691-1.046,2.772-1.046c1.046,0,1.953,0.349,2.72,1.046C226.685,169.639,227.069,170.598,227.069,171.818z
			 M226.389,207.182h-6.33v-27.36h6.33V207.182z"/>
		<path fill="#FFFFFF" d="M259.189,193.476c0,2.163-0.314,4.133-0.942,5.912c-0.627,1.778-1.517,3.295-2.668,4.551
			c-1.151,1.256-2.537,2.232-4.159,2.93c-1.622,0.697-3.41,1.046-5.362,1.046c-1.954,0-3.732-0.349-5.336-1.046
			c-1.604-0.697-2.982-1.674-4.133-2.93c-1.151-1.255-2.049-2.772-2.694-4.551c-0.646-1.779-0.968-3.749-0.968-5.912
			c0-2.162,0.322-4.124,0.968-5.885c0.645-1.761,1.551-3.27,2.72-4.525c1.168-1.256,2.554-2.224,4.159-2.904
			c1.604-0.68,3.365-1.02,5.284-1.02c1.917,0,3.688,0.34,5.31,1.02c1.622,0.68,3.008,1.648,4.159,2.904
			c1.151,1.255,2.048,2.764,2.694,4.525C258.866,189.353,259.189,191.314,259.189,193.476z M252.702,193.476
			c0-2.72-0.584-4.874-1.753-6.461c-1.168-1.586-2.798-2.38-4.891-2.38c-2.092,0-3.723,0.793-4.891,2.38
			c-1.169,1.587-1.752,3.741-1.752,6.461c0,2.755,0.583,4.936,1.752,6.539c1.168,1.604,2.799,2.406,4.891,2.406
			c2.093,0,3.723-0.802,4.891-2.406C252.118,198.412,252.702,196.231,252.702,193.476z"/>
		<path fill="#FFFFFF" d="M265.728,180.711c1.22-0.348,2.807-0.68,4.76-0.994c1.953-0.314,4.115-0.471,6.487-0.471
			c2.231,0,4.098,0.306,5.598,0.915c1.499,0.611,2.694,1.465,3.583,2.563c0.889,1.099,1.517,2.424,1.883,3.976
			c0.366,1.552,0.549,3.252,0.549,5.101v15.38h-6.33v-14.386c0-1.465-0.096-2.711-0.288-3.74c-0.192-1.028-0.506-1.865-0.942-2.511
			c-0.437-0.645-1.029-1.116-1.778-1.412c-0.75-0.296-1.666-0.445-2.747-0.445c-0.803,0-1.64,0.052-2.511,0.157
			c-0.872,0.105-1.517,0.192-1.936,0.262v22.076h-6.33V180.711z"/>
	</g>
	<g>
		<path fill="#FFFFFF" d="M74.18,228.941c0.347-0.115,0.74-0.23,1.18-0.347c0.439-0.115,0.902-0.219,1.388-0.312
			c0.486-0.092,0.983-0.167,1.493-0.226c0.509-0.058,0.995-0.087,1.458-0.087c0.971,0,1.856,0.133,2.654,0.399
			c0.798,0.266,1.464,0.746,1.996,1.439c1.177-0.693,2.209-1.173,3.099-1.439c0.888-0.266,1.76-0.399,2.614-0.399
			c0.785,0,1.518,0.087,2.198,0.26s1.275,0.468,1.783,0.885c0.507,0.416,0.911,0.983,1.211,1.699c0.3,0.717,0.45,1.63,0.45,2.74
			c0,0.601-0.046,1.22-0.139,1.855c-0.093,0.637-0.22,1.278-0.381,1.926l-2.15,8.914h-2.248l1.908-7.978
			c0.185-0.764,0.358-1.538,0.52-2.324c0.162-0.786,0.243-1.537,0.243-2.254c0-0.716-0.092-1.312-0.277-1.786
			c-0.185-0.474-0.444-0.85-0.779-1.127c-0.335-0.277-0.721-0.468-1.16-0.572s-0.912-0.156-1.419-0.156
			c-0.484,0-1.114,0.086-1.887,0.26s-1.702,0.607-2.787,1.301c0.139,0.602,0.208,1.249,0.208,1.942c0,0.601-0.046,1.22-0.139,1.855
			c-0.093,0.637-0.22,1.278-0.381,1.926l-2.15,8.914h-2.248l1.907-7.978c0.185-0.764,0.358-1.538,0.521-2.324
			c0.162-0.786,0.243-1.537,0.243-2.254c0-0.716-0.093-1.312-0.278-1.786c-0.186-0.474-0.447-0.85-0.783-1.127
			c-0.336-0.277-0.725-0.468-1.165-0.572c-0.441-0.104-0.916-0.156-1.426-0.156c-0.533,0-1.102,0.046-1.704,0.139
			s-1.159,0.208-1.669,0.347L72.3,246.249h-2.248L74.18,228.941z"/>
		<path fill="#FFFFFF" d="M114.992,233.936c0,2.174-0.307,4.059-0.919,5.653c-0.613,1.596-1.399,2.92-2.358,3.972
			c-0.96,1.053-2.024,1.833-3.191,2.342c-1.168,0.508-2.319,0.763-3.451,0.763c-0.81,0-1.579-0.127-2.307-0.382
			c-0.729-0.254-1.37-0.636-1.925-1.145c-0.555-0.508-0.994-1.139-1.318-1.891c-0.324-0.751-0.486-1.624-0.486-2.618
			c0-2.174,0.307-4.059,0.919-5.653c0.612-1.596,1.399-2.914,2.358-3.954c0.959-1.041,2.023-1.815,3.191-2.324
			c1.167-0.508,2.318-0.763,3.451-0.763c0.809,0,1.578,0.127,2.306,0.382c0.729,0.254,1.37,0.636,1.925,1.145
			c0.555,0.509,0.994,1.139,1.318,1.89C114.83,232.104,114.992,232.964,114.992,233.936z M101.326,240.491
			c0,1.364,0.381,2.394,1.145,3.087s1.676,1.04,2.74,1.04c0.833,0,1.688-0.213,2.566-0.642c0.879-0.428,1.683-1.075,2.411-1.942
			c0.729-0.867,1.33-1.959,1.804-3.277c0.474-1.318,0.711-2.867,0.711-4.647c0-1.364-0.381-2.394-1.145-3.087
			c-0.763-0.694-1.677-1.041-2.74-1.041c-0.832,0-1.688,0.214-2.566,0.642c-0.879,0.428-1.682,1.075-2.411,1.942
			c-0.729,0.867-1.33,1.959-1.804,3.277C101.563,237.161,101.326,238.711,101.326,240.491z"/>
		<path fill="#FFFFFF" d="M121.108,228.317h2.248l-4.336,17.932h-2.248L121.108,228.317z M121.998,223.079
			c0-0.601,0.167-1.058,0.503-1.37c0.335-0.312,0.699-0.468,1.093-0.468c0.462,0,0.82,0.145,1.075,0.433
			c0.254,0.29,0.381,0.665,0.381,1.127c0,0.555-0.185,0.983-0.555,1.283c-0.37,0.301-0.74,0.451-1.11,0.451
			c-0.463,0-0.81-0.133-1.041-0.399C122.114,223.872,121.998,223.519,121.998,223.079z"/>
		<path fill="#FFFFFF" d="M124.668,243.404c0.855,0.463,1.607,0.775,2.254,0.937c0.647,0.162,1.375,0.243,2.185,0.243
			c0.578,0,1.133-0.063,1.665-0.19c0.532-0.127,0.994-0.318,1.387-0.572c0.393-0.255,0.705-0.59,0.937-1.006
			c0.231-0.417,0.347-0.902,0.347-1.457c0-0.602-0.168-1.099-0.503-1.491c-0.335-0.394-0.752-0.734-1.249-1.023
			c-0.498-0.289-1.035-0.572-1.613-0.85c-0.578-0.278-1.116-0.602-1.613-0.972c-0.498-0.369-0.914-0.832-1.249-1.388
			c-0.335-0.555-0.503-1.271-0.503-2.15c0-0.994,0.185-1.844,0.555-2.549c0.37-0.705,0.867-1.283,1.492-1.734
			c0.624-0.451,1.341-0.78,2.15-0.988c0.809-0.208,1.642-0.312,2.498-0.312c0.74,0,1.474,0.064,2.202,0.191
			c0.729,0.127,1.428,0.318,2.099,0.572l-0.902,2.012c-0.485-0.208-1.041-0.375-1.665-0.503c-0.624-0.127-1.272-0.191-1.942-0.191
			c-0.555,0-1.092,0.058-1.613,0.174c-0.52,0.116-0.977,0.307-1.37,0.572c-0.393,0.266-0.711,0.602-0.954,1.006
			c-0.243,0.405-0.364,0.896-0.364,1.474c0,0.602,0.167,1.098,0.503,1.491c0.335,0.394,0.746,0.74,1.231,1.041
			c0.485,0.301,1.023,0.584,1.613,0.85c0.589,0.267,1.127,0.584,1.613,0.954c0.486,0.37,0.896,0.814,1.231,1.335
			c0.335,0.521,0.503,1.186,0.503,1.995c0,1.018-0.191,1.896-0.572,2.636c-0.382,0.74-0.885,1.341-1.509,1.804
			c-0.625,0.463-1.341,0.804-2.151,1.023c-0.81,0.219-1.642,0.329-2.497,0.329c-0.902,0-1.804-0.099-2.706-0.295
			s-1.723-0.503-2.462-0.919L124.668,243.404z"/>
		<path fill="#FFFFFF" d="M154.636,232.514c0,1.295-0.318,2.347-0.954,3.156c-0.636,0.81-1.526,1.451-2.671,1.925
			c-1.145,0.475-2.521,0.815-4.127,1.023c-1.607,0.208-3.394,0.358-5.359,0.451v0.728c0,0.672,0.069,1.296,0.208,1.873
			c0.139,0.579,0.393,1.082,0.763,1.509c0.37,0.429,0.884,0.77,1.543,1.023c0.659,0.255,1.509,0.382,2.549,0.382
			c0.809,0,1.624-0.115,2.445-0.347c0.82-0.231,1.601-0.578,2.341-1.041l0.243,2.081c-0.787,0.439-1.653,0.78-2.602,1.023
			s-1.908,0.364-2.879,0.364c-1.272,0-2.341-0.162-3.208-0.485c-0.867-0.324-1.573-0.774-2.116-1.353s-0.931-1.271-1.162-2.082
			c-0.231-0.809-0.347-1.699-0.347-2.67c0-1.479,0.226-2.948,0.677-4.405c0.451-1.457,1.115-2.763,1.994-3.919
			c0.878-1.156,1.96-2.086,3.243-2.792c1.283-0.705,2.746-1.058,4.388-1.058c1.618,0,2.861,0.422,3.729,1.266
			C154.203,230.011,154.636,231.126,154.636,232.514z M149.399,229.947c-0.925,0-1.792,0.191-2.602,0.572
			c-0.81,0.382-1.538,0.896-2.185,1.544c-0.647,0.647-1.208,1.399-1.682,2.254c-0.475,0.855-0.827,1.757-1.058,2.705
			c1.965-0.046,3.619-0.174,4.96-0.382c1.341-0.208,2.422-0.497,3.243-0.867c0.82-0.369,1.405-0.814,1.751-1.335
			c0.347-0.52,0.521-1.115,0.521-1.786c0-0.902-0.272-1.578-0.815-2.029C150.988,230.172,150.277,229.947,149.399,229.947z"/>
		<path fill="#FFFFFF" d="M155.469,243.404c0.855,0.463,1.607,0.775,2.254,0.937c0.647,0.162,1.375,0.243,2.185,0.243
			c0.578,0,1.133-0.063,1.665-0.19c0.532-0.127,0.994-0.318,1.387-0.572c0.393-0.255,0.705-0.59,0.937-1.006
			c0.231-0.417,0.347-0.902,0.347-1.457c0-0.602-0.168-1.099-0.503-1.491c-0.335-0.394-0.752-0.734-1.249-1.023
			c-0.498-0.289-1.035-0.572-1.613-0.85c-0.578-0.278-1.116-0.602-1.613-0.972c-0.498-0.369-0.914-0.832-1.249-1.388
			c-0.335-0.555-0.503-1.271-0.503-2.15c0-0.994,0.185-1.844,0.555-2.549c0.37-0.705,0.867-1.283,1.492-1.734
			c0.624-0.451,1.341-0.78,2.15-0.988c0.809-0.208,1.642-0.312,2.498-0.312c0.74,0,1.474,0.064,2.202,0.191
			c0.729,0.127,1.428,0.318,2.099,0.572l-0.902,2.012c-0.485-0.208-1.041-0.375-1.665-0.503c-0.624-0.127-1.272-0.191-1.942-0.191
			c-0.555,0-1.092,0.058-1.613,0.174c-0.52,0.116-0.977,0.307-1.37,0.572c-0.393,0.266-0.711,0.602-0.954,1.006
			c-0.243,0.405-0.364,0.896-0.364,1.474c0,0.602,0.167,1.098,0.503,1.491c0.335,0.394,0.746,0.74,1.231,1.041
			c0.485,0.301,1.023,0.584,1.613,0.85c0.589,0.267,1.127,0.584,1.613,0.954c0.486,0.37,0.896,0.814,1.231,1.335
			c0.335,0.521,0.503,1.186,0.503,1.995c0,1.018-0.191,1.896-0.572,2.636c-0.382,0.74-0.885,1.341-1.509,1.804
			c-0.625,0.463-1.341,0.804-2.151,1.023c-0.81,0.219-1.642,0.329-2.497,0.329c-0.902,0-1.804-0.099-2.706-0.295
			s-1.723-0.503-2.462-0.919L155.469,243.404z"/>
		<path fill="#FFFFFF" d="M169.343,243.404c0.855,0.463,1.607,0.775,2.254,0.937c0.647,0.162,1.375,0.243,2.185,0.243
			c0.578,0,1.133-0.063,1.665-0.19c0.532-0.127,0.994-0.318,1.387-0.572c0.393-0.255,0.705-0.59,0.937-1.006
			c0.231-0.417,0.347-0.902,0.347-1.457c0-0.602-0.168-1.099-0.503-1.491c-0.335-0.394-0.752-0.734-1.249-1.023
			c-0.498-0.289-1.035-0.572-1.613-0.85c-0.578-0.278-1.116-0.602-1.613-0.972c-0.498-0.369-0.914-0.832-1.249-1.388
			c-0.335-0.555-0.503-1.271-0.503-2.15c0-0.994,0.185-1.844,0.555-2.549c0.37-0.705,0.867-1.283,1.492-1.734
			c0.624-0.451,1.341-0.78,2.15-0.988c0.809-0.208,1.642-0.312,2.498-0.312c0.74,0,1.474,0.064,2.202,0.191
			c0.729,0.127,1.428,0.318,2.099,0.572l-0.902,2.012c-0.485-0.208-1.041-0.375-1.665-0.503c-0.624-0.127-1.272-0.191-1.942-0.191
			c-0.555,0-1.092,0.058-1.613,0.174c-0.52,0.116-0.977,0.307-1.37,0.572c-0.393,0.266-0.711,0.602-0.954,1.006
			c-0.243,0.405-0.364,0.896-0.364,1.474c0,0.602,0.167,1.098,0.503,1.491c0.335,0.394,0.746,0.74,1.231,1.041
			c0.485,0.301,1.023,0.584,1.613,0.85c0.589,0.267,1.127,0.584,1.613,0.954c0.486,0.37,0.896,0.814,1.231,1.335
			c0.335,0.521,0.503,1.186,0.503,1.995c0,1.018-0.191,1.896-0.572,2.636c-0.382,0.74-0.885,1.341-1.509,1.804
			c-0.625,0.463-1.341,0.804-2.151,1.023c-0.81,0.219-1.642,0.329-2.497,0.329c-0.902,0-1.804-0.099-2.706-0.295
			s-1.723-0.503-2.462-0.919L169.343,243.404z"/>
		<path fill="#FFFFFF" d="M189.854,219.75l2.352-0.416l-3.992,16.562c0.832-0.554,1.681-1.183,2.548-1.886
			c0.867-0.703,1.699-1.407,2.497-2.111c0.797-0.703,1.52-1.373,2.167-2.007c0.647-0.634,1.156-1.159,1.526-1.574h2.74
			c-0.416,0.531-1.011,1.177-1.785,1.938c-0.774,0.761-1.595,1.534-2.461,2.318c-0.867,0.785-1.722,1.517-2.565,2.198
			s-1.542,1.183-2.097,1.505c0.786,0.604,1.554,1.31,2.305,2.12s1.438,1.668,2.062,2.571s1.184,1.812,1.681,2.728
			c0.497,0.915,0.883,1.766,1.161,2.554h-2.428c-1.015-2.178-2.167-4.048-3.459-5.612c-1.292-1.563-2.652-2.832-4.082-3.805
			l-2.305,9.417h-2.248L189.854,219.75z"/>
		<path fill="#FFFFFF" d="M215.751,232.514c0,1.295-0.318,2.347-0.954,3.156c-0.636,0.81-1.526,1.451-2.671,1.925
			c-1.145,0.475-2.521,0.815-4.127,1.023c-1.607,0.208-3.394,0.358-5.359,0.451v0.728c0,0.672,0.069,1.296,0.208,1.873
			c0.139,0.579,0.393,1.082,0.763,1.509c0.37,0.429,0.884,0.77,1.543,1.023c0.659,0.255,1.509,0.382,2.549,0.382
			c0.809,0,1.624-0.115,2.445-0.347c0.82-0.231,1.601-0.578,2.341-1.041l0.243,2.081c-0.787,0.439-1.653,0.78-2.602,1.023
			s-1.908,0.364-2.879,0.364c-1.272,0-2.341-0.162-3.208-0.485c-0.867-0.324-1.573-0.774-2.116-1.353s-0.931-1.271-1.162-2.082
			c-0.231-0.809-0.347-1.699-0.347-2.67c0-1.479,0.226-2.948,0.677-4.405c0.451-1.457,1.115-2.763,1.994-3.919
			c0.878-1.156,1.96-2.086,3.243-2.792c1.283-0.705,2.746-1.058,4.388-1.058c1.618,0,2.861,0.422,3.729,1.266
			C215.318,230.011,215.751,231.126,215.751,232.514z M210.514,229.947c-0.925,0-1.792,0.191-2.602,0.572
			c-0.81,0.382-1.538,0.896-2.185,1.544c-0.647,0.647-1.208,1.399-1.682,2.254c-0.475,0.855-0.827,1.757-1.058,2.705
			c1.965-0.046,3.619-0.174,4.96-0.382c1.341-0.208,2.422-0.497,3.243-0.867c0.82-0.369,1.405-0.814,1.751-1.335
			c0.347-0.52,0.521-1.115,0.521-1.786c0-0.902-0.272-1.578-0.815-2.029C212.104,230.172,211.393,229.947,210.514,229.947z"/>
		<path fill="#FFFFFF" d="M222.183,223.044l2.353-0.416l-1.335,5.688h6.321l-0.453,1.942h-6.372l-2.115,8.775
			c-0.116,0.416-0.214,0.861-0.295,1.336c-0.082,0.474-0.122,0.942-0.122,1.404c0,1.041,0.255,1.769,0.765,2.186
			c0.511,0.416,1.149,0.624,1.916,0.624c0.742,0,1.387-0.081,1.933-0.243c0.545-0.161,1.121-0.381,1.725-0.659l0.209,2.047
			c-0.626,0.255-1.327,0.475-2.104,0.659s-1.547,0.277-2.312,0.277c-0.603,0-1.17-0.069-1.704-0.208s-1.003-0.37-1.409-0.693
			c-0.405-0.324-0.73-0.752-0.973-1.284c-0.243-0.531-0.364-1.202-0.364-2.012c0-0.993,0.162-2.139,0.485-3.434L222.183,223.044z"/>
		<path fill="#FFFFFF" d="M242.112,245.382c-0.463,0.301-1.174,0.59-2.133,0.867c-0.96,0.277-2.029,0.416-3.208,0.416
			c-2.104,0-3.688-0.601-4.752-1.804c-1.064-1.202-1.596-2.855-1.596-4.96c0-1.572,0.243-3.081,0.729-4.526
			c0.486-1.445,1.197-2.723,2.133-3.833s2.086-1.995,3.451-2.653c1.364-0.659,2.914-0.989,4.648-0.989
			c1.202,0,2.393,0.197,3.572,0.59l-0.937,2.046c-0.532-0.208-1.058-0.352-1.578-0.434c-0.52-0.081-1.023-0.122-1.509-0.122
			c-1.226,0-2.341,0.26-3.347,0.781c-1.006,0.52-1.868,1.226-2.584,2.116c-0.717,0.89-1.272,1.919-1.665,3.087
			s-0.589,2.399-0.589,3.693c0,1.526,0.352,2.729,1.058,3.607c0.705,0.879,1.833,1.318,3.382,1.318c0.486,0,0.977-0.046,1.474-0.139
			c0.497-0.093,0.954-0.202,1.37-0.33c0.417-0.126,0.786-0.26,1.11-0.398s0.566-0.266,0.729-0.382L242.112,245.382z"/>
		<path fill="#FFFFFF" d="M247.597,246.249h-2.248l6.313-26.5l2.352-0.416l-2.293,9.469c1.456-0.601,2.831-0.902,4.125-0.902
			c0.786,0,1.514,0.116,2.184,0.347c0.67,0.231,1.26,0.578,1.769,1.041c0.508,0.463,0.907,1.046,1.196,1.751
			c0.289,0.706,0.434,1.543,0.434,2.515c0,0.601-0.047,1.22-0.139,1.855c-0.093,0.637-0.22,1.278-0.382,1.926l-2.15,8.914h-2.248
			l1.908-7.978c0.185-0.764,0.358-1.538,0.52-2.324s0.243-1.537,0.243-2.254c0-0.693-0.11-1.277-0.33-1.751
			c-0.22-0.474-0.509-0.855-0.868-1.145s-0.782-0.497-1.267-0.625c-0.486-0.127-0.996-0.191-1.528-0.191
			c-0.671,0-1.349,0.07-2.031,0.208c-0.683,0.139-1.325,0.312-1.927,0.52L247.597,246.249z"/>
	</g>
	<path fill="#FFFFFF" d="M92.479,123.52l12.242,21.154c2.482,4.941,7.539,8.059,13.068,8.057h81.256l-16.855-29.211H92.479z
		 M234.776,115.719l-47.319-82.765c-2.538-4.784-7.511-7.774-12.926-7.773h-25.168l73.256,127.436l11.588-20.072
		C234.748,131.635,240.186,124.09,234.776,115.719L234.776,115.719z M170.204,102.765l-32.884-56.942l-32.884,56.942H170.204z"/>
</g>
<rect x="0" y="0" fill="none" width="329.633" height="333.834"/>
</svg>
