<?xml version="1.0" encoding="utf-8"?>
<!-- Generator: Adobe Illustrator 17.0.0, SVG Export Plug-In . SVG Version: 6.00 Build 0)  -->
<!DOCTYPE svg PUBLIC "-//W3C//DTD SVG 1.1//EN" "http://www.w3.org/Graphics/SVG/1.1/DTD/svg11.dtd">
<svg version="1.1" id="Capa_1" xmlns="http://www.w3.org/2000/svg" xmlns:xlink="http://www.w3.org/1999/xlink" x="0px" y="0px"
	 width="329.633px" height="333.834px" viewBox="0 0 329.633 333.834" enable-background="new 0 0 329.633 333.834"
	 xml:space="preserve">
<g>
	<g>
		<path fill="#1F3997" d="M317.594,305.693c0,10.027-8.204,18.23-18.23,18.23H30.269c-10.027,0-18.231-8.204-18.231-18.23V28.141
			c0-10.027,8.204-18.23,18.231-18.23h269.095c10.027,0,18.23,8.204,18.23,18.23V305.693z"/>
	</g>
	<g>
		<path fill="#FFFFFF" d="M76.199,207.6c-1.918,0-3.854-0.061-5.807-0.183c-1.954-0.123-3.662-0.375-5.127-0.758v-35.207
			c0.767-0.139,1.587-0.27,2.459-0.392c0.871-0.122,1.761-0.218,2.668-0.288c0.906-0.069,1.805-0.122,2.694-0.157
			c0.89-0.034,1.735-0.052,2.538-0.052c2.197,0,4.237,0.166,6.121,0.497c1.883,0.332,3.513,0.881,4.891,1.647
			c1.377,0.768,2.45,1.779,3.217,3.034c0.767,1.256,1.151,2.808,1.151,4.656c0,1.709-0.41,3.174-1.229,4.394
			c-0.82,1.221-1.961,2.197-3.426,2.93c2.197,0.732,3.819,1.813,4.865,3.243c1.046,1.431,1.569,3.244,1.569,5.441
			c0,3.732-1.36,6.531-4.081,8.396C85.982,206.668,81.814,207.6,76.199,207.6z M71.752,185.681h4.656
			c2.511,0,4.481-0.357,5.911-1.072c1.43-0.714,2.145-1.996,2.145-3.845c0-1.744-0.741-2.982-2.223-3.714
			c-1.483-0.732-3.41-1.099-5.781-1.099c-1.012,0-1.91,0.018-2.694,0.052c-0.785,0.035-1.457,0.087-2.014,0.157V185.681z
			 M71.752,190.86v11.038c0.732,0.07,1.517,0.123,2.354,0.157c0.837,0.035,1.604,0.052,2.302,0.052c1.36,0,2.624-0.087,3.792-0.262
			c1.168-0.174,2.179-0.479,3.034-0.916c0.854-0.436,1.534-1.02,2.041-1.752c0.505-0.732,0.758-1.674,0.758-2.825
			c0-2.058-0.75-3.487-2.25-4.29c-1.5-0.802-3.575-1.203-6.225-1.203H71.752z"/>
		<path fill="#FFFFFF" d="M97.804,193.633c0-2.406,0.357-4.516,1.072-6.33c0.714-1.813,1.665-3.322,2.851-4.525
			c1.185-1.203,2.545-2.109,4.081-2.72c1.534-0.61,3.104-0.916,4.708-0.916c3.767,0,6.704,1.169,8.815,3.505
			c2.109,2.337,3.165,5.825,3.165,10.463c0,0.349-0.009,0.741-0.026,1.177c-0.018,0.437-0.044,0.829-0.079,1.177h-18.048
			c0.174,2.197,0.95,3.897,2.328,5.101c1.377,1.203,3.375,1.805,5.99,1.805c1.534,0,2.938-0.139,4.211-0.418
			c1.273-0.279,2.276-0.575,3.008-0.889l0.837,5.179c-0.349,0.175-0.829,0.358-1.438,0.549c-0.611,0.192-1.308,0.366-2.093,0.523
			c-0.785,0.157-1.631,0.288-2.537,0.392c-0.907,0.105-1.831,0.157-2.772,0.157c-2.407,0-4.499-0.358-6.278-1.073
			c-1.779-0.714-3.243-1.708-4.394-2.981c-1.151-1.273-2.006-2.773-2.563-4.499C98.083,197.582,97.804,195.691,97.804,193.633z
			 M116.166,190.808c0-0.872-0.123-1.7-0.366-2.485c-0.245-0.785-0.602-1.465-1.072-2.04c-0.471-0.576-1.046-1.028-1.727-1.36
			c-0.68-0.331-1.491-0.497-2.433-0.497c-0.977,0-1.831,0.183-2.563,0.549s-1.352,0.846-1.857,1.438
			c-0.506,0.594-0.898,1.274-1.177,2.041c-0.279,0.768-0.471,1.552-0.575,2.354H116.166z"/>
		<path fill="#FFFFFF" d="M129.192,207.182v-39.549l6.33-1.046v13.549c0.697-0.244,1.508-0.453,2.433-0.628
			c0.924-0.174,1.839-0.261,2.747-0.261c2.197,0,4.019,0.306,5.467,0.915c1.447,0.611,2.606,1.465,3.479,2.563
			c0.872,1.099,1.491,2.416,1.857,3.95c0.366,1.535,0.549,3.244,0.549,5.127v15.38h-6.33v-14.386c0-1.465-0.096-2.711-0.288-3.74
			c-0.192-1.028-0.506-1.865-0.942-2.511c-0.437-0.645-1.02-1.116-1.752-1.412c-0.732-0.296-1.64-0.445-2.72-0.445
			c-0.837,0-1.692,0.087-2.563,0.262c-0.872,0.175-1.517,0.332-1.936,0.471v21.762H129.192z"/>
		<path fill="#FFFFFF" d="M168.74,179.142c2.092,0,3.853,0.262,5.283,0.785c1.43,0.523,2.572,1.256,3.427,2.197
			c0.854,0.942,1.465,2.084,1.831,3.427c0.366,1.343,0.549,2.816,0.549,4.42v16.583c-0.977,0.209-2.451,0.463-4.42,0.759
			c-1.971,0.296-4.194,0.445-6.67,0.445c-1.64,0-3.139-0.157-4.499-0.471c-1.36-0.314-2.52-0.819-3.479-1.517
			c-0.959-0.697-1.709-1.604-2.25-2.72c-0.541-1.116-0.811-2.493-0.811-4.133c0-1.569,0.305-2.894,0.915-3.976
			c0.61-1.081,1.439-1.962,2.485-2.642c1.046-0.68,2.258-1.168,3.636-1.464c1.377-0.296,2.816-0.445,4.315-0.445
			c0.697,0,1.43,0.044,2.197,0.131c0.767,0.087,1.586,0.235,2.459,0.444v-1.046c0-0.732-0.088-1.43-0.262-2.093
			c-0.175-0.662-0.48-1.247-0.916-1.752c-0.437-0.505-1.012-0.897-1.727-1.177c-0.715-0.278-1.613-0.418-2.694-0.418
			c-1.465,0-2.808,0.105-4.028,0.314c-1.221,0.209-2.215,0.454-2.982,0.732l-0.785-5.126c0.802-0.279,1.97-0.558,3.505-0.837
			C165.357,179.282,166.995,179.142,168.74,179.142z M169.263,202.735c1.953,0,3.435-0.104,4.447-0.314v-7.01
			c-0.349-0.104-0.855-0.209-1.517-0.314c-0.663-0.104-1.396-0.157-2.197-0.157c-0.698,0-1.404,0.052-2.119,0.157
			c-0.715,0.105-1.36,0.297-1.936,0.576c-0.576,0.279-1.038,0.672-1.386,1.177c-0.349,0.506-0.523,1.143-0.523,1.91
			c0,1.5,0.471,2.537,1.413,3.113C166.385,202.447,167.658,202.735,169.263,202.735z"/>
		<path fill="#FFFFFF" d="M187.572,180.711c1.22-0.348,2.807-0.68,4.76-0.994c1.953-0.314,4.115-0.471,6.487-0.471
			c2.231,0,4.098,0.306,5.598,0.915c1.499,0.611,2.694,1.465,3.583,2.563c0.889,1.099,1.517,2.424,1.883,3.976
			c0.366,1.552,0.549,3.252,0.549,5.101v15.38h-6.33v-14.386c0-1.465-0.096-2.711-0.288-3.74c-0.192-1.028-0.506-1.865-0.942-2.511
			c-0.437-0.645-1.029-1.116-1.778-1.412c-0.75-0.296-1.666-0.445-2.747-0.445c-0.803,0-1.64,0.052-2.511,0.157
			c-0.872,0.105-1.517,0.192-1.936,0.262v22.076h-6.33V180.711z"/>
		<path fill="#FFFFFF" d="M216.658,193.528c0-2.022,0.313-3.915,0.941-5.676c0.628-1.761,1.525-3.287,2.694-4.578
			c1.168-1.29,2.589-2.302,4.263-3.034c1.674-0.732,3.558-1.099,5.65-1.099c2.581,0,5.022,0.471,7.324,1.413l-1.36,5.179
			c-0.732-0.314-1.561-0.576-2.485-0.785c-0.924-0.209-1.91-0.314-2.956-0.314c-2.477,0-4.36,0.776-5.65,2.328
			c-1.291,1.552-1.936,3.741-1.936,6.565c0,2.72,0.609,4.874,1.831,6.461c1.221,1.587,3.278,2.38,6.173,2.38
			c1.081,0,2.145-0.104,3.191-0.313c1.046-0.209,1.953-0.471,2.72-0.785l0.89,5.231c-0.698,0.349-1.753,0.663-3.165,0.942
			c-1.413,0.279-2.869,0.418-4.368,0.418c-2.337,0-4.368-0.358-6.095-1.073c-1.726-0.714-3.157-1.708-4.29-2.981
			c-1.134-1.273-1.98-2.79-2.537-4.551C216.937,197.496,216.658,195.586,216.658,193.528z"/>
		<path fill="#FFFFFF" d="M241.349,193.633c0-2.406,0.357-4.516,1.072-6.33c0.714-1.813,1.665-3.322,2.851-4.525
			c1.185-1.203,2.545-2.109,4.081-2.72c1.534-0.61,3.104-0.916,4.708-0.916c3.767,0,6.704,1.169,8.815,3.505
			c2.109,2.337,3.165,5.825,3.165,10.463c0,0.349-0.009,0.741-0.026,1.177c-0.018,0.437-0.044,0.829-0.079,1.177h-18.048
			c0.174,2.197,0.95,3.897,2.328,5.101c1.377,1.203,3.375,1.805,5.99,1.805c1.534,0,2.938-0.139,4.211-0.418
			c1.273-0.279,2.276-0.575,3.008-0.889l0.837,5.179c-0.349,0.175-0.829,0.358-1.438,0.549c-0.611,0.192-1.308,0.366-2.093,0.523
			c-0.785,0.157-1.631,0.288-2.537,0.392c-0.907,0.105-1.831,0.157-2.772,0.157c-2.407,0-4.499-0.358-6.278-1.073
			c-1.779-0.714-3.243-1.708-4.394-2.981c-1.151-1.273-2.006-2.773-2.563-4.499C241.628,197.582,241.349,195.691,241.349,193.633z
			 M259.711,190.808c0-0.872-0.123-1.7-0.366-2.485c-0.245-0.785-0.602-1.465-1.072-2.04c-0.471-0.576-1.046-1.028-1.727-1.36
			c-0.68-0.331-1.491-0.497-2.433-0.497c-0.977,0-1.831,0.183-2.563,0.549s-1.352,0.846-1.857,1.438
			c-0.506,0.594-0.898,1.274-1.177,2.041c-0.279,0.768-0.471,1.552-0.575,2.354H259.711z"/>
	</g>
	<g>
		<path fill="#FFFFFF" d="M72.897,228.941c0.347-0.115,0.74-0.23,1.18-0.347c0.439-0.115,0.902-0.219,1.388-0.312
			c0.486-0.092,0.983-0.167,1.493-0.226c0.509-0.058,0.995-0.087,1.458-0.087c0.971,0,1.856,0.133,2.654,0.399
			c0.798,0.266,1.464,0.746,1.996,1.439c1.177-0.693,2.209-1.173,3.099-1.439c0.888-0.266,1.76-0.399,2.614-0.399
			c0.785,0,1.518,0.087,2.198,0.26s1.275,0.468,1.783,0.885c0.507,0.416,0.911,0.983,1.211,1.699c0.3,0.717,0.45,1.63,0.45,2.741
			c0,0.602-0.046,1.22-0.139,1.855c-0.093,0.637-0.22,1.278-0.381,1.925l-2.15,8.914h-2.248l1.908-7.978
			c0.185-0.763,0.358-1.537,0.52-2.323c0.162-0.786,0.243-1.538,0.243-2.255s-0.092-1.312-0.277-1.787
			c-0.185-0.474-0.444-0.85-0.779-1.127c-0.335-0.277-0.721-0.468-1.16-0.572s-0.912-0.156-1.419-0.156
			c-0.484,0-1.114,0.086-1.887,0.26s-1.702,0.607-2.787,1.301c0.139,0.602,0.208,1.249,0.208,1.943c0,0.602-0.046,1.22-0.139,1.855
			c-0.093,0.637-0.22,1.278-0.381,1.925l-2.15,8.914h-2.248l1.907-7.978c0.185-0.763,0.358-1.537,0.521-2.323
			c0.162-0.786,0.243-1.538,0.243-2.255s-0.093-1.312-0.278-1.787c-0.186-0.474-0.447-0.85-0.783-1.127
			c-0.336-0.277-0.725-0.468-1.165-0.572c-0.441-0.104-0.916-0.156-1.426-0.156c-0.533,0-1.102,0.046-1.704,0.139
			s-1.159,0.208-1.669,0.347l-3.781,15.712h-2.248L72.897,228.941z"/>
		<path fill="#FFFFFF" d="M113.709,233.935c0,2.174-0.307,4.059-0.919,5.654c-0.613,1.596-1.399,2.919-2.358,3.972
			c-0.96,1.052-2.024,1.833-3.191,2.341c-1.168,0.509-2.319,0.763-3.451,0.763c-0.81,0-1.579-0.127-2.307-0.381
			c-0.729-0.255-1.37-0.636-1.925-1.145c-0.555-0.509-0.994-1.139-1.318-1.891c-0.324-0.751-0.486-1.624-0.486-2.619
			c0-2.173,0.307-4.058,0.919-5.653c0.612-1.596,1.399-2.914,2.358-3.954c0.959-1.041,2.023-1.815,3.191-2.324
			c1.167-0.508,2.318-0.763,3.451-0.763c0.809,0,1.578,0.127,2.306,0.382c0.729,0.254,1.37,0.636,1.925,1.145
			c0.555,0.509,0.994,1.139,1.318,1.89C113.547,232.103,113.709,232.965,113.709,233.935z M100.043,240.491
			c0,1.365,0.381,2.394,1.145,3.087c0.763,0.694,1.676,1.041,2.74,1.041c0.833,0,1.688-0.214,2.566-0.642s1.683-1.075,2.411-1.942
			c0.729-0.867,1.33-1.96,1.804-3.278c0.474-1.317,0.711-2.866,0.711-4.647c0-1.364-0.381-2.394-1.145-3.087
			c-0.763-0.694-1.677-1.041-2.74-1.041c-0.832,0-1.688,0.214-2.566,0.642c-0.879,0.428-1.682,1.075-2.411,1.943
			c-0.729,0.866-1.33,1.959-1.804,3.277C100.28,237.162,100.043,238.711,100.043,240.491z"/>
		<path fill="#FFFFFF" d="M119.825,228.317h2.248l-4.336,17.932h-2.248L119.825,228.317z M120.715,223.079
			c0-0.601,0.167-1.058,0.503-1.37c0.335-0.312,0.699-0.468,1.093-0.468c0.462,0,0.82,0.145,1.075,0.433
			c0.254,0.29,0.381,0.665,0.381,1.127c0,0.555-0.185,0.983-0.555,1.283c-0.37,0.301-0.74,0.451-1.11,0.451
			c-0.463,0-0.81-0.133-1.041-0.399C120.831,223.871,120.715,223.519,120.715,223.079z"/>
		<path fill="#FFFFFF" d="M123.385,243.405c0.855,0.463,1.607,0.774,2.254,0.937c0.647,0.162,1.375,0.242,2.185,0.242
			c0.578,0,1.133-0.063,1.665-0.19c0.532-0.127,0.994-0.317,1.387-0.572c0.393-0.254,0.705-0.59,0.937-1.006
			c0.231-0.416,0.347-0.901,0.347-1.457c0-0.601-0.168-1.098-0.503-1.491c-0.335-0.393-0.752-0.733-1.249-1.023
			c-0.498-0.289-1.035-0.572-1.613-0.85c-0.578-0.277-1.116-0.601-1.613-0.971c-0.498-0.37-0.914-0.833-1.249-1.388
			c-0.335-0.555-0.503-1.271-0.503-2.15c0-0.995,0.185-1.844,0.555-2.55c0.37-0.705,0.867-1.283,1.492-1.734
			c0.624-0.451,1.341-0.78,2.15-0.988c0.809-0.208,1.642-0.312,2.498-0.312c0.74,0,1.474,0.064,2.202,0.191
			c0.729,0.127,1.428,0.318,2.099,0.572l-0.902,2.012c-0.485-0.208-1.041-0.375-1.665-0.503c-0.624-0.127-1.272-0.191-1.942-0.191
			c-0.555,0-1.092,0.058-1.613,0.174c-0.52,0.116-0.977,0.307-1.37,0.572c-0.393,0.266-0.711,0.602-0.954,1.006
			c-0.243,0.405-0.364,0.896-0.364,1.475c0,0.602,0.167,1.099,0.503,1.491c0.335,0.394,0.746,0.74,1.231,1.04
			c0.485,0.301,1.023,0.585,1.613,0.851c0.589,0.266,1.127,0.584,1.613,0.953c0.486,0.37,0.896,0.815,1.231,1.336
			c0.335,0.521,0.503,1.185,0.503,1.994c0,1.018-0.191,1.896-0.572,2.636c-0.382,0.74-0.885,1.342-1.509,1.804
			c-0.625,0.463-1.341,0.804-2.151,1.023s-1.642,0.329-2.497,0.329c-0.902,0-1.804-0.099-2.706-0.294
			c-0.902-0.196-1.723-0.503-2.462-0.92L123.385,243.405z"/>
		<path fill="#FFFFFF" d="M153.353,232.513c0,1.296-0.318,2.348-0.954,3.156c-0.636,0.81-1.526,1.452-2.671,1.926
			s-2.521,0.814-4.127,1.022c-1.607,0.208-3.394,0.359-5.359,0.451v0.729c0,0.671,0.069,1.295,0.208,1.873s0.393,1.081,0.763,1.509
			c0.37,0.428,0.884,0.769,1.543,1.023c0.659,0.255,1.509,0.381,2.549,0.381c0.809,0,1.624-0.115,2.445-0.347
			c0.82-0.23,1.601-0.577,2.341-1.04l0.243,2.081c-0.787,0.439-1.653,0.78-2.602,1.023c-0.948,0.242-1.908,0.363-2.879,0.363
			c-1.272,0-2.341-0.161-3.208-0.485c-0.867-0.323-1.573-0.774-2.116-1.353s-0.931-1.271-1.162-2.081
			c-0.231-0.81-0.347-1.699-0.347-2.671c0-1.479,0.226-2.948,0.677-4.405c0.451-1.456,1.115-2.763,1.994-3.919
			c0.878-1.156,1.96-2.086,3.243-2.792c1.283-0.705,2.746-1.058,4.388-1.058c1.618,0,2.861,0.422,3.729,1.266
			C152.92,230.01,153.353,231.126,153.353,232.513z M148.116,229.946c-0.925,0-1.792,0.191-2.602,0.572
			c-0.81,0.382-1.538,0.896-2.185,1.544c-0.647,0.648-1.208,1.399-1.682,2.254c-0.475,0.855-0.827,1.758-1.058,2.706
			c1.965-0.047,3.619-0.174,4.96-0.382c1.341-0.208,2.422-0.497,3.243-0.867c0.82-0.37,1.405-0.815,1.751-1.336
			c0.347-0.52,0.521-1.115,0.521-1.786c0-0.902-0.272-1.578-0.815-2.029C149.705,230.172,148.994,229.946,148.116,229.946z"/>
		<path fill="#FFFFFF" d="M154.186,243.405c0.855,0.463,1.607,0.774,2.254,0.937c0.647,0.162,1.375,0.242,2.185,0.242
			c0.578,0,1.133-0.063,1.665-0.19c0.532-0.127,0.994-0.317,1.387-0.572c0.393-0.254,0.705-0.59,0.937-1.006
			c0.231-0.416,0.347-0.901,0.347-1.457c0-0.601-0.168-1.098-0.503-1.491c-0.335-0.393-0.752-0.733-1.249-1.023
			c-0.498-0.289-1.035-0.572-1.613-0.85c-0.578-0.277-1.116-0.601-1.613-0.971c-0.498-0.37-0.914-0.833-1.249-1.388
			c-0.335-0.555-0.503-1.271-0.503-2.15c0-0.995,0.185-1.844,0.555-2.55c0.37-0.705,0.867-1.283,1.492-1.734
			c0.624-0.451,1.341-0.78,2.15-0.988c0.809-0.208,1.642-0.312,2.498-0.312c0.74,0,1.474,0.064,2.202,0.191
			c0.729,0.127,1.428,0.318,2.099,0.572l-0.902,2.012c-0.485-0.208-1.041-0.375-1.665-0.503c-0.624-0.127-1.272-0.191-1.942-0.191
			c-0.555,0-1.092,0.058-1.613,0.174c-0.52,0.116-0.977,0.307-1.37,0.572c-0.393,0.266-0.711,0.602-0.954,1.006
			c-0.243,0.405-0.364,0.896-0.364,1.475c0,0.602,0.167,1.099,0.503,1.491c0.335,0.394,0.746,0.74,1.231,1.04
			c0.485,0.301,1.023,0.585,1.613,0.851c0.589,0.266,1.127,0.584,1.613,0.953c0.486,0.37,0.896,0.815,1.231,1.336
			c0.335,0.521,0.503,1.185,0.503,1.994c0,1.018-0.191,1.896-0.572,2.636c-0.382,0.74-0.885,1.342-1.509,1.804
			c-0.625,0.463-1.341,0.804-2.151,1.023s-1.642,0.329-2.497,0.329c-0.902,0-1.804-0.099-2.706-0.294
			c-0.902-0.196-1.723-0.503-2.462-0.92L154.186,243.405z"/>
		<path fill="#FFFFFF" d="M180.511,245.382c-0.463,0.301-1.174,0.59-2.133,0.867c-0.96,0.277-2.029,0.416-3.208,0.416
			c-2.104,0-3.688-0.601-4.752-1.803c-1.064-1.202-1.596-2.856-1.596-4.96c0-1.572,0.243-3.081,0.729-4.527
			c0.486-1.444,1.197-2.723,2.133-3.833s2.086-1.995,3.451-2.653c1.364-0.659,2.914-0.989,4.648-0.989
			c1.202,0,2.393,0.197,3.572,0.59l-0.937,2.046c-0.532-0.208-1.058-0.352-1.578-0.434c-0.52-0.081-1.023-0.122-1.509-0.122
			c-1.226,0-2.341,0.26-3.347,0.781c-1.006,0.52-1.868,1.226-2.584,2.116c-0.717,0.891-1.272,1.92-1.665,3.087
			c-0.393,1.168-0.589,2.399-0.589,3.694c0,1.526,0.352,2.729,1.058,3.607c0.705,0.879,1.833,1.317,3.382,1.317
			c0.486,0,0.977-0.046,1.474-0.139c0.497-0.092,0.954-0.202,1.37-0.329c0.417-0.127,0.786-0.26,1.11-0.399
			c0.324-0.139,0.566-0.265,0.729-0.381L180.511,245.382z"/>
		<path fill="#FFFFFF" d="M195.791,246.457c-0.138-0.277-0.259-0.595-0.363-0.953c-0.104-0.358-0.179-0.723-0.224-1.093
			c-0.811,0.786-1.662,1.364-2.554,1.734c-0.892,0.369-1.813,0.555-2.763,0.555c-0.741,0-1.447-0.127-2.12-0.382
			c-0.672-0.254-1.263-0.646-1.772-1.179c-0.51-0.532-0.921-1.22-1.234-2.064c-0.313-0.844-0.469-1.844-0.469-3
			c0-1.85,0.301-3.525,0.902-5.029c0.602-1.503,1.44-2.78,2.517-3.833c1.076-1.052,2.349-1.867,3.818-2.445
			c1.469-0.578,3.072-0.867,4.808-0.867c1.434,0,2.812,0.243,4.13,0.729l-2.67,10.787c-0.139,0.578-0.255,1.122-0.347,1.631
			c-0.093,0.509-0.139,0.994-0.139,1.456c0,0.625,0.058,1.214,0.173,1.77c0.116,0.555,0.324,1.168,0.625,1.838L195.791,246.457z
			 M197.805,230.259c-0.417-0.092-0.799-0.162-1.146-0.208c-0.348-0.046-0.707-0.07-1.078-0.07c-1.436,0-2.71,0.278-3.822,0.833
			c-1.112,0.555-2.05,1.284-2.814,2.186c-0.765,0.901-1.35,1.931-1.755,3.087s-0.608,2.335-0.608,3.537
			c0,0.949,0.093,1.74,0.278,2.376c0.186,0.637,0.44,1.145,0.765,1.526s0.702,0.659,1.13,0.833c0.429,0.173,0.887,0.26,1.374,0.26
			c0.95,0,1.842-0.226,2.677-0.677c0.834-0.45,1.623-1.092,2.365-1.925c0-0.624,0.092-1.341,0.277-2.15
			c0.185-0.81,0.358-1.537,0.521-2.186L197.805,230.259z"/>
		<path fill="#FFFFFF" d="M206.017,228.941c0.347-0.115,0.74-0.23,1.18-0.347c0.439-0.115,0.902-0.219,1.388-0.312
			c0.486-0.092,0.983-0.167,1.493-0.226c0.509-0.058,0.995-0.087,1.458-0.087c0.971,0,1.856,0.133,2.654,0.399
			c0.798,0.266,1.464,0.746,1.996,1.439c1.177-0.693,2.209-1.173,3.099-1.439c0.888-0.266,1.76-0.399,2.614-0.399
			c0.785,0,1.518,0.087,2.198,0.26s1.275,0.468,1.783,0.885c0.507,0.416,0.911,0.983,1.211,1.699c0.3,0.717,0.45,1.63,0.45,2.741
			c0,0.602-0.046,1.22-0.139,1.855c-0.093,0.637-0.22,1.278-0.381,1.925l-2.15,8.914h-2.248l1.908-7.978
			c0.185-0.763,0.358-1.537,0.52-2.323c0.162-0.786,0.243-1.538,0.243-2.255s-0.092-1.312-0.277-1.787
			c-0.185-0.474-0.444-0.85-0.779-1.127c-0.335-0.277-0.721-0.468-1.16-0.572s-0.912-0.156-1.419-0.156
			c-0.484,0-1.114,0.086-1.887,0.26s-1.702,0.607-2.787,1.301c0.139,0.602,0.208,1.249,0.208,1.943c0,0.602-0.046,1.22-0.139,1.855
			c-0.093,0.637-0.22,1.278-0.381,1.925l-2.15,8.914h-2.248l1.907-7.978c0.185-0.763,0.358-1.537,0.521-2.323
			c0.162-0.786,0.243-1.538,0.243-2.255s-0.093-1.312-0.278-1.787c-0.186-0.474-0.447-0.85-0.783-1.127
			c-0.336-0.277-0.725-0.468-1.165-0.572c-0.441-0.104-0.916-0.156-1.426-0.156c-0.533,0-1.102,0.046-1.704,0.139
			s-1.159,0.208-1.669,0.347l-3.781,15.712h-2.248L206.017,228.941z"/>
		<path fill="#FFFFFF" d="M246.205,232.513c0,1.296-0.318,2.348-0.954,3.156c-0.636,0.81-1.526,1.452-2.671,1.926
			s-2.521,0.814-4.127,1.022c-1.607,0.208-3.394,0.359-5.359,0.451v0.729c0,0.671,0.069,1.295,0.208,1.873s0.393,1.081,0.763,1.509
			c0.37,0.428,0.884,0.769,1.543,1.023c0.659,0.255,1.509,0.381,2.549,0.381c0.809,0,1.624-0.115,2.445-0.347
			c0.82-0.23,1.601-0.577,2.341-1.04l0.243,2.081c-0.787,0.439-1.653,0.78-2.602,1.023c-0.948,0.242-1.908,0.363-2.879,0.363
			c-1.272,0-2.341-0.161-3.208-0.485c-0.867-0.323-1.573-0.774-2.116-1.353s-0.931-1.271-1.162-2.081
			c-0.231-0.81-0.347-1.699-0.347-2.671c0-1.479,0.226-2.948,0.677-4.405c0.451-1.456,1.115-2.763,1.994-3.919
			c0.878-1.156,1.96-2.086,3.243-2.792c1.283-0.705,2.746-1.058,4.388-1.058c1.618,0,2.861,0.422,3.729,1.266
			C245.772,230.01,246.205,231.126,246.205,232.513z M240.968,229.946c-0.925,0-1.792,0.191-2.602,0.572
			c-0.81,0.382-1.538,0.896-2.185,1.544c-0.647,0.648-1.208,1.399-1.682,2.254c-0.475,0.855-0.827,1.758-1.058,2.706
			c1.965-0.047,3.619-0.174,4.96-0.382c1.341-0.208,2.422-0.497,3.243-0.867c0.82-0.37,1.405-0.815,1.751-1.336
			c0.347-0.52,0.521-1.115,0.521-1.786c0-0.902-0.272-1.578-0.815-2.029C242.557,230.172,241.846,229.946,240.968,229.946z"/>
		<path fill="#FFFFFF" d="M263.756,233.935c0,2.174-0.307,4.059-0.919,5.654c-0.613,1.596-1.399,2.919-2.358,3.972
			c-0.96,1.052-2.024,1.833-3.191,2.341c-1.168,0.509-2.319,0.763-3.451,0.763c-0.81,0-1.579-0.127-2.307-0.381
			c-0.729-0.255-1.37-0.636-1.925-1.145c-0.555-0.509-0.994-1.139-1.318-1.891c-0.324-0.751-0.486-1.624-0.486-2.619
			c0-2.173,0.307-4.058,0.919-5.653c0.612-1.596,1.399-2.914,2.358-3.954c0.959-1.041,2.023-1.815,3.191-2.324
			c1.167-0.508,2.318-0.763,3.451-0.763c0.809,0,1.578,0.127,2.306,0.382c0.729,0.254,1.37,0.636,1.925,1.145
			c0.555,0.509,0.994,1.139,1.318,1.89C263.594,232.103,263.756,232.965,263.756,233.935z M250.09,240.491
			c0,1.365,0.381,2.394,1.145,3.087c0.763,0.694,1.676,1.041,2.74,1.041c0.833,0,1.688-0.214,2.566-0.642
			c0.879-0.428,1.683-1.075,2.411-1.942c0.729-0.867,1.33-1.96,1.804-3.278c0.474-1.317,0.711-2.866,0.711-4.647
			c0-1.364-0.381-2.394-1.145-3.087c-0.763-0.694-1.677-1.041-2.74-1.041c-0.832,0-1.688,0.214-2.566,0.642
			c-0.879,0.428-1.682,1.075-2.411,1.943c-0.729,0.866-1.33,1.959-1.804,3.277C250.327,237.162,250.09,238.711,250.09,240.491z"/>
	</g>
	<path fill="#FFFFFF" d="M144.613,83.665c11.472-5.484,17.461-13.781,17.461-26.697c0-25.47-18.976-31.676-40.875-31.676H60.915
		v127.857h61.98c23.234,0,45.06-11.148,45.06-37.123C167.955,99.972,160.343,88.102,144.613,83.665L144.613,83.665z M89.019,47.119
		h26.372c10.138,0,19.265,2.85,19.265,14.611c0,10.859-7.107,15.224-17.137,15.224H89.019V47.119z M119.071,131.431H89.019V96.22
		h30.629c12.374,0,20.203,5.159,20.203,18.255C139.851,127.39,130.507,131.431,119.071,131.431L119.071,131.431z M248.407,44.594
		h-51.843V32.003h51.843V44.594L248.407,44.594z M268.718,108.197c0-27.382-16.018-50.219-45.06-50.219
		c-28.212,0-47.369,21.213-47.369,48.992c0,28.825,18.147,48.596,47.369,48.596c22.115,0,36.438-9.957,43.328-31.134h-22.44
		c-2.417,7.901-12.374,12.086-20.095,12.086c-14.9,0-22.728-8.731-22.728-23.558h66.778
		C268.61,111.444,268.718,109.821,268.718,108.197z M201.759,96.941c0.83-12.158,8.911-19.77,21.105-19.77
		c12.771,0,19.193,7.504,20.275,19.77H201.759z"/>
</g>
<rect x="0" y="0" fill="none" width="329.633" height="333.834"/>
</svg>
