<?xml version="1.0" encoding="utf-8"?>
<!-- Generator: Adobe Illustrator 17.0.0, SVG Export Plug-In . SVG Version: 6.00 Build 0)  -->
<!DOCTYPE svg PUBLIC "-//W3C//DTD SVG 1.1//EN" "http://www.w3.org/Graphics/SVG/1.1/DTD/svg11.dtd">
<svg version="1.1" id="Capa_1" xmlns="http://www.w3.org/2000/svg" xmlns:xlink="http://www.w3.org/1999/xlink" x="0px" y="0px"
	 width="329.633px" height="333.834px" viewBox="0 0 329.633 333.834" enable-background="new 0 0 329.633 333.834"
	 xml:space="preserve">
<g>
	<g>
		<path fill="#385996" d="M317.594,305.693c0,10.027-8.204,18.23-18.231,18.23H30.269c-10.027,0-18.231-8.204-18.231-18.23V28.141
			c0-10.027,8.204-18.23,18.231-18.23h269.095c10.027,0,18.231,8.204,18.231,18.23v277.552H317.594z"/>
	</g>
	<g enable-background="new    ">
		<path fill="#FFFFFF" d="M52.214,207.182v-36.253h22.914v5.598H58.806v9.259h14.491v5.598H58.806v15.799H52.214z"/>
		<path fill="#FFFFFF" d="M87.473,179.142c2.092,0,3.853,0.262,5.283,0.785c1.43,0.522,2.572,1.255,3.427,2.197
			c0.854,0.941,1.465,2.084,1.831,3.426c0.366,1.344,0.549,2.817,0.549,4.421v16.583c-0.977,0.209-2.451,0.463-4.42,0.759
			c-1.971,0.296-4.194,0.444-6.67,0.444c-1.64,0-3.139-0.156-4.499-0.471c-1.36-0.313-2.52-0.819-3.479-1.517
			c-0.959-0.697-1.709-1.604-2.25-2.721c-0.541-1.115-0.811-2.493-0.811-4.133c0-1.569,0.305-2.895,0.915-3.976
			c0.61-1.081,1.439-1.962,2.485-2.642c1.046-0.681,2.258-1.168,3.636-1.465c1.377-0.296,2.816-0.445,4.315-0.445
			c0.697,0,1.43,0.045,2.197,0.131c0.767,0.088,1.586,0.235,2.459,0.445v-1.047c0-0.732-0.087-1.43-0.262-2.092
			c-0.175-0.662-0.48-1.247-0.916-1.753c-0.437-0.505-1.012-0.897-1.727-1.177s-1.613-0.419-2.694-0.419
			c-1.465,0-2.808,0.104-4.028,0.314c-1.221,0.209-2.215,0.453-2.982,0.732l-0.785-5.127c0.802-0.279,1.97-0.558,3.505-0.837
			C84.09,179.281,85.729,179.142,87.473,179.142z M87.996,202.735c1.953,0,3.435-0.104,4.447-0.314v-7.01
			c-0.349-0.104-0.855-0.209-1.517-0.313c-0.663-0.105-1.396-0.157-2.197-0.157c-0.698,0-1.404,0.052-2.119,0.157
			c-0.715,0.104-1.36,0.296-1.936,0.575c-0.576,0.279-1.038,0.672-1.386,1.177c-0.349,0.506-0.523,1.143-0.523,1.909
			c0,1.5,0.471,2.538,1.413,3.113C85.119,202.447,86.392,202.735,87.996,202.735z"/>
		<path fill="#FFFFFF" d="M104.789,193.528c0-2.022,0.313-3.915,0.941-5.677c0.628-1.761,1.525-3.286,2.694-4.577
			c1.168-1.29,2.589-2.302,4.263-3.034c1.674-0.732,3.558-1.099,5.65-1.099c2.581,0,5.022,0.471,7.324,1.412l-1.36,5.18
			c-0.732-0.314-1.561-0.575-2.485-0.785c-0.924-0.209-1.91-0.313-2.956-0.313c-2.477,0-4.36,0.776-5.65,2.328
			c-1.291,1.552-1.936,3.74-1.936,6.565c0,2.72,0.609,4.874,1.831,6.46c1.221,1.588,3.278,2.381,6.173,2.381
			c1.081,0,2.145-0.104,3.191-0.314c1.046-0.209,1.953-0.471,2.72-0.784l0.89,5.231c-0.698,0.349-1.752,0.662-3.165,0.941
			c-1.413,0.278-2.869,0.418-4.368,0.418c-2.337,0-4.368-0.357-6.095-1.072c-1.726-0.714-3.157-1.708-4.29-2.981
			c-1.134-1.272-1.98-2.79-2.537-4.552C105.067,197.495,104.789,195.586,104.789,193.528z"/>
		<path fill="#FFFFFF" d="M129.48,193.633c0-2.406,0.357-4.517,1.072-6.33c0.714-1.813,1.665-3.322,2.851-4.525
			c1.185-1.203,2.545-2.109,4.081-2.72c1.534-0.61,3.104-0.916,4.708-0.916c3.767,0,6.704,1.169,8.815,3.505
			c2.109,2.337,3.165,5.825,3.165,10.463c0,0.349-0.009,0.741-0.026,1.177c-0.018,0.437-0.044,0.829-0.079,1.178h-18.048
			c0.174,2.196,0.95,3.896,2.328,5.101c1.377,1.203,3.375,1.805,5.99,1.805c1.534,0,2.938-0.14,4.211-0.419
			c1.273-0.278,2.276-0.575,3.008-0.89l0.837,5.18c-0.349,0.175-0.829,0.357-1.438,0.549c-0.611,0.192-1.308,0.366-2.093,0.523
			s-1.631,0.288-2.537,0.393c-0.907,0.104-1.831,0.156-2.772,0.156c-2.407,0-4.499-0.357-6.278-1.072
			c-1.779-0.714-3.243-1.708-4.394-2.981c-1.151-1.272-2.006-2.772-2.563-4.499C129.758,197.582,129.48,195.69,129.48,193.633z
			 M147.842,190.808c0-0.871-0.123-1.7-0.366-2.485c-0.245-0.784-0.602-1.464-1.072-2.04c-0.471-0.575-1.046-1.028-1.727-1.36
			c-0.68-0.331-1.491-0.496-2.433-0.496c-0.977,0-1.831,0.183-2.563,0.549c-0.732,0.366-1.352,0.846-1.857,1.438
			c-0.506,0.594-0.898,1.273-1.177,2.04c-0.279,0.768-0.471,1.553-0.575,2.354H147.842z"/>
		<path fill="#FFFFFF" d="M185.507,193.528c0,2.196-0.323,4.177-0.968,5.938c-0.646,1.761-1.569,3.27-2.772,4.524
			c-1.203,1.256-2.66,2.216-4.368,2.878c-1.709,0.662-3.645,0.993-5.807,0.993c-2.093,0-4.09-0.156-5.99-0.471
			c-1.901-0.313-3.479-0.662-4.734-1.046v-38.712l6.33-1.045v14.176c0.732-0.384,1.63-0.732,2.694-1.047
			c1.063-0.313,2.24-0.471,3.531-0.471c1.917,0,3.636,0.34,5.152,1.021c1.518,0.68,2.781,1.647,3.793,2.903
			c1.011,1.256,1.787,2.765,2.328,4.525C185.236,189.456,185.507,191.401,185.507,193.528z M179.02,193.423
			c0-2.685-0.531-4.812-1.595-6.382c-1.064-1.569-2.747-2.354-5.049-2.354c-1.046,0-2.032,0.157-2.955,0.472
			c-0.925,0.313-1.666,0.662-2.224,1.046v15.746c0.453,0.104,1.037,0.201,1.752,0.288s1.578,0.131,2.59,0.131
			c2.336,0,4.167-0.793,5.493-2.381C178.358,198.402,179.02,196.214,179.02,193.423z"/>
		<path fill="#FFFFFF" d="M216.79,193.476c0,2.163-0.313,4.133-0.941,5.911c-0.628,1.779-1.518,3.296-2.668,4.552
			c-1.151,1.255-2.537,2.232-4.159,2.93s-3.409,1.046-5.362,1.046s-3.731-0.349-5.336-1.046s-2.981-1.675-4.133-2.93
			c-1.15-1.256-2.049-2.772-2.693-4.552c-0.646-1.778-0.968-3.748-0.968-5.911c0-2.162,0.321-4.124,0.968-5.886
			c0.645-1.76,1.551-3.27,2.72-4.524c1.168-1.256,2.555-2.224,4.159-2.903c1.604-0.681,3.365-1.021,5.283-1.021
			s3.688,0.34,5.311,1.021c1.621,0.68,3.008,1.647,4.158,2.903c1.151,1.255,2.049,2.765,2.694,4.524
			C216.467,189.352,216.79,191.313,216.79,193.476z M210.304,193.476c0-2.721-0.585-4.873-1.753-6.461
			c-1.169-1.586-2.799-2.38-4.892-2.38c-2.092,0-3.723,0.794-4.891,2.38c-1.169,1.588-1.753,3.74-1.753,6.461
			c0,2.756,0.584,4.936,1.753,6.539c1.168,1.604,2.799,2.406,4.891,2.406c2.093,0,3.723-0.802,4.892-2.406
			C209.719,198.411,210.304,196.231,210.304,193.476z"/>
		<path fill="#FFFFFF" d="M248.073,193.476c0,2.163-0.314,4.133-0.942,5.911c-0.627,1.779-1.517,3.296-2.668,4.552
			c-1.15,1.255-2.537,2.232-4.158,2.93c-1.622,0.697-3.41,1.046-5.362,1.046c-1.954,0-3.732-0.349-5.336-1.046
			c-1.604-0.697-2.982-1.675-4.133-2.93c-1.151-1.256-2.05-2.772-2.694-4.552c-0.646-1.778-0.968-3.748-0.968-5.911
			c0-2.162,0.322-4.124,0.968-5.886c0.645-1.76,1.552-3.27,2.721-4.524c1.168-1.256,2.554-2.224,4.158-2.903
			c1.604-0.681,3.365-1.021,5.284-1.021c1.917,0,3.688,0.34,5.31,1.021c1.622,0.68,3.008,1.647,4.159,2.903
			c1.15,1.255,2.048,2.765,2.694,4.524C247.75,189.352,248.073,191.313,248.073,193.476z M241.586,193.476
			c0-2.721-0.584-4.873-1.752-6.461c-1.169-1.586-2.799-2.38-4.892-2.38s-3.724,0.794-4.892,2.38
			c-1.169,1.588-1.752,3.74-1.752,6.461c0,2.756,0.583,4.936,1.752,6.539c1.168,1.604,2.799,2.406,4.892,2.406
			s3.723-0.802,4.892-2.406C241.002,198.411,241.586,196.231,241.586,193.476z"/>
		<path fill="#FFFFFF" d="M260.941,190.494c0.802-0.838,1.656-1.735,2.563-2.694c0.906-0.959,1.796-1.918,2.668-2.878
			c0.871-0.958,1.7-1.883,2.484-2.772c0.785-0.889,1.456-1.665,2.015-2.327h7.48c-1.74,1.953-3.576,3.976-5.507,6.067
			c-1.931,2.093-3.87,4.133-5.819,6.121c1.044,0.872,2.141,1.928,3.289,3.165c1.148,1.238,2.262,2.555,3.341,3.949
			c1.078,1.396,2.087,2.791,3.027,4.186c0.939,1.396,1.723,2.686,2.349,3.871h-7.323c-0.628-1.081-1.353-2.214-2.171-3.4
			c-0.82-1.186-1.7-2.336-2.643-3.453c-0.941-1.115-1.9-2.171-2.877-3.164c-0.977-0.994-1.936-1.84-2.877-2.538v12.556h-6.33
			v-39.549l6.33-1.045V190.494z"/>
	</g>
	<g enable-background="new    ">
		<path fill="#FFFFFF" d="M72.741,228.941c0.347-0.116,0.74-0.231,1.18-0.347c0.439-0.116,0.902-0.22,1.388-0.312
			c0.486-0.092,0.983-0.168,1.493-0.226c0.509-0.058,0.995-0.087,1.458-0.087c0.971,0,1.856,0.134,2.654,0.399
			s1.464,0.745,1.996,1.439c1.177-0.694,2.209-1.174,3.099-1.439c0.888-0.266,1.76-0.399,2.614-0.399
			c0.785,0,1.518,0.087,2.198,0.261c0.681,0.173,1.275,0.468,1.783,0.884c0.507,0.416,0.911,0.983,1.211,1.7s0.45,1.63,0.45,2.74
			c0,0.602-0.046,1.22-0.139,1.855c-0.093,0.636-0.22,1.277-0.381,1.925l-2.15,8.914h-2.248l1.908-7.978
			c0.185-0.763,0.358-1.537,0.52-2.324c0.162-0.785,0.243-1.537,0.243-2.254s-0.092-1.312-0.277-1.787
			c-0.185-0.474-0.444-0.85-0.779-1.127s-0.721-0.468-1.16-0.572c-0.438-0.104-0.912-0.156-1.419-0.156
			c-0.484,0-1.114,0.087-1.887,0.261c-0.773,0.173-1.702,0.606-2.787,1.301c0.139,0.602,0.208,1.248,0.208,1.942
			c0,0.602-0.046,1.22-0.139,1.855c-0.093,0.636-0.22,1.277-0.381,1.925l-2.15,8.914h-2.248l1.907-7.978
			c0.185-0.763,0.358-1.537,0.521-2.324c0.162-0.785,0.243-1.537,0.243-2.254s-0.093-1.312-0.278-1.787
			c-0.186-0.474-0.447-0.85-0.783-1.127s-0.725-0.468-1.165-0.572c-0.441-0.104-0.916-0.156-1.426-0.156
			c-0.533,0-1.102,0.047-1.704,0.139c-0.603,0.093-1.159,0.208-1.669,0.348l-3.781,15.712h-2.248L72.741,228.941z"/>
		<path fill="#FFFFFF" d="M113.553,233.936c0,2.174-0.307,4.059-0.919,5.654c-0.613,1.595-1.399,2.919-2.358,3.971
			c-0.96,1.053-2.024,1.833-3.191,2.342c-1.168,0.508-2.319,0.763-3.451,0.763c-0.81,0-1.579-0.127-2.307-0.381
			c-0.729-0.255-1.37-0.636-1.925-1.146c-0.555-0.508-0.994-1.139-1.318-1.89c-0.324-0.751-0.486-1.625-0.486-2.619
			c0-2.173,0.307-4.058,0.919-5.653c0.612-1.596,1.399-2.914,2.358-3.954c0.959-1.041,2.023-1.815,3.191-2.324
			c1.167-0.508,2.318-0.763,3.451-0.763c0.809,0,1.578,0.127,2.306,0.381c0.729,0.255,1.37,0.637,1.925,1.145
			c0.555,0.51,0.994,1.14,1.318,1.891C113.391,232.104,113.553,232.965,113.553,233.936z M99.887,240.491
			c0,1.364,0.381,2.394,1.145,3.087s1.676,1.041,2.74,1.041c0.833,0,1.688-0.214,2.566-0.642s1.683-1.075,2.411-1.942
			c0.729-0.867,1.33-1.96,1.804-3.278c0.474-1.317,0.711-2.867,0.711-4.647c0-1.364-0.381-2.394-1.145-3.087
			c-0.763-0.694-1.677-1.041-2.74-1.041c-0.832,0-1.688,0.214-2.566,0.642c-0.879,0.429-1.682,1.075-2.411,1.942
			s-1.33,1.96-1.804,3.278C100.124,237.161,99.887,238.711,99.887,240.491z"/>
		<path fill="#FFFFFF" d="M119.669,228.316h2.248l-4.336,17.933h-2.248L119.669,228.316z M120.559,223.079
			c0-0.601,0.167-1.058,0.503-1.37c0.335-0.312,0.699-0.468,1.093-0.468c0.462,0,0.82,0.145,1.075,0.434
			c0.254,0.289,0.381,0.665,0.381,1.127c0,0.555-0.185,0.983-0.555,1.283c-0.37,0.301-0.74,0.451-1.11,0.451
			c-0.463,0-0.81-0.133-1.041-0.398C120.674,223.872,120.559,223.519,120.559,223.079z"/>
		<path fill="#FFFFFF" d="M123.23,243.405c0.855,0.462,1.607,0.774,2.254,0.937c0.647,0.161,1.375,0.242,2.185,0.242
			c0.578,0,1.133-0.063,1.665-0.19c0.532-0.127,0.994-0.317,1.387-0.572c0.393-0.255,0.705-0.59,0.937-1.006
			c0.231-0.416,0.347-0.902,0.347-1.457c0-0.601-0.168-1.098-0.503-1.491c-0.335-0.394-0.752-0.734-1.249-1.023
			c-0.498-0.289-1.035-0.572-1.613-0.85c-0.578-0.277-1.116-0.602-1.613-0.972c-0.498-0.369-0.914-0.832-1.249-1.387
			c-0.335-0.556-0.503-1.271-0.503-2.15c0-0.994,0.185-1.844,0.555-2.55c0.37-0.705,0.867-1.283,1.492-1.734
			c0.624-0.451,1.341-0.78,2.15-0.988c0.809-0.208,1.642-0.312,2.498-0.312c0.74,0,1.474,0.064,2.202,0.191
			c0.729,0.127,1.428,0.317,2.099,0.572l-0.902,2.012c-0.485-0.209-1.041-0.376-1.665-0.503c-0.624-0.127-1.272-0.191-1.942-0.191
			c-0.555,0-1.092,0.059-1.613,0.174c-0.52,0.116-0.977,0.307-1.37,0.572s-0.711,0.602-0.954,1.006s-0.364,0.896-0.364,1.474
			c0,0.602,0.167,1.099,0.503,1.492c0.335,0.394,0.746,0.74,1.231,1.04c0.485,0.301,1.023,0.584,1.613,0.85
			c0.589,0.267,1.127,0.585,1.613,0.954c0.486,0.37,0.896,0.815,1.231,1.336c0.335,0.52,0.503,1.185,0.503,1.994
			c0,1.018-0.191,1.896-0.572,2.636c-0.382,0.74-0.885,1.342-1.509,1.804c-0.625,0.463-1.341,0.804-2.151,1.023
			s-1.642,0.329-2.497,0.329c-0.902,0-1.804-0.099-2.706-0.295s-1.723-0.503-2.462-0.919L123.23,243.405z"/>
		<path fill="#FFFFFF" d="M153.197,232.514c0,1.295-0.318,2.348-0.954,3.156c-0.636,0.81-1.526,1.451-2.671,1.925
			c-1.145,0.475-2.521,0.815-4.127,1.023c-1.607,0.208-3.394,0.359-5.359,0.451v0.729c0,0.671,0.069,1.295,0.208,1.873
			s0.393,1.081,0.763,1.509c0.37,0.428,0.884,0.769,1.543,1.022c0.659,0.255,1.509,0.382,2.549,0.382
			c0.809,0,1.624-0.115,2.445-0.347c0.82-0.23,1.601-0.578,2.341-1.041l0.243,2.082c-0.787,0.439-1.653,0.78-2.602,1.022
			c-0.948,0.243-1.908,0.364-2.879,0.364c-1.272,0-2.341-0.162-3.208-0.485s-1.573-0.774-2.116-1.353s-0.931-1.271-1.162-2.081
			c-0.231-0.81-0.347-1.7-0.347-2.671c0-1.479,0.226-2.948,0.677-4.405c0.451-1.457,1.115-2.763,1.994-3.919
			c0.878-1.156,1.96-2.087,3.243-2.793c1.283-0.705,2.746-1.058,4.388-1.058c1.618,0,2.861,0.422,3.729,1.267
			C152.763,230.011,153.197,231.126,153.197,232.514z M147.96,229.947c-0.925,0-1.792,0.19-2.602,0.572
			c-0.81,0.381-1.538,0.896-2.185,1.543c-0.648,0.647-1.208,1.399-1.682,2.255c-0.475,0.855-0.827,1.758-1.058,2.705
			c1.965-0.046,3.619-0.173,4.96-0.381c1.341-0.208,2.422-0.497,3.243-0.867c0.82-0.37,1.405-0.815,1.751-1.336
			c0.347-0.521,0.521-1.115,0.521-1.786c0-0.901-0.272-1.578-0.815-2.029C149.549,230.173,148.838,229.947,147.96,229.947z"/>
		<path fill="#FFFFFF" d="M154.029,243.405c0.855,0.462,1.607,0.774,2.254,0.937c0.647,0.161,1.375,0.242,2.185,0.242
			c0.578,0,1.133-0.063,1.665-0.19c0.532-0.127,0.994-0.317,1.387-0.572c0.393-0.255,0.705-0.59,0.937-1.006
			c0.231-0.416,0.347-0.902,0.347-1.457c0-0.601-0.168-1.098-0.503-1.491c-0.335-0.394-0.752-0.734-1.249-1.023
			c-0.498-0.289-1.035-0.572-1.613-0.85c-0.578-0.277-1.116-0.602-1.613-0.972c-0.498-0.369-0.914-0.832-1.249-1.387
			c-0.335-0.556-0.503-1.271-0.503-2.15c0-0.994,0.185-1.844,0.555-2.55c0.37-0.705,0.867-1.283,1.492-1.734
			c0.624-0.451,1.341-0.78,2.15-0.988c0.809-0.208,1.642-0.312,2.498-0.312c0.74,0,1.474,0.064,2.202,0.191s1.427,0.317,2.098,0.572
			l-0.901,2.012c-0.485-0.209-1.041-0.376-1.665-0.503c-0.624-0.127-1.272-0.191-1.942-0.191c-0.555,0-1.092,0.059-1.613,0.174
			c-0.52,0.116-0.977,0.307-1.37,0.572s-0.711,0.602-0.954,1.006s-0.364,0.896-0.364,1.474c0,0.602,0.167,1.099,0.503,1.492
			c0.335,0.394,0.746,0.74,1.231,1.04c0.485,0.301,1.023,0.584,1.613,0.85c0.589,0.267,1.127,0.585,1.613,0.954
			c0.486,0.37,0.896,0.815,1.231,1.336c0.335,0.52,0.503,1.185,0.503,1.994c0,1.018-0.191,1.896-0.572,2.636
			c-0.382,0.74-0.885,1.342-1.509,1.804c-0.625,0.463-1.341,0.804-2.151,1.023s-1.642,0.329-2.497,0.329
			c-0.902,0-1.804-0.099-2.706-0.295s-1.723-0.503-2.462-0.919L154.029,243.405z"/>
		<path fill="#FFFFFF" d="M180.355,245.382c-0.463,0.301-1.174,0.59-2.133,0.867c-0.96,0.277-2.029,0.416-3.208,0.416
			c-2.104,0-3.688-0.601-4.752-1.804c-1.064-1.202-1.596-2.855-1.596-4.96c0-1.572,0.243-3.081,0.729-4.526
			c0.485-1.444,1.196-2.723,2.133-3.832c0.937-1.11,2.087-1.995,3.451-2.654c1.364-0.658,2.914-0.988,4.648-0.988
			c1.201,0,2.393,0.197,3.572,0.59l-0.937,2.047c-0.532-0.209-1.058-0.353-1.578-0.434s-1.023-0.122-1.509-0.122
			c-1.227,0-2.342,0.261-3.348,0.78c-1.006,0.521-1.867,1.227-2.584,2.116c-0.717,0.891-1.271,1.92-1.665,3.087
			c-0.393,1.168-0.589,2.399-0.589,3.694c0,1.525,0.352,2.729,1.058,3.606c0.705,0.88,1.832,1.318,3.382,1.318
			c0.485,0,0.977-0.046,1.474-0.139c0.497-0.092,0.954-0.202,1.37-0.329c0.417-0.127,0.786-0.261,1.11-0.399
			c0.323-0.139,0.566-0.266,0.729-0.381L180.355,245.382z"/>
		<path fill="#FFFFFF" d="M195.634,246.457c-0.138-0.277-0.259-0.595-0.362-0.954c-0.104-0.357-0.179-0.722-0.225-1.092
			c-0.811,0.786-1.662,1.364-2.554,1.733c-0.893,0.37-1.813,0.556-2.764,0.556c-0.741,0-1.447-0.128-2.119-0.382
			s-1.263-0.647-1.772-1.18c-0.51-0.531-0.921-1.219-1.233-2.063c-0.313-0.844-0.47-1.844-0.47-3c0-1.85,0.301-3.526,0.902-5.029
			c0.603-1.503,1.44-2.78,2.517-3.833c1.076-1.052,2.349-1.867,3.818-2.445c1.469-0.577,3.071-0.867,4.808-0.867
			c1.434,0,2.812,0.243,4.13,0.729l-2.671,10.787c-0.139,0.578-0.254,1.122-0.347,1.63c-0.093,0.509-0.139,0.995-0.139,1.457
			c0,0.624,0.058,1.214,0.174,1.769c0.115,0.556,0.323,1.168,0.624,1.839L195.634,246.457z M197.649,230.259
			c-0.417-0.092-0.8-0.161-1.146-0.208c-0.349-0.046-0.707-0.069-1.078-0.069c-1.436,0-2.71,0.277-3.822,0.833
			c-1.112,0.555-2.05,1.283-2.814,2.185c-0.765,0.902-1.35,1.932-1.755,3.087c-0.405,1.157-0.607,2.336-0.607,3.538
			c0,0.948,0.093,1.74,0.277,2.376c0.186,0.637,0.44,1.145,0.765,1.526c0.325,0.382,0.702,0.659,1.13,0.832
			c0.429,0.174,0.887,0.261,1.374,0.261c0.95,0,1.843-0.226,2.677-0.677c0.835-0.451,1.623-1.093,2.365-1.925
			c0-0.624,0.092-1.341,0.277-2.15c0.185-0.81,0.358-1.538,0.52-2.186L197.649,230.259z"/>
		<path fill="#FFFFFF" d="M205.86,228.941c0.347-0.116,0.74-0.231,1.18-0.347c0.439-0.116,0.902-0.22,1.388-0.312
			c0.486-0.092,0.983-0.168,1.493-0.226c0.509-0.058,0.995-0.087,1.458-0.087c0.971,0,1.855,0.134,2.654,0.399
			c0.798,0.266,1.464,0.745,1.996,1.439c1.177-0.694,2.209-1.174,3.099-1.439c0.888-0.266,1.76-0.399,2.613-0.399
			c0.785,0,1.518,0.087,2.198,0.261c0.681,0.173,1.275,0.468,1.783,0.884c0.507,0.416,0.911,0.983,1.211,1.7
			c0.301,0.717,0.45,1.63,0.45,2.74c0,0.602-0.046,1.22-0.139,1.855s-0.22,1.277-0.381,1.925l-2.15,8.914h-2.248l1.907-7.978
			c0.185-0.763,0.358-1.537,0.521-2.324c0.161-0.785,0.242-1.537,0.242-2.254s-0.092-1.312-0.276-1.787
			c-0.185-0.474-0.444-0.85-0.779-1.127s-0.722-0.468-1.16-0.572c-0.438-0.104-0.911-0.156-1.419-0.156
			c-0.484,0-1.114,0.087-1.887,0.261c-0.773,0.173-1.702,0.606-2.787,1.301c0.139,0.602,0.208,1.248,0.208,1.942
			c0,0.602-0.047,1.22-0.139,1.855c-0.093,0.636-0.221,1.277-0.382,1.925l-2.15,8.914h-2.248l1.907-7.978
			c0.186-0.763,0.358-1.537,0.521-2.324c0.162-0.785,0.243-1.537,0.243-2.254s-0.094-1.312-0.278-1.787
			c-0.186-0.474-0.447-0.85-0.783-1.127s-0.725-0.468-1.165-0.572c-0.44-0.104-0.916-0.156-1.426-0.156
			c-0.533,0-1.102,0.047-1.704,0.139c-0.603,0.093-1.159,0.208-1.67,0.348l-3.78,15.712h-2.248L205.86,228.941z"/>
		<path fill="#FFFFFF" d="M246.048,232.514c0,1.295-0.317,2.348-0.953,3.156c-0.637,0.81-1.526,1.451-2.671,1.925
			c-1.145,0.475-2.521,0.815-4.128,1.023s-3.394,0.359-5.358,0.451v0.729c0,0.671,0.069,1.295,0.208,1.873s0.393,1.081,0.763,1.509
			s0.885,0.769,1.544,1.022c0.658,0.255,1.509,0.382,2.549,0.382c0.81,0,1.624-0.115,2.445-0.347c0.82-0.23,1.602-0.578,2.342-1.041
			l0.242,2.082c-0.786,0.439-1.653,0.78-2.602,1.022c-0.948,0.243-1.907,0.364-2.879,0.364c-1.271,0-2.341-0.162-3.208-0.485
			s-1.572-0.774-2.116-1.353c-0.543-0.578-0.931-1.271-1.161-2.081c-0.231-0.81-0.348-1.7-0.348-2.671
			c0-1.479,0.226-2.948,0.677-4.405s1.115-2.763,1.994-3.919s1.96-2.087,3.243-2.793c1.283-0.705,2.746-1.058,4.388-1.058
			c1.618,0,2.861,0.422,3.729,1.267C245.614,230.011,246.048,231.126,246.048,232.514z M240.811,229.947
			c-0.925,0-1.792,0.19-2.602,0.572c-0.81,0.381-1.538,0.896-2.185,1.543c-0.648,0.647-1.209,1.399-1.683,2.255
			c-0.475,0.855-0.827,1.758-1.058,2.705c1.965-0.046,3.618-0.173,4.96-0.381c1.341-0.208,2.422-0.497,3.243-0.867
			c0.82-0.37,1.404-0.815,1.751-1.336c0.348-0.521,0.521-1.115,0.521-1.786c0-0.901-0.271-1.578-0.815-2.029
			C242.4,230.173,241.69,229.947,240.811,229.947z"/>
		<path fill="#FFFFFF" d="M263.599,233.936c0,2.174-0.308,4.059-0.92,5.654c-0.612,1.595-1.399,2.919-2.358,3.971
			c-0.96,1.053-2.023,1.833-3.19,2.342c-1.168,0.508-2.319,0.763-3.451,0.763c-0.811,0-1.579-0.127-2.307-0.381
			c-0.729-0.255-1.37-0.636-1.926-1.146c-0.555-0.508-0.994-1.139-1.317-1.89c-0.324-0.751-0.486-1.625-0.486-2.619
			c0-2.173,0.307-4.058,0.92-5.653c0.612-1.596,1.398-2.914,2.358-3.954c0.959-1.041,2.023-1.815,3.191-2.324
			c1.167-0.508,2.317-0.763,3.451-0.763c0.809,0,1.578,0.127,2.306,0.381c0.729,0.255,1.37,0.637,1.926,1.145
			c0.555,0.51,0.993,1.14,1.317,1.891C263.437,232.104,263.599,232.965,263.599,233.936z M249.933,240.491
			c0,1.364,0.381,2.394,1.145,3.087c0.763,0.693,1.676,1.041,2.74,1.041c0.832,0,1.688-0.214,2.566-0.642s1.683-1.075,2.41-1.942
			c0.729-0.867,1.33-1.96,1.804-3.278c0.474-1.317,0.711-2.867,0.711-4.647c0-1.364-0.381-2.394-1.145-3.087
			c-0.763-0.694-1.677-1.041-2.74-1.041c-0.832,0-1.688,0.214-2.566,0.642c-0.879,0.429-1.682,1.075-2.41,1.942
			s-1.33,1.96-1.804,3.278C250.169,237.161,249.933,238.711,249.933,240.491z"/>
	</g>
	<path fill="#FFFFFF" d="M185.675,46.449h11.997V26.188c-2.066-0.274-9.185-0.896-17.473-0.896
		c-17.299,0-29.147,10.554-29.147,29.943v17.846h-19.091v22.65h19.091v56.999h23.397V95.732h18.319l2.912-22.65h-21.232V57.476
		C174.449,50.93,176.266,46.449,185.675,46.449L185.675,46.449z"/>
</g>
<rect y="0" fill="none" width="329.633" height="333.834"/>
</svg>
