<?xml version="1.0" encoding="utf-8"?>
<!-- Generator: Adobe Illustrator 17.0.0, SVG Export Plug-In . SVG Version: 6.00 Build 0)  -->
<!DOCTYPE svg PUBLIC "-//W3C//DTD SVG 1.1//EN" "http://www.w3.org/Graphics/SVG/1.1/DTD/svg11.dtd">
<svg version="1.1" id="Capa_1" xmlns="http://www.w3.org/2000/svg" xmlns:xlink="http://www.w3.org/1999/xlink" x="0px" y="0px"
	 width="329.633px" height="330.744px" viewBox="0 0 329.633 330.744" enable-background="new 0 0 329.633 330.744"
	 xml:space="preserve">
<g>
	<g>
		<linearGradient id="SVGID_1_" gradientUnits="userSpaceOnUse" x1="-11.9615" y1="265.8894" x2="341.5946" y2="61.7637">
			<stop  offset="0" style="stop-color:#F4DA75"/>
			<stop  offset="0.25" style="stop-color:#EE742C"/>
			<stop  offset="0.5" style="stop-color:#D62776"/>
			<stop  offset="0.75" style="stop-color:#962B8D"/>
			<stop  offset="1" style="stop-color:#45589E"/>
		</linearGradient>
		<path fill="url(#SVGID_1_)" d="M317.594,302.602c0,10.027-8.204,18.23-18.231,18.23H30.269c-10.027,0-18.231-8.204-18.231-18.23
			V25.051c0-10.027,8.204-18.23,18.231-18.23h269.095c10.027,0,18.231,8.204,18.231,18.23V302.602z"/>
	</g>
	<g>
		<path fill="#FFFFFF" d="M46.903,167.839h6.592v36.253h-6.592V167.839z"/>
		<path fill="#FFFFFF" d="M61.865,177.621c1.22-0.348,2.807-0.68,4.76-0.994s4.115-0.471,6.487-0.471
			c2.231,0,4.098,0.306,5.598,0.915c1.499,0.611,2.693,1.465,3.583,2.563s1.518,2.424,1.884,3.976
			c0.366,1.552,0.549,3.252,0.549,5.101v15.38h-6.33v-14.386c0-1.465-0.096-2.711-0.287-3.74c-0.192-1.028-0.506-1.865-0.942-2.511
			c-0.437-0.645-1.028-1.116-1.778-1.412c-0.75-0.296-1.666-0.445-2.746-0.445c-0.803,0-1.64,0.052-2.512,0.157
			c-0.872,0.105-1.517,0.192-1.936,0.262v22.076h-6.329V177.621z"/>
		<path fill="#FFFFFF" d="M99.321,199.54c1.674,0,2.894-0.2,3.661-0.602c0.767-0.4,1.151-1.09,1.151-2.066
			c0-0.906-0.41-1.656-1.229-2.25c-0.82-0.593-2.171-1.237-4.055-1.936c-1.15-0.418-2.206-0.863-3.164-1.334
			c-0.96-0.471-1.788-1.02-2.485-1.648c-0.698-0.627-1.247-1.386-1.647-2.275c-0.401-0.89-0.602-1.979-0.602-3.27
			c0-2.511,0.923-4.49,2.772-5.938c1.848-1.447,4.358-2.171,7.533-2.171c1.604,0,3.139,0.149,4.604,0.445
			c1.465,0.297,2.563,0.584,3.295,0.863l-1.15,5.126c-0.698-0.314-1.588-0.602-2.668-0.863c-1.081-0.261-2.337-0.392-3.767-0.392
			c-1.291,0-2.337,0.218-3.139,0.654c-0.803,0.437-1.203,1.107-1.203,2.014c0,0.454,0.078,0.855,0.235,1.203
			c0.157,0.349,0.427,0.672,0.811,0.968c0.384,0.297,0.89,0.593,1.518,0.889c0.627,0.297,1.395,0.602,2.302,0.916
			c1.499,0.559,2.772,1.108,3.818,1.648c1.047,0.541,1.909,1.151,2.59,1.831c0.68,0.68,1.177,1.457,1.491,2.328
			c0.313,0.872,0.471,1.918,0.471,3.139c0,2.616-0.968,4.595-2.903,5.938s-4.7,2.014-8.292,2.014c-2.406,0-4.342-0.201-5.807-0.602
			c-1.465-0.401-2.494-0.724-3.087-0.968l1.099-5.284c0.941,0.384,2.066,0.75,3.374,1.099
			C96.156,199.366,97.646,199.54,99.321,199.54z"/>
		<path fill="#FFFFFF" d="M116.06,169.513l6.329-1.046v8.266h9.73v5.284h-9.73v11.143c0,2.197,0.349,3.767,1.047,4.708
			c0.697,0.941,1.883,1.412,3.558,1.412c1.15,0,2.171-0.122,3.06-0.366c0.89-0.243,1.596-0.471,2.119-0.68l1.046,5.022
			c-0.732,0.314-1.691,0.637-2.877,0.968c-1.187,0.331-2.581,0.497-4.186,0.497c-1.953,0-3.583-0.262-4.891-0.785
			c-1.308-0.523-2.346-1.282-3.113-2.276s-1.308-2.197-1.621-3.609c-0.314-1.413-0.471-3.025-0.471-4.839V169.513z"/>
		<path fill="#FFFFFF" d="M147.344,176.052c2.092,0,3.853,0.262,5.283,0.785c1.43,0.523,2.571,1.256,3.427,2.197
			c0.854,0.942,1.465,2.084,1.831,3.427c0.366,1.343,0.549,2.816,0.549,4.42v16.583c-0.977,0.209-2.45,0.463-4.42,0.759
			c-1.972,0.296-4.194,0.445-6.67,0.445c-1.641,0-3.14-0.157-4.499-0.471c-1.36-0.314-2.521-0.819-3.479-1.517
			c-0.959-0.697-1.709-1.604-2.249-2.72c-0.541-1.116-0.811-2.493-0.811-4.133c0-1.569,0.305-2.894,0.915-3.976
			c0.609-1.081,1.438-1.962,2.484-2.642c1.047-0.68,2.258-1.168,3.637-1.464c1.377-0.296,2.815-0.445,4.315-0.445
			c0.697,0,1.43,0.044,2.197,0.131c0.767,0.087,1.586,0.235,2.459,0.444v-1.046c0-0.732-0.088-1.43-0.262-2.093
			c-0.175-0.662-0.48-1.247-0.916-1.752c-0.437-0.505-1.012-0.897-1.727-1.177c-0.715-0.278-1.613-0.418-2.693-0.418
			c-1.465,0-2.808,0.105-4.028,0.314c-1.222,0.209-2.215,0.454-2.982,0.732l-0.784-5.126c0.802-0.279,1.97-0.558,3.505-0.837
			C143.96,176.192,145.599,176.052,147.344,176.052z M147.866,199.645c1.953,0,3.435-0.104,4.447-0.314v-7.01
			c-0.35-0.104-0.855-0.209-1.518-0.314c-0.663-0.104-1.396-0.157-2.197-0.157c-0.698,0-1.404,0.052-2.118,0.157
			c-0.716,0.105-1.36,0.297-1.936,0.576c-0.576,0.279-1.038,0.672-1.387,1.177c-0.349,0.506-0.523,1.143-0.523,1.91
			c0,1.5,0.471,2.537,1.413,3.113C144.989,199.357,146.262,199.645,147.866,199.645z"/>
		<path fill="#FFFFFF" d="M188.775,201.319c0,4.359-1.107,7.55-3.322,9.573c-2.215,2.022-5.606,3.034-10.175,3.034
			c-1.674,0-3.305-0.14-4.892-0.418c-1.587-0.28-3.025-0.646-4.315-1.099l1.15-5.388c1.081,0.453,2.311,0.819,3.688,1.099
			c1.377,0.278,2.868,0.418,4.473,0.418c2.546,0,4.359-0.523,5.44-1.569c1.081-1.046,1.622-2.599,1.622-4.656v-1.046
			c-0.628,0.313-1.457,0.627-2.485,0.941s-2.206,0.471-3.53,0.471c-1.745,0-3.341-0.279-4.787-0.837
			c-1.447-0.558-2.686-1.377-3.714-2.458c-1.029-1.081-1.831-2.433-2.407-4.055c-0.575-1.622-0.862-3.496-0.862-5.624
			c0-1.988,0.305-3.819,0.915-5.493c0.609-1.674,1.499-3.104,2.668-4.29c1.168-1.185,2.59-2.109,4.264-2.772
			c1.674-0.662,3.574-0.994,5.702-0.994c2.058,0,4.01,0.157,5.859,0.471c1.848,0.314,3.417,0.646,4.708,0.994V201.319z
			 M171.145,189.705c0,2.686,0.584,4.648,1.753,5.885c1.168,1.238,2.676,1.857,4.524,1.857c1.012,0,1.962-0.139,2.852-0.419
			c0.889-0.278,1.612-0.609,2.171-0.994v-14.177c-0.454-0.105-1.012-0.201-1.674-0.288c-0.663-0.086-1.5-0.131-2.512-0.131
			c-2.302,0-4.062,0.759-5.283,2.276C171.755,185.233,171.145,187.23,171.145,189.705z"/>
		<path fill="#FFFFFF" d="M212.421,182.434c-0.523-0.174-1.248-0.357-2.172-0.549c-0.924-0.191-1.996-0.288-3.217-0.288
			c-0.698,0-1.438,0.07-2.224,0.209c-0.784,0.14-1.334,0.262-1.647,0.366v21.919h-6.33V178.04c1.221-0.453,2.746-0.88,4.577-1.282
			c1.831-0.401,3.862-0.602,6.095-0.602c0.419,0,0.906,0.026,1.465,0.078c0.558,0.052,1.116,0.123,1.674,0.209
			c0.558,0.087,1.099,0.192,1.622,0.314c0.523,0.123,0.941,0.235,1.255,0.34L212.421,182.434z"/>
		<path fill="#FFFFFF" d="M227.016,176.052c2.093,0,3.854,0.262,5.283,0.785c1.43,0.523,2.572,1.256,3.427,2.197
			c0.854,0.942,1.465,2.084,1.831,3.427c0.366,1.343,0.55,2.816,0.55,4.42v16.583c-0.978,0.209-2.451,0.463-4.421,0.759
			c-1.971,0.296-4.194,0.445-6.67,0.445c-1.64,0-3.139-0.157-4.499-0.471s-2.52-0.819-3.479-1.517
			c-0.96-0.697-1.709-1.604-2.25-2.72c-0.541-1.116-0.811-2.493-0.811-4.133c0-1.569,0.305-2.894,0.915-3.976
			c0.61-1.081,1.439-1.962,2.485-2.642c1.046-0.68,2.258-1.168,3.636-1.464c1.377-0.296,2.816-0.445,4.315-0.445
			c0.697,0,1.43,0.044,2.197,0.131c0.767,0.087,1.587,0.235,2.459,0.444v-1.046c0-0.732-0.088-1.43-0.262-2.093
			c-0.175-0.662-0.479-1.247-0.915-1.752c-0.437-0.505-1.012-0.897-1.727-1.177c-0.715-0.278-1.613-0.418-2.694-0.418
			c-1.465,0-2.808,0.105-4.028,0.314c-1.221,0.209-2.215,0.454-2.981,0.732l-0.785-5.126c0.803-0.279,1.971-0.558,3.506-0.837
			C223.633,176.192,225.271,176.052,227.016,176.052z M227.539,199.645c1.952,0,3.435-0.104,4.446-0.314v-7.01
			c-0.349-0.104-0.854-0.209-1.517-0.314c-0.663-0.104-1.396-0.157-2.197-0.157c-0.698,0-1.404,0.052-2.119,0.157
			c-0.715,0.105-1.36,0.297-1.936,0.576c-0.575,0.279-1.038,0.672-1.386,1.177c-0.35,0.506-0.523,1.143-0.523,1.91
			c0,1.5,0.471,2.537,1.412,3.113C224.661,199.357,225.934,199.645,227.539,199.645z"/>
		<path fill="#FFFFFF" d="M261.437,189.705c0-2.859-0.358-4.925-1.072-6.199c-0.716-1.272-2.05-1.909-4.002-1.909
			c-0.698,0-1.465,0.052-2.302,0.157c-0.837,0.105-1.465,0.192-1.884,0.262v22.076h-6.329v-26.471
			c1.22-0.348,2.815-0.68,4.786-0.994c1.97-0.314,4.055-0.471,6.252-0.471c1.883,0,3.426,0.244,4.629,0.732
			c1.203,0.489,2.206,1.134,3.009,1.936c0.383-0.279,0.871-0.576,1.465-0.89c0.592-0.314,1.255-0.602,1.987-0.863
			c0.732-0.261,1.508-0.479,2.328-0.654c0.819-0.174,1.647-0.261,2.484-0.261c2.127,0,3.88,0.306,5.258,0.915
			c1.377,0.611,2.459,1.465,3.243,2.563c0.785,1.099,1.325,2.424,1.622,3.976c0.296,1.552,0.444,3.252,0.444,5.101v15.38h-6.329
			v-14.386c0-2.859-0.35-4.925-1.047-6.199c-0.698-1.272-2.04-1.909-4.028-1.909c-1.012,0-1.971,0.166-2.877,0.497
			c-0.907,0.332-1.587,0.654-2.04,0.968c0.278,0.872,0.471,1.796,0.575,2.772c0.104,0.977,0.157,2.023,0.157,3.139v15.119h-6.33
			V189.705z"/>
	</g>
	<g>
		<path fill="#FFFFFF" d="M74.18,225.85c0.347-0.115,0.74-0.23,1.18-0.347c0.439-0.115,0.902-0.219,1.388-0.312
			c0.486-0.092,0.983-0.167,1.493-0.226c0.509-0.058,0.995-0.087,1.458-0.087c0.971,0,1.856,0.133,2.654,0.399
			c0.798,0.266,1.464,0.746,1.996,1.439c1.177-0.693,2.209-1.173,3.099-1.439c0.888-0.266,1.76-0.399,2.614-0.399
			c0.785,0,1.518,0.087,2.198,0.26s1.275,0.468,1.783,0.885c0.507,0.416,0.911,0.983,1.211,1.699c0.3,0.717,0.45,1.63,0.45,2.74
			c0,0.601-0.046,1.22-0.139,1.855c-0.093,0.637-0.22,1.278-0.381,1.926l-2.15,8.914h-2.248l1.908-7.978
			c0.185-0.764,0.358-1.538,0.52-2.324c0.162-0.786,0.243-1.537,0.243-2.254c0-0.716-0.092-1.312-0.277-1.786
			c-0.185-0.474-0.444-0.85-0.779-1.127c-0.335-0.277-0.721-0.468-1.16-0.572s-0.912-0.156-1.419-0.156
			c-0.484,0-1.114,0.086-1.887,0.26s-1.702,0.607-2.787,1.301c0.139,0.602,0.208,1.249,0.208,1.942c0,0.601-0.046,1.22-0.139,1.855
			c-0.093,0.637-0.22,1.278-0.381,1.926l-2.15,8.914h-2.248l1.907-7.978c0.185-0.764,0.358-1.538,0.521-2.324
			c0.162-0.786,0.243-1.537,0.243-2.254c0-0.716-0.093-1.312-0.278-1.786c-0.186-0.474-0.447-0.85-0.783-1.127
			c-0.336-0.277-0.725-0.468-1.165-0.572c-0.441-0.104-0.916-0.156-1.426-0.156c-0.533,0-1.102,0.046-1.704,0.139
			s-1.159,0.208-1.669,0.347L72.3,243.159h-2.248L74.18,225.85z"/>
		<path fill="#FFFFFF" d="M114.992,230.845c0,2.174-0.307,4.059-0.919,5.653c-0.613,1.596-1.399,2.92-2.358,3.972
			c-0.96,1.053-2.024,1.833-3.191,2.342c-1.168,0.508-2.319,0.763-3.451,0.763c-0.81,0-1.579-0.127-2.307-0.382
			c-0.729-0.254-1.37-0.636-1.925-1.145c-0.555-0.508-0.994-1.139-1.318-1.891c-0.324-0.751-0.486-1.624-0.486-2.618
			c0-2.174,0.307-4.059,0.919-5.653c0.612-1.596,1.399-2.914,2.358-3.954c0.959-1.041,2.023-1.815,3.191-2.324
			c1.167-0.508,2.318-0.763,3.451-0.763c0.809,0,1.578,0.127,2.306,0.382c0.729,0.254,1.37,0.636,1.925,1.145
			c0.555,0.509,0.994,1.139,1.318,1.89C114.83,229.013,114.992,229.874,114.992,230.845z M101.326,237.401
			c0,1.364,0.381,2.394,1.145,3.087s1.676,1.04,2.74,1.04c0.833,0,1.688-0.213,2.566-0.642c0.879-0.428,1.683-1.075,2.411-1.942
			c0.729-0.867,1.33-1.959,1.804-3.277c0.474-1.318,0.711-2.867,0.711-4.647c0-1.364-0.381-2.394-1.145-3.087
			c-0.763-0.694-1.677-1.041-2.74-1.041c-0.832,0-1.688,0.214-2.566,0.642c-0.879,0.428-1.682,1.075-2.411,1.942
			c-0.729,0.867-1.33,1.959-1.804,3.277C101.563,234.071,101.326,235.62,101.326,237.401z"/>
		<path fill="#FFFFFF" d="M121.108,225.226h2.248l-4.336,17.932h-2.248L121.108,225.226z M121.998,219.989
			c0-0.601,0.167-1.058,0.503-1.37c0.335-0.312,0.699-0.468,1.093-0.468c0.462,0,0.82,0.145,1.075,0.433
			c0.254,0.29,0.381,0.665,0.381,1.127c0,0.555-0.185,0.983-0.555,1.283c-0.37,0.301-0.74,0.451-1.11,0.451
			c-0.463,0-0.81-0.133-1.041-0.399C122.114,220.781,121.998,220.429,121.998,219.989z"/>
		<path fill="#FFFFFF" d="M124.668,240.314c0.855,0.463,1.607,0.775,2.254,0.937c0.647,0.162,1.375,0.243,2.185,0.243
			c0.578,0,1.133-0.063,1.665-0.19c0.532-0.127,0.994-0.318,1.387-0.572c0.393-0.255,0.705-0.59,0.937-1.006
			c0.231-0.417,0.347-0.902,0.347-1.457c0-0.602-0.168-1.099-0.503-1.491c-0.335-0.394-0.752-0.734-1.249-1.023
			c-0.498-0.289-1.035-0.572-1.613-0.85c-0.578-0.278-1.116-0.602-1.613-0.972c-0.498-0.369-0.914-0.832-1.249-1.388
			c-0.335-0.555-0.503-1.271-0.503-2.15c0-0.994,0.185-1.844,0.555-2.549c0.37-0.705,0.867-1.283,1.492-1.734
			c0.624-0.451,1.341-0.78,2.15-0.988c0.809-0.208,1.642-0.312,2.498-0.312c0.74,0,1.474,0.064,2.202,0.191
			c0.729,0.127,1.428,0.318,2.099,0.572l-0.902,2.012c-0.485-0.208-1.041-0.375-1.665-0.503c-0.624-0.127-1.272-0.191-1.942-0.191
			c-0.555,0-1.092,0.058-1.613,0.174c-0.52,0.116-0.977,0.307-1.37,0.572c-0.393,0.266-0.711,0.602-0.954,1.006
			c-0.243,0.405-0.364,0.896-0.364,1.474c0,0.602,0.167,1.098,0.503,1.491c0.335,0.394,0.746,0.74,1.231,1.041
			c0.485,0.301,1.023,0.584,1.613,0.85c0.589,0.267,1.127,0.584,1.613,0.954c0.486,0.37,0.896,0.814,1.231,1.335
			c0.335,0.521,0.503,1.186,0.503,1.995c0,1.018-0.191,1.896-0.572,2.636c-0.382,0.74-0.885,1.341-1.509,1.804
			c-0.625,0.463-1.341,0.804-2.151,1.023c-0.81,0.219-1.642,0.329-2.497,0.329c-0.902,0-1.804-0.099-2.706-0.295
			s-1.723-0.503-2.462-0.919L124.668,240.314z"/>
		<path fill="#FFFFFF" d="M154.636,229.423c0,1.295-0.318,2.347-0.954,3.156c-0.636,0.81-1.526,1.451-2.671,1.925
			c-1.145,0.475-2.521,0.815-4.127,1.023c-1.607,0.208-3.394,0.358-5.359,0.451v0.728c0,0.672,0.069,1.296,0.208,1.873
			c0.139,0.579,0.393,1.082,0.763,1.509c0.37,0.429,0.884,0.77,1.543,1.023c0.659,0.255,1.509,0.382,2.549,0.382
			c0.809,0,1.624-0.115,2.445-0.347c0.82-0.231,1.601-0.578,2.341-1.041l0.243,2.081c-0.787,0.439-1.653,0.78-2.602,1.023
			s-1.908,0.364-2.879,0.364c-1.272,0-2.341-0.162-3.208-0.485c-0.867-0.324-1.573-0.774-2.116-1.353s-0.931-1.271-1.162-2.082
			c-0.231-0.809-0.347-1.699-0.347-2.67c0-1.479,0.226-2.948,0.677-4.405c0.451-1.457,1.115-2.763,1.994-3.919
			c0.878-1.156,1.96-2.086,3.243-2.792c1.283-0.705,2.746-1.058,4.388-1.058c1.618,0,2.861,0.422,3.729,1.266
			C154.203,226.92,154.636,228.036,154.636,229.423z M149.399,226.856c-0.925,0-1.792,0.191-2.602,0.572
			c-0.81,0.382-1.538,0.896-2.185,1.544c-0.647,0.647-1.208,1.399-1.682,2.254c-0.475,0.855-0.827,1.757-1.058,2.705
			c1.965-0.046,3.619-0.174,4.96-0.382c1.341-0.208,2.422-0.497,3.243-0.867c0.82-0.369,1.405-0.814,1.751-1.335
			c0.347-0.52,0.521-1.115,0.521-1.786c0-0.902-0.272-1.578-0.815-2.029C150.988,227.082,150.277,226.856,149.399,226.856z"/>
		<path fill="#FFFFFF" d="M155.469,240.314c0.855,0.463,1.607,0.775,2.254,0.937c0.647,0.162,1.375,0.243,2.185,0.243
			c0.578,0,1.133-0.063,1.665-0.19c0.532-0.127,0.994-0.318,1.387-0.572c0.393-0.255,0.705-0.59,0.937-1.006
			c0.231-0.417,0.347-0.902,0.347-1.457c0-0.602-0.168-1.099-0.503-1.491c-0.335-0.394-0.752-0.734-1.249-1.023
			c-0.498-0.289-1.035-0.572-1.613-0.85c-0.578-0.278-1.116-0.602-1.613-0.972c-0.498-0.369-0.914-0.832-1.249-1.388
			c-0.335-0.555-0.503-1.271-0.503-2.15c0-0.994,0.185-1.844,0.555-2.549c0.37-0.705,0.867-1.283,1.492-1.734
			c0.624-0.451,1.341-0.78,2.15-0.988c0.809-0.208,1.642-0.312,2.498-0.312c0.74,0,1.474,0.064,2.202,0.191
			c0.729,0.127,1.428,0.318,2.099,0.572l-0.902,2.012c-0.485-0.208-1.041-0.375-1.665-0.503c-0.624-0.127-1.272-0.191-1.942-0.191
			c-0.555,0-1.092,0.058-1.613,0.174c-0.52,0.116-0.977,0.307-1.37,0.572c-0.393,0.266-0.711,0.602-0.954,1.006
			c-0.243,0.405-0.364,0.896-0.364,1.474c0,0.602,0.167,1.098,0.503,1.491c0.335,0.394,0.746,0.74,1.231,1.041
			c0.485,0.301,1.023,0.584,1.613,0.85c0.589,0.267,1.127,0.584,1.613,0.954c0.486,0.37,0.896,0.814,1.231,1.335
			c0.335,0.521,0.503,1.186,0.503,1.995c0,1.018-0.191,1.896-0.572,2.636c-0.382,0.74-0.885,1.341-1.509,1.804
			c-0.625,0.463-1.341,0.804-2.151,1.023c-0.81,0.219-1.642,0.329-2.497,0.329c-0.902,0-1.804-0.099-2.706-0.295
			s-1.723-0.503-2.462-0.919L155.469,240.314z"/>
		<path fill="#FFFFFF" d="M169.343,240.314c0.855,0.463,1.607,0.775,2.254,0.937c0.647,0.162,1.375,0.243,2.185,0.243
			c0.578,0,1.133-0.063,1.665-0.19c0.532-0.127,0.994-0.318,1.387-0.572c0.393-0.255,0.705-0.59,0.937-1.006
			c0.231-0.417,0.347-0.902,0.347-1.457c0-0.602-0.168-1.099-0.503-1.491c-0.335-0.394-0.752-0.734-1.249-1.023
			c-0.498-0.289-1.035-0.572-1.613-0.85c-0.578-0.278-1.116-0.602-1.613-0.972c-0.498-0.369-0.914-0.832-1.249-1.388
			c-0.335-0.555-0.503-1.271-0.503-2.15c0-0.994,0.185-1.844,0.555-2.549c0.37-0.705,0.867-1.283,1.492-1.734
			c0.624-0.451,1.341-0.78,2.15-0.988c0.809-0.208,1.642-0.312,2.498-0.312c0.74,0,1.474,0.064,2.202,0.191
			c0.729,0.127,1.428,0.318,2.099,0.572l-0.902,2.012c-0.485-0.208-1.041-0.375-1.665-0.503c-0.624-0.127-1.272-0.191-1.942-0.191
			c-0.555,0-1.092,0.058-1.613,0.174c-0.52,0.116-0.977,0.307-1.37,0.572c-0.393,0.266-0.711,0.602-0.954,1.006
			c-0.243,0.405-0.364,0.896-0.364,1.474c0,0.602,0.167,1.098,0.503,1.491c0.335,0.394,0.746,0.74,1.231,1.041
			c0.485,0.301,1.023,0.584,1.613,0.85c0.589,0.267,1.127,0.584,1.613,0.954c0.486,0.37,0.896,0.814,1.231,1.335
			c0.335,0.521,0.503,1.186,0.503,1.995c0,1.018-0.191,1.896-0.572,2.636c-0.382,0.74-0.885,1.341-1.509,1.804
			c-0.625,0.463-1.341,0.804-2.151,1.023c-0.81,0.219-1.642,0.329-2.497,0.329c-0.902,0-1.804-0.099-2.706-0.295
			s-1.723-0.503-2.462-0.919L169.343,240.314z"/>
		<path fill="#FFFFFF" d="M189.853,216.659l2.352-0.416l-3.992,16.562c0.832-0.554,1.681-1.183,2.548-1.886
			c0.867-0.703,1.699-1.407,2.497-2.111c0.797-0.703,1.52-1.373,2.167-2.007c0.647-0.634,1.156-1.159,1.526-1.574h2.74
			c-0.416,0.531-1.011,1.177-1.785,1.938c-0.774,0.761-1.595,1.534-2.461,2.318c-0.867,0.785-1.722,1.517-2.565,2.198
			s-1.542,1.183-2.097,1.505c0.786,0.604,1.554,1.31,2.305,2.12s1.438,1.668,2.062,2.571s1.184,1.812,1.681,2.728
			c0.497,0.915,0.883,1.766,1.161,2.554h-2.428c-1.015-2.178-2.167-4.048-3.459-5.612c-1.292-1.563-2.652-2.832-4.082-3.805
			l-2.305,9.417h-2.248L189.853,216.659z"/>
		<path fill="#FFFFFF" d="M215.751,229.423c0,1.295-0.318,2.347-0.954,3.156c-0.636,0.81-1.526,1.451-2.671,1.925
			c-1.145,0.475-2.521,0.815-4.127,1.023c-1.607,0.208-3.394,0.358-5.359,0.451v0.728c0,0.672,0.069,1.296,0.208,1.873
			c0.139,0.579,0.393,1.082,0.763,1.509c0.37,0.429,0.884,0.77,1.543,1.023c0.659,0.255,1.509,0.382,2.549,0.382
			c0.809,0,1.624-0.115,2.445-0.347c0.82-0.231,1.601-0.578,2.341-1.041l0.243,2.081c-0.787,0.439-1.653,0.78-2.602,1.023
			s-1.908,0.364-2.879,0.364c-1.272,0-2.341-0.162-3.208-0.485c-0.867-0.324-1.573-0.774-2.116-1.353s-0.931-1.271-1.162-2.082
			c-0.231-0.809-0.347-1.699-0.347-2.67c0-1.479,0.226-2.948,0.677-4.405c0.451-1.457,1.115-2.763,1.994-3.919
			c0.878-1.156,1.96-2.086,3.243-2.792c1.283-0.705,2.746-1.058,4.388-1.058c1.618,0,2.861,0.422,3.729,1.266
			C215.318,226.92,215.751,228.036,215.751,229.423z M210.514,226.856c-0.925,0-1.792,0.191-2.602,0.572
			c-0.81,0.382-1.538,0.896-2.185,1.544c-0.647,0.647-1.208,1.399-1.682,2.254c-0.475,0.855-0.827,1.757-1.058,2.705
			c1.965-0.046,3.619-0.174,4.96-0.382c1.341-0.208,2.422-0.497,3.243-0.867c0.82-0.369,1.405-0.814,1.751-1.335
			c0.347-0.52,0.521-1.115,0.521-1.786c0-0.902-0.272-1.578-0.815-2.029C212.103,227.082,211.393,226.856,210.514,226.856z"/>
		<path fill="#FFFFFF" d="M222.183,219.954l2.353-0.416l-1.335,5.688h6.321l-0.453,1.942h-6.372l-2.115,8.775
			c-0.116,0.416-0.214,0.861-0.295,1.336c-0.082,0.474-0.122,0.942-0.122,1.404c0,1.041,0.255,1.769,0.765,2.186
			c0.511,0.416,1.149,0.624,1.916,0.624c0.742,0,1.387-0.081,1.933-0.243c0.545-0.161,1.121-0.381,1.725-0.659l0.209,2.047
			c-0.626,0.255-1.327,0.475-2.104,0.659s-1.547,0.277-2.312,0.277c-0.603,0-1.17-0.069-1.704-0.208s-1.003-0.37-1.409-0.693
			c-0.405-0.324-0.73-0.752-0.973-1.284c-0.243-0.531-0.364-1.202-0.364-2.012c0-0.993,0.162-2.139,0.485-3.434L222.183,219.954z"/>
		<path fill="#FFFFFF" d="M242.112,242.291c-0.463,0.301-1.174,0.59-2.133,0.867c-0.96,0.277-2.029,0.416-3.208,0.416
			c-2.104,0-3.688-0.601-4.752-1.804c-1.064-1.202-1.596-2.855-1.596-4.96c0-1.572,0.243-3.081,0.729-4.526
			c0.486-1.445,1.197-2.723,2.133-3.833s2.086-1.995,3.451-2.653c1.364-0.659,2.914-0.989,4.648-0.989
			c1.202,0,2.393,0.197,3.572,0.59l-0.937,2.046c-0.532-0.208-1.058-0.352-1.578-0.434c-0.52-0.081-1.023-0.122-1.509-0.122
			c-1.226,0-2.341,0.26-3.347,0.781c-1.006,0.52-1.868,1.226-2.584,2.116c-0.717,0.89-1.272,1.919-1.665,3.087
			s-0.589,2.399-0.589,3.693c0,1.526,0.352,2.729,1.058,3.607c0.705,0.879,1.833,1.318,3.382,1.318c0.486,0,0.977-0.046,1.474-0.139
			c0.497-0.093,0.954-0.202,1.37-0.33c0.417-0.126,0.786-0.26,1.11-0.398s0.566-0.266,0.729-0.382L242.112,242.291z"/>
		<path fill="#FFFFFF" d="M247.597,243.159h-2.248l6.313-26.5l2.352-0.416l-2.293,9.469c1.456-0.601,2.831-0.902,4.125-0.902
			c0.786,0,1.514,0.116,2.184,0.347c0.67,0.231,1.26,0.578,1.769,1.041c0.508,0.463,0.907,1.046,1.196,1.751
			c0.289,0.706,0.434,1.543,0.434,2.515c0,0.601-0.047,1.22-0.139,1.855c-0.093,0.637-0.22,1.278-0.382,1.926l-2.15,8.914h-2.248
			l1.908-7.978c0.185-0.764,0.358-1.538,0.52-2.324s0.243-1.537,0.243-2.254c0-0.693-0.11-1.277-0.33-1.751
			c-0.22-0.474-0.509-0.855-0.868-1.145s-0.782-0.497-1.267-0.625c-0.486-0.127-0.996-0.191-1.528-0.191
			c-0.671,0-1.349,0.07-2.031,0.208c-0.683,0.139-1.325,0.312-1.927,0.52L247.597,243.159z"/>
	</g>
	<path fill="#FFFFFF" d="M164.831,53.339c-18.139,0-32.77,14.631-32.77,32.77s14.631,32.77,32.77,32.77s32.77-14.631,32.77-32.77
		S182.97,53.339,164.831,53.339z M164.831,107.414c-11.722,0-21.305-9.554-21.305-21.305s9.554-21.305,21.305-21.305
		s21.305,9.554,21.305,21.305S176.553,107.414,164.831,107.414L164.831,107.414z M206.585,51.999c0,4.25-3.422,7.644-7.644,7.644
		c-4.25,0-7.644-3.422-7.644-7.644s3.422-7.644,7.644-7.644C203.163,44.355,206.585,47.778,206.585,51.999z M228.289,59.756
		c-0.485-10.239-2.824-19.308-10.324-26.781c-7.472-7.472-16.542-9.811-26.781-10.324c-10.553-0.599-42.182-0.599-52.735,0
		c-10.21,0.485-19.28,2.824-26.781,10.296s-9.811,16.542-10.324,26.781c-0.599,10.553-0.599,42.182,0,52.735
		c0.485,10.239,2.824,19.308,10.324,26.781s16.542,9.811,26.781,10.324c10.553,0.599,42.182,0.599,52.735,0
		c10.239-0.485,19.308-2.824,26.781-10.324c7.472-7.472,9.811-16.542,10.324-26.781C228.888,101.91,228.888,70.309,228.289,59.756
		L228.289,59.756z M214.656,123.785c-2.225,5.59-6.531,9.897-12.15,12.15c-8.414,3.337-28.378,2.567-37.676,2.567
		s-29.291,0.742-37.676-2.567c-5.59-2.225-9.897-6.531-12.15-12.15c-3.337-8.414-2.567-28.378-2.567-37.676
		s-0.742-29.291,2.567-37.676c2.225-5.59,6.531-9.897,12.15-12.15c8.414-3.337,28.378-2.567,37.676-2.567s29.291-0.742,37.676,2.567
		c5.59,2.225,9.897,6.531,12.15,12.15c3.337,8.414,2.567,28.378,2.567,37.676S217.993,115.4,214.656,123.785z"/>
</g>
<rect x="0" y="-3.09" fill="none" width="329.633" height="333.834"/>
</svg>
