<?xml version="1.0" encoding="utf-8"?>
<!-- Generator: Adobe Illustrator 17.0.0, SVG Export Plug-In . SVG Version: 6.00 Build 0)  -->
<!DOCTYPE svg PUBLIC "-//W3C//DTD SVG 1.1//EN" "http://www.w3.org/Graphics/SVG/1.1/DTD/svg11.dtd">
<svg version="1.1" id="Capa_1" xmlns="http://www.w3.org/2000/svg" xmlns:xlink="http://www.w3.org/1999/xlink" x="0px" y="0px"
	 width="327.256px" height="333.834px" viewBox="0 0 327.256 333.834" enable-background="new 0 0 327.256 333.834"
	 xml:space="preserve">
<g>
	<g>
		<path fill="#F55E5F" d="M317.594,305.693c0,10.027-8.204,18.23-18.231,18.23H30.269c-10.027,0-18.231-8.204-18.231-18.23V28.141
			c0-10.027,8.204-18.23,18.231-18.23h269.095c10.027,0,18.231,8.204,18.231,18.23V305.693z"/>
	</g>
	<g>
		<path fill="#FFFFFF" d="M132.724,207.182c-0.907-1.395-1.954-2.859-3.139-4.395c-1.187-1.534-2.433-3.016-3.74-4.446
			c-1.309-1.43-2.66-2.79-4.055-4.081c-1.396-1.29-2.772-2.406-4.133-3.348v16.27h-6.592v-36.253h6.592v14.961
			c1.151-1.151,2.354-2.38,3.609-3.688c1.256-1.308,2.502-2.633,3.741-3.976c1.237-1.342,2.414-2.642,3.53-3.897
			c1.116-1.256,2.127-2.389,3.034-3.4h7.899c-1.15,1.326-2.372,2.703-3.662,4.133c-1.29,1.43-2.615,2.869-3.976,4.315
			c-1.36,1.448-2.729,2.886-4.106,4.316c-1.378,1.431-2.729,2.791-4.054,4.081c1.464,1.117,2.955,2.416,4.473,3.897
			c1.517,1.482,3.008,3.069,4.473,4.76c1.465,1.692,2.868,3.453,4.211,5.284c1.342,1.831,2.571,3.654,3.688,5.467H132.724z"/>
		<path fill="#FFFFFF" d="M168.349,193.476c0,2.163-0.314,4.133-0.942,5.912c-0.627,1.778-1.517,3.295-2.668,4.551
			c-1.15,1.256-2.537,2.232-4.158,2.93c-1.622,0.697-3.41,1.046-5.362,1.046c-1.954,0-3.732-0.349-5.336-1.046
			c-1.604-0.697-2.982-1.674-4.133-2.93c-1.151-1.255-2.05-2.772-2.694-4.551c-0.646-1.779-0.968-3.749-0.968-5.912
			c0-2.162,0.322-4.124,0.968-5.885c0.645-1.761,1.552-3.27,2.721-4.525c1.168-1.256,2.554-2.224,4.158-2.904
			c1.604-0.68,3.365-1.02,5.284-1.02c1.917,0,3.688,0.34,5.31,1.02c1.622,0.68,3.008,1.648,4.159,2.904
			c1.15,1.255,2.048,2.764,2.694,4.525C168.026,189.353,168.349,191.314,168.349,193.476z M161.862,193.476
			c0-2.72-0.584-4.874-1.753-6.461c-1.168-1.586-2.798-2.38-4.891-2.38s-3.724,0.793-4.892,2.38
			c-1.169,1.587-1.752,3.741-1.752,6.461c0,2.755,0.583,4.936,1.752,6.539c1.168,1.604,2.799,2.406,4.892,2.406
			s3.723-0.802,4.891-2.406C161.278,198.412,161.862,196.231,161.862,193.476z"/>
		<path fill="#FFFFFF" d="M172.062,189.343h14.072v5.807h-14.072V189.343z"/>
		<path fill="#FFFFFF" d="M202.613,166.587c1.325,0,2.449,0.105,3.374,0.314c0.924,0.209,1.647,0.418,2.171,0.628l-0.994,5.126
			c-0.488-0.174-1.072-0.331-1.752-0.471c-0.681-0.139-1.422-0.209-2.224-0.209c-2.093,0-3.531,0.559-4.315,1.674
			c-0.785,1.117-1.178,2.563-1.178,4.342v1.831h10.045v5.284h-10.045v22.076h-6.329v-29.295c0-3.557,0.923-6.33,2.772-8.318
			C195.986,167.581,198.811,166.587,202.613,166.587z M219.562,171.818c0,1.186-0.384,2.128-1.15,2.825
			c-0.768,0.698-1.675,1.046-2.721,1.046c-1.081,0-2.006-0.348-2.772-1.046c-0.768-0.697-1.151-1.639-1.151-2.825
			c0-1.22,0.384-2.179,1.151-2.877c0.767-0.697,1.691-1.046,2.772-1.046c1.046,0,1.953,0.349,2.721,1.046
			C219.178,169.639,219.562,170.598,219.562,171.818z M218.829,207.182h-6.33v-27.36h6.33V207.182z"/>
	</g>
	<g>
		<path fill="#FFFFFF" d="M74.18,228.941c0.347-0.115,0.74-0.23,1.18-0.347c0.439-0.115,0.902-0.219,1.388-0.312
			c0.486-0.092,0.983-0.167,1.493-0.226c0.509-0.058,0.995-0.087,1.458-0.087c0.971,0,1.855,0.133,2.654,0.399
			c0.798,0.266,1.464,0.746,1.996,1.439c1.177-0.693,2.209-1.173,3.099-1.439c0.888-0.266,1.76-0.399,2.613-0.399
			c0.785,0,1.518,0.087,2.198,0.26s1.275,0.468,1.783,0.885c0.507,0.416,0.911,0.983,1.211,1.699c0.301,0.717,0.45,1.63,0.45,2.74
			c0,0.601-0.046,1.22-0.139,1.855c-0.093,0.637-0.22,1.278-0.381,1.926l-2.15,8.914h-2.248l1.907-7.978
			c0.185-0.764,0.358-1.538,0.521-2.324c0.161-0.786,0.242-1.537,0.242-2.254c0-0.716-0.092-1.312-0.276-1.786
			c-0.185-0.474-0.444-0.85-0.779-1.127c-0.335-0.277-0.722-0.468-1.16-0.572s-0.911-0.156-1.419-0.156
			c-0.484,0-1.114,0.086-1.887,0.26c-0.773,0.173-1.702,0.607-2.787,1.301c0.139,0.602,0.208,1.249,0.208,1.942
			c0,0.601-0.047,1.22-0.139,1.855c-0.093,0.637-0.221,1.278-0.382,1.926l-2.15,8.914h-2.248l1.907-7.978
			c0.186-0.764,0.358-1.538,0.521-2.324s0.243-1.537,0.243-2.254c0-0.716-0.094-1.312-0.278-1.786
			c-0.186-0.474-0.447-0.85-0.783-1.127c-0.336-0.277-0.725-0.468-1.165-0.572s-0.916-0.156-1.426-0.156
			c-0.533,0-1.102,0.046-1.704,0.139s-1.159,0.208-1.67,0.347l-3.78,15.712h-2.248L74.18,228.941z"/>
		<path fill="#FFFFFF" d="M114.992,233.936c0,2.174-0.308,4.059-0.92,5.653c-0.612,1.596-1.399,2.92-2.358,3.972
			c-0.96,1.053-2.023,1.833-3.19,2.342c-1.168,0.508-2.319,0.763-3.451,0.763c-0.811,0-1.579-0.127-2.307-0.382
			c-0.729-0.254-1.37-0.636-1.926-1.145c-0.555-0.508-0.994-1.139-1.317-1.891c-0.324-0.751-0.486-1.624-0.486-2.618
			c0-2.174,0.307-4.059,0.92-5.653c0.612-1.596,1.398-2.914,2.358-3.954c0.959-1.041,2.023-1.815,3.191-2.324
			c1.167-0.508,2.317-0.763,3.451-0.763c0.809,0,1.578,0.127,2.306,0.382c0.729,0.254,1.37,0.636,1.926,1.145
			c0.555,0.509,0.993,1.139,1.317,1.89C114.83,232.104,114.992,232.964,114.992,233.936z M101.326,240.491
			c0,1.364,0.381,2.394,1.145,3.087c0.763,0.693,1.676,1.04,2.74,1.04c0.832,0,1.688-0.213,2.566-0.642
			c0.879-0.428,1.683-1.075,2.41-1.942c0.729-0.867,1.33-1.959,1.804-3.277s0.711-2.867,0.711-4.647
			c0-1.364-0.381-2.394-1.145-3.087c-0.763-0.694-1.677-1.041-2.74-1.041c-0.832,0-1.688,0.214-2.566,0.642s-1.682,1.075-2.41,1.942
			c-0.729,0.867-1.33,1.959-1.804,3.277C101.563,237.161,101.326,238.711,101.326,240.491z"/>
		<path fill="#FFFFFF" d="M121.109,228.317h2.248l-4.336,17.932h-2.248L121.109,228.317z M121.998,223.079
			c0-0.601,0.167-1.058,0.503-1.37c0.335-0.312,0.699-0.468,1.093-0.468c0.462,0,0.82,0.145,1.075,0.433
			c0.254,0.29,0.381,0.665,0.381,1.127c0,0.555-0.185,0.983-0.555,1.283c-0.37,0.301-0.74,0.451-1.109,0.451
			c-0.463,0-0.811-0.133-1.041-0.399C122.114,223.872,121.998,223.519,121.998,223.079z"/>
		<path fill="#FFFFFF" d="M124.668,243.404c0.855,0.463,1.607,0.775,2.255,0.937c0.646,0.162,1.375,0.243,2.185,0.243
			c0.578,0,1.133-0.063,1.665-0.19s0.994-0.318,1.388-0.572c0.393-0.255,0.705-0.59,0.937-1.006c0.23-0.417,0.347-0.902,0.347-1.457
			c0-0.602-0.168-1.099-0.503-1.491c-0.335-0.394-0.752-0.734-1.249-1.023s-1.035-0.572-1.612-0.85
			c-0.578-0.278-1.116-0.602-1.613-0.972c-0.497-0.369-0.913-0.832-1.248-1.388c-0.336-0.555-0.503-1.271-0.503-2.15
			c0-0.994,0.185-1.844,0.555-2.549c0.369-0.705,0.867-1.283,1.491-1.734c0.624-0.451,1.341-0.78,2.15-0.988
			c0.81-0.208,1.642-0.312,2.498-0.312c0.739,0,1.474,0.064,2.202,0.191c0.729,0.127,1.428,0.318,2.099,0.572l-0.902,2.012
			c-0.485-0.208-1.04-0.375-1.665-0.503c-0.624-0.127-1.271-0.191-1.942-0.191c-0.555,0-1.092,0.058-1.612,0.174
			s-0.978,0.307-1.37,0.572c-0.394,0.266-0.711,0.602-0.954,1.006c-0.242,0.405-0.364,0.896-0.364,1.474
			c0,0.602,0.168,1.098,0.503,1.491c0.335,0.394,0.746,0.74,1.231,1.041s1.023,0.584,1.613,0.85
			c0.589,0.267,1.127,0.584,1.612,0.954c0.486,0.37,0.896,0.814,1.231,1.335s0.503,1.186,0.503,1.995
			c0,1.018-0.19,1.896-0.572,2.636s-0.885,1.341-1.509,1.804s-1.341,0.804-2.15,1.023c-0.81,0.219-1.643,0.329-2.497,0.329
			c-0.902,0-1.804-0.099-2.706-0.295c-0.901-0.196-1.723-0.503-2.462-0.919L124.668,243.404z"/>
		<path fill="#FFFFFF" d="M154.636,232.514c0,1.295-0.317,2.347-0.953,3.156c-0.637,0.81-1.526,1.451-2.671,1.925
			c-1.145,0.475-2.521,0.815-4.128,1.023s-3.394,0.358-5.358,0.451v0.728c0,0.672,0.069,1.296,0.208,1.873
			c0.139,0.579,0.393,1.082,0.763,1.509c0.37,0.429,0.885,0.77,1.544,1.023c0.658,0.255,1.509,0.382,2.549,0.382
			c0.81,0,1.624-0.115,2.445-0.347c0.82-0.231,1.602-0.578,2.342-1.041l0.242,2.081c-0.786,0.439-1.653,0.78-2.602,1.023
			s-1.907,0.364-2.879,0.364c-1.271,0-2.341-0.162-3.208-0.485c-0.867-0.324-1.572-0.774-2.116-1.353
			c-0.543-0.578-0.931-1.271-1.161-2.082c-0.231-0.809-0.348-1.699-0.348-2.67c0-1.479,0.226-2.948,0.677-4.405
			s1.115-2.763,1.994-3.919c0.879-1.156,1.96-2.086,3.243-2.792c1.283-0.705,2.746-1.058,4.388-1.058
			c1.618,0,2.861,0.422,3.729,1.266C154.202,230.011,154.636,231.126,154.636,232.514z M149.399,229.947
			c-0.925,0-1.792,0.191-2.602,0.572c-0.81,0.382-1.538,0.896-2.185,1.544c-0.647,0.647-1.209,1.399-1.683,2.254
			c-0.475,0.855-0.827,1.757-1.058,2.705c1.965-0.046,3.618-0.174,4.96-0.382c1.341-0.208,2.422-0.497,3.243-0.867
			c0.82-0.369,1.404-0.814,1.751-1.335c0.348-0.52,0.521-1.115,0.521-1.786c0-0.902-0.271-1.578-0.815-2.029
			C150.989,230.172,150.278,229.947,149.399,229.947z"/>
		<path fill="#FFFFFF" d="M155.469,243.404c0.854,0.463,1.606,0.775,2.254,0.937c0.647,0.162,1.376,0.243,2.186,0.243
			c0.577,0,1.133-0.063,1.665-0.19c0.531-0.127,0.994-0.318,1.387-0.572c0.394-0.255,0.705-0.59,0.937-1.006
			c0.231-0.417,0.348-0.902,0.348-1.457c0-0.602-0.168-1.099-0.503-1.491c-0.336-0.394-0.752-0.734-1.249-1.023
			c-0.498-0.289-1.035-0.572-1.613-0.85c-0.578-0.278-1.115-0.602-1.612-0.972c-0.498-0.369-0.914-0.832-1.249-1.388
			c-0.335-0.555-0.503-1.271-0.503-2.15c0-0.994,0.185-1.844,0.555-2.549c0.37-0.705,0.867-1.283,1.492-1.734
			c0.624-0.451,1.341-0.78,2.15-0.988c0.809-0.208,1.642-0.312,2.497-0.312c0.74,0,1.475,0.064,2.202,0.191
			c0.729,0.127,1.428,0.318,2.099,0.572l-0.901,2.012c-0.485-0.208-1.041-0.375-1.665-0.503c-0.624-0.127-1.272-0.191-1.942-0.191
			c-0.555,0-1.093,0.058-1.613,0.174c-0.52,0.116-0.977,0.307-1.37,0.572c-0.393,0.266-0.711,0.602-0.953,1.006
			c-0.243,0.405-0.364,0.896-0.364,1.474c0,0.602,0.167,1.098,0.503,1.491c0.335,0.394,0.745,0.74,1.231,1.041
			c0.485,0.301,1.022,0.584,1.612,0.85c0.59,0.267,1.128,0.584,1.613,0.954s0.896,0.814,1.231,1.335
			c0.335,0.521,0.503,1.186,0.503,1.995c0,1.018-0.191,1.896-0.572,2.636c-0.382,0.74-0.885,1.341-1.509,1.804
			c-0.625,0.463-1.342,0.804-2.151,1.023c-0.81,0.219-1.642,0.329-2.497,0.329c-0.901,0-1.804-0.099-2.705-0.295
			c-0.902-0.196-1.723-0.503-2.463-0.919L155.469,243.404z"/>
		<path fill="#FFFFFF" d="M169.343,243.404c0.854,0.463,1.606,0.775,2.254,0.937c0.647,0.162,1.376,0.243,2.186,0.243
			c0.577,0,1.133-0.063,1.665-0.19c0.531-0.127,0.994-0.318,1.387-0.572c0.394-0.255,0.705-0.59,0.937-1.006
			c0.231-0.417,0.348-0.902,0.348-1.457c0-0.602-0.168-1.099-0.503-1.491c-0.336-0.394-0.752-0.734-1.249-1.023
			c-0.498-0.289-1.035-0.572-1.613-0.85c-0.578-0.278-1.115-0.602-1.612-0.972c-0.498-0.369-0.914-0.832-1.249-1.388
			c-0.335-0.555-0.503-1.271-0.503-2.15c0-0.994,0.185-1.844,0.555-2.549c0.37-0.705,0.867-1.283,1.492-1.734
			c0.624-0.451,1.341-0.78,2.15-0.988c0.809-0.208,1.642-0.312,2.497-0.312c0.74,0,1.475,0.064,2.202,0.191
			c0.729,0.127,1.428,0.318,2.099,0.572l-0.901,2.012c-0.485-0.208-1.041-0.375-1.665-0.503c-0.624-0.127-1.272-0.191-1.942-0.191
			c-0.555,0-1.093,0.058-1.613,0.174c-0.52,0.116-0.977,0.307-1.37,0.572c-0.393,0.266-0.711,0.602-0.953,1.006
			c-0.243,0.405-0.364,0.896-0.364,1.474c0,0.602,0.167,1.098,0.503,1.491c0.335,0.394,0.745,0.74,1.231,1.041
			c0.485,0.301,1.022,0.584,1.612,0.85c0.59,0.267,1.128,0.584,1.613,0.954s0.896,0.814,1.231,1.335
			c0.335,0.521,0.503,1.186,0.503,1.995c0,1.018-0.191,1.896-0.572,2.636c-0.382,0.74-0.885,1.341-1.509,1.804
			c-0.625,0.463-1.342,0.804-2.151,1.023c-0.81,0.219-1.642,0.329-2.497,0.329c-0.901,0-1.804-0.099-2.705-0.295
			c-0.902-0.196-1.723-0.503-2.463-0.919L169.343,243.404z"/>
		<path fill="#FFFFFF" d="M189.854,219.75l2.352-0.416l-3.991,16.562c0.832-0.554,1.681-1.183,2.548-1.886
			c0.867-0.703,1.699-1.407,2.497-2.111c0.797-0.703,1.52-1.373,2.167-2.007c0.646-0.634,1.156-1.159,1.526-1.574h2.739
			c-0.416,0.531-1.011,1.177-1.785,1.938s-1.595,1.534-2.461,2.318c-0.867,0.785-1.722,1.517-2.565,2.198
			c-0.843,0.681-1.542,1.183-2.097,1.505c0.785,0.604,1.554,1.31,2.305,2.12s1.438,1.668,2.062,2.571s1.184,1.812,1.681,2.728
			s0.884,1.766,1.161,2.554h-2.428c-1.015-2.178-2.168-4.048-3.459-5.612c-1.292-1.563-2.652-2.832-4.082-3.805l-2.305,9.417h-2.248
			L189.854,219.75z"/>
		<path fill="#FFFFFF" d="M215.751,232.514c0,1.295-0.317,2.347-0.953,3.156c-0.637,0.81-1.526,1.451-2.671,1.925
			c-1.145,0.475-2.521,0.815-4.128,1.023s-3.394,0.358-5.358,0.451v0.728c0,0.672,0.069,1.296,0.208,1.873
			c0.139,0.579,0.393,1.082,0.763,1.509c0.37,0.429,0.885,0.77,1.544,1.023c0.658,0.255,1.509,0.382,2.549,0.382
			c0.81,0,1.624-0.115,2.445-0.347c0.82-0.231,1.602-0.578,2.342-1.041l0.242,2.081c-0.786,0.439-1.653,0.78-2.602,1.023
			s-1.907,0.364-2.879,0.364c-1.271,0-2.341-0.162-3.208-0.485c-0.867-0.324-1.572-0.774-2.116-1.353
			c-0.543-0.578-0.931-1.271-1.161-2.082c-0.231-0.809-0.348-1.699-0.348-2.67c0-1.479,0.226-2.948,0.677-4.405
			s1.115-2.763,1.994-3.919c0.879-1.156,1.96-2.086,3.243-2.792c1.283-0.705,2.746-1.058,4.388-1.058
			c1.618,0,2.861,0.422,3.729,1.266C215.318,230.011,215.751,231.126,215.751,232.514z M210.514,229.947
			c-0.925,0-1.792,0.191-2.602,0.572c-0.81,0.382-1.538,0.896-2.185,1.544c-0.647,0.647-1.209,1.399-1.683,2.254
			c-0.475,0.855-0.827,1.757-1.058,2.705c1.965-0.046,3.618-0.174,4.96-0.382c1.341-0.208,2.422-0.497,3.243-0.867
			c0.82-0.369,1.404-0.814,1.751-1.335c0.348-0.52,0.521-1.115,0.521-1.786c0-0.902-0.271-1.578-0.815-2.029
			C212.104,230.172,211.393,229.947,210.514,229.947z"/>
		<path fill="#FFFFFF" d="M222.183,223.044l2.353-0.416l-1.335,5.688h6.321l-0.453,1.942h-6.372l-2.115,8.775
			c-0.116,0.416-0.214,0.861-0.295,1.336c-0.081,0.474-0.121,0.942-0.121,1.404c0,1.041,0.255,1.769,0.765,2.186
			c0.511,0.416,1.149,0.624,1.916,0.624c0.742,0,1.387-0.081,1.933-0.243c0.545-0.161,1.12-0.381,1.725-0.659l0.209,2.047
			c-0.626,0.255-1.327,0.475-2.104,0.659s-1.547,0.277-2.312,0.277c-0.603,0-1.17-0.069-1.703-0.208s-1.004-0.37-1.409-0.693
			c-0.405-0.324-0.729-0.752-0.973-1.284c-0.242-0.531-0.364-1.202-0.364-2.012c0-0.993,0.162-2.139,0.485-3.434L222.183,223.044z"
			/>
		<path fill="#FFFFFF" d="M242.112,245.382c-0.463,0.301-1.174,0.59-2.133,0.867c-0.96,0.277-2.029,0.416-3.208,0.416
			c-2.104,0-3.688-0.601-4.752-1.804c-1.064-1.202-1.596-2.855-1.596-4.96c0-1.572,0.243-3.081,0.729-4.526
			c0.485-1.445,1.196-2.723,2.133-3.833s2.087-1.995,3.451-2.653c1.364-0.659,2.914-0.989,4.648-0.989
			c1.201,0,2.393,0.197,3.572,0.59l-0.937,2.046c-0.532-0.208-1.058-0.352-1.578-0.434c-0.521-0.081-1.023-0.122-1.509-0.122
			c-1.226,0-2.342,0.26-3.348,0.781c-1.006,0.52-1.867,1.226-2.584,2.116s-1.271,1.919-1.665,3.087
			c-0.393,1.168-0.589,2.399-0.589,3.693c0,1.526,0.352,2.729,1.058,3.607c0.705,0.879,1.832,1.318,3.382,1.318
			c0.485,0,0.977-0.046,1.474-0.139s0.954-0.202,1.37-0.33c0.417-0.126,0.786-0.26,1.11-0.398c0.323-0.139,0.566-0.266,0.729-0.382
			L242.112,245.382z"/>
		<path fill="#FFFFFF" d="M247.597,246.249h-2.248l6.313-26.5l2.352-0.416l-2.293,9.469c1.455-0.601,2.831-0.902,4.125-0.902
			c0.786,0,1.514,0.116,2.184,0.347c0.671,0.231,1.261,0.578,1.769,1.041c0.509,0.463,0.907,1.046,1.196,1.751
			c0.289,0.706,0.434,1.543,0.434,2.515c0,0.601-0.047,1.22-0.139,1.855c-0.093,0.637-0.22,1.278-0.382,1.926l-2.15,8.914h-2.248
			l1.908-7.978c0.185-0.764,0.358-1.538,0.52-2.324c0.162-0.786,0.243-1.537,0.243-2.254c0-0.693-0.11-1.277-0.329-1.751
			c-0.221-0.474-0.509-0.855-0.868-1.145c-0.358-0.289-0.781-0.497-1.267-0.625c-0.486-0.127-0.996-0.191-1.528-0.191
			c-0.671,0-1.349,0.07-2.031,0.208s-1.325,0.312-1.927,0.52L247.597,246.249z"/>
	</g>
	<path fill="#FFFFFF" d="M128.22,125.278h54.907c15.157,0,27.453-12.297,27.453-27.453h9.151c20.19,0,36.604-16.415,36.604-36.604
		s-16.415-36.604-36.604-36.604H107.63c-3.803,0-6.863,3.06-6.863,6.863v66.345C100.767,112.982,113.064,125.278,128.22,125.278z
		 M219.731,42.918c10.095,0,18.302,8.207,18.302,18.302s-8.207,18.302-18.302,18.302h-9.151V42.918H219.731z M233.372,152.732
		H87.126c-13.612,0-17.444-18.302-10.295-18.302h166.807C250.788,134.429,247.013,152.732,233.372,152.732L233.372,152.732z"/>
</g>
<rect x="0" y="0" fill="none" width="329.633" height="333.834"/>
</svg>
