<?xml version="1.0" encoding="utf-8"?>
<!-- Generator: Adobe Illustrator 17.0.0, SVG Export Plug-In . SVG Version: 6.00 Build 0)  -->
<!DOCTYPE svg PUBLIC "-//W3C//DTD SVG 1.1//EN" "http://www.w3.org/Graphics/SVG/1.1/DTD/svg11.dtd">
<svg version="1.1" id="Capa_1" xmlns="http://www.w3.org/2000/svg" xmlns:xlink="http://www.w3.org/1999/xlink" x="0px" y="0px"
	 width="329.633px" height="333.834px" viewBox="0 0 329.633 333.834" enable-background="new 0 0 329.633 333.834"
	 xml:space="preserve">
<g>
	<g>
		<path fill="#1477A7" d="M317.594,305.693c0,10.027-8.204,18.23-18.23,18.23H30.269c-10.027,0-18.231-8.204-18.231-18.23V28.141
			c0-10.027,8.204-18.23,18.231-18.23h269.095c10.027,0,18.23,8.204,18.23,18.23V305.693z"/>
	</g>
	<g>
		<path fill="#FFFFFF" d="M88.728,201.48v5.702H65.815v-36.253h6.592v30.551H88.728z"/>
		<path fill="#FFFFFF" d="M100.498,171.818c0,1.186-0.384,2.128-1.151,2.825c-0.768,0.698-1.674,1.046-2.72,1.046
			c-1.082,0-2.006-0.348-2.772-1.046c-0.768-0.697-1.151-1.639-1.151-2.825c0-1.22,0.383-2.179,1.151-2.877
			c0.767-0.697,1.691-1.046,2.772-1.046c1.046,0,1.953,0.349,2.72,1.046C100.114,169.639,100.498,170.598,100.498,171.818z
			 M99.818,207.182h-6.33v-27.36h6.33V207.182z"/>
		<path fill="#FFFFFF" d="M107.874,180.711c1.22-0.348,2.807-0.68,4.76-0.994c1.953-0.314,4.115-0.471,6.487-0.471
			c2.231,0,4.098,0.306,5.598,0.915c1.499,0.611,2.694,1.465,3.583,2.563c0.889,1.099,1.517,2.424,1.883,3.976
			c0.366,1.552,0.549,3.252,0.549,5.101v15.38h-6.33v-14.386c0-1.465-0.096-2.711-0.288-3.74c-0.192-1.028-0.506-1.865-0.942-2.511
			c-0.437-0.645-1.029-1.116-1.778-1.412c-0.75-0.296-1.666-0.445-2.747-0.445c-0.803,0-1.64,0.052-2.511,0.157
			c-0.872,0.105-1.517,0.192-1.936,0.262v22.076h-6.33V180.711z"/>
		<path fill="#FFFFFF" d="M144.806,190.494c0.802-0.837,1.656-1.734,2.563-2.694c0.906-0.959,1.796-1.918,2.668-2.877
			c0.871-0.959,1.7-1.883,2.485-2.772c0.785-0.89,1.456-1.665,2.014-2.328h7.48c-1.74,1.954-3.576,3.976-5.506,6.068
			c-1.931,2.093-3.871,4.133-5.819,6.121c1.044,0.872,2.14,1.927,3.289,3.165c1.148,1.238,2.262,2.555,3.341,3.95
			c1.079,1.395,2.087,2.791,3.027,4.185c0.94,1.395,1.723,2.686,2.349,3.871h-7.324c-0.628-1.081-1.352-2.214-2.171-3.4
			c-0.82-1.185-1.7-2.336-2.642-3.453c-0.941-1.116-1.901-2.171-2.877-3.165c-0.977-0.994-1.936-1.839-2.877-2.537v12.555h-6.33
			v-39.549l6.33-1.046V190.494z"/>
		<path fill="#FFFFFF" d="M164.581,193.633c0-2.406,0.357-4.516,1.072-6.33c0.714-1.813,1.665-3.322,2.851-4.525
			c1.185-1.203,2.545-2.109,4.081-2.72c1.534-0.61,3.104-0.916,4.708-0.916c3.767,0,6.704,1.169,8.815,3.505
			c2.109,2.337,3.165,5.825,3.165,10.463c0,0.349-0.009,0.741-0.026,1.177c-0.018,0.437-0.044,0.829-0.079,1.177H171.12
			c0.174,2.197,0.95,3.897,2.328,5.101c1.377,1.203,3.375,1.805,5.99,1.805c1.534,0,2.938-0.139,4.211-0.418
			c1.273-0.279,2.276-0.575,3.008-0.889l0.837,5.179c-0.349,0.175-0.829,0.358-1.438,0.549c-0.611,0.192-1.308,0.366-2.093,0.523
			c-0.785,0.157-1.631,0.288-2.537,0.392c-0.907,0.105-1.831,0.157-2.772,0.157c-2.407,0-4.499-0.358-6.278-1.073
			c-1.779-0.714-3.243-1.708-4.394-2.981c-1.151-1.273-2.006-2.773-2.563-4.499C164.859,197.583,164.581,195.691,164.581,193.633z
			 M182.943,190.808c0-0.872-0.123-1.7-0.366-2.485c-0.245-0.785-0.602-1.465-1.072-2.04c-0.471-0.576-1.046-1.028-1.727-1.36
			c-0.68-0.331-1.491-0.497-2.433-0.497c-0.977,0-1.831,0.183-2.563,0.549s-1.352,0.846-1.857,1.438
			c-0.506,0.594-0.898,1.274-1.177,2.041c-0.279,0.768-0.471,1.552-0.575,2.354H182.943z"/>
		<path fill="#FFFFFF" d="M219.091,206.345c-1.255,0.384-2.833,0.732-4.734,1.046c-1.901,0.313-3.897,0.471-5.99,0.471
			c-2.163,0-4.098-0.332-5.807-0.994c-1.709-0.662-3.165-1.613-4.368-2.851c-1.203-1.237-2.128-2.737-2.772-4.499
			c-0.646-1.76-0.968-3.74-0.968-5.938c0-2.162,0.27-4.124,0.811-5.885c0.541-1.761,1.334-3.27,2.38-4.525s2.319-2.223,3.819-2.903
			c1.499-0.68,3.226-1.02,5.179-1.02c1.325,0,2.493,0.157,3.505,0.471c1.011,0.314,1.883,0.663,2.616,1.046v-13.131l6.33-1.046
			V206.345z M200.938,193.424c0,2.791,0.662,4.979,1.988,6.565c1.325,1.587,3.156,2.38,5.493,2.38c1.011,0,1.875-0.043,2.59-0.13
			c0.714-0.087,1.299-0.183,1.752-0.288v-15.694c-0.559-0.383-1.3-0.741-2.224-1.072c-0.924-0.331-1.909-0.497-2.956-0.497
			c-2.302,0-3.985,0.785-5.048,2.354C201.47,188.611,200.938,190.739,200.938,193.424z"/>
		<path fill="#FFFFFF" d="M234.209,171.818c0,1.186-0.384,2.128-1.151,2.825c-0.768,0.698-1.674,1.046-2.72,1.046
			c-1.082,0-2.006-0.348-2.772-1.046c-0.768-0.697-1.151-1.639-1.151-2.825c0-1.22,0.383-2.179,1.151-2.877
			c0.767-0.697,1.691-1.046,2.772-1.046c1.046,0,1.953,0.349,2.72,1.046C233.825,169.639,234.209,170.598,234.209,171.818z
			 M233.529,207.182h-6.33v-27.36h6.33V207.182z"/>
		<path fill="#FFFFFF" d="M241.584,180.711c1.22-0.348,2.807-0.68,4.76-0.994c1.953-0.314,4.115-0.471,6.487-0.471
			c2.231,0,4.098,0.306,5.598,0.915c1.499,0.611,2.694,1.465,3.583,2.563c0.889,1.099,1.517,2.424,1.883,3.976
			c0.366,1.552,0.549,3.252,0.549,5.101v15.38h-6.33v-14.386c0-1.465-0.096-2.711-0.288-3.74c-0.192-1.028-0.506-1.865-0.942-2.511
			c-0.437-0.645-1.029-1.116-1.778-1.412c-0.75-0.296-1.666-0.445-2.747-0.445c-0.803,0-1.64,0.052-2.511,0.157
			c-0.872,0.105-1.517,0.192-1.936,0.262v22.076h-6.33V180.711z"/>
	</g>
	<g>
		<path fill="#FFFFFF" d="M65.201,246.249c1.18-4.324,2.411-8.51,3.694-12.556c1.283-4.046,2.515-7.874,3.694-11.48h2.358
			c0.349,1.387,0.703,2.867,1.063,4.439c0.36,1.573,0.703,3.151,1.028,4.734c0.325,1.584,0.622,3.122,0.889,4.613
			c0.267,1.492,0.494,2.851,0.68,4.076c0.854-1.318,1.812-2.78,2.875-4.388c1.062-1.607,2.136-3.22,3.221-4.839
			c1.085-1.618,2.147-3.179,3.186-4.682c1.039-1.503,1.975-2.821,2.806-3.954h2.428c-0.208,2.104-0.451,4.157-0.729,6.156
			c-0.277,2-0.572,3.983-0.884,5.949c-0.312,1.966-0.648,3.937-1.006,5.913c-0.359,1.978-0.734,3.983-1.127,6.019H86.95
			c0.811-3.769,1.512-7.365,2.104-10.787c0.591-3.422,1.107-6.66,1.547-9.712c-0.347,0.439-0.826,1.093-1.438,1.96
			c-0.612,0.867-1.289,1.844-2.028,2.931c-0.739,1.087-1.508,2.232-2.305,3.434c-0.797,1.203-1.566,2.364-2.305,3.486
			c-0.739,1.121-1.41,2.139-2.01,3.052c-0.601,0.914-1.063,1.637-1.386,2.168h-2.081c-0.093-0.647-0.222-1.445-0.385-2.394
			c-0.163-0.947-0.344-1.965-0.542-3.052s-0.408-2.208-0.629-3.364c-0.222-1.156-0.443-2.26-0.664-3.312
			c-0.221-1.052-0.431-2.006-0.629-2.862c-0.198-0.855-0.367-1.549-0.507-2.081c-1.016,3.052-2.043,6.325-3.083,9.816
			s-2.055,7.064-3.047,10.718H65.201z"/>
		<path fill="#FFFFFF" d="M111.021,233.936c0,2.174-0.307,4.059-0.919,5.653c-0.613,1.596-1.399,2.92-2.358,3.972
			c-0.96,1.053-2.024,1.833-3.191,2.342c-1.168,0.508-2.319,0.763-3.451,0.763c-0.81,0-1.579-0.127-2.307-0.382
			c-0.729-0.254-1.37-0.636-1.925-1.145c-0.555-0.508-0.994-1.139-1.318-1.891c-0.324-0.751-0.486-1.624-0.486-2.618
			c0-2.174,0.307-4.059,0.919-5.653c0.612-1.596,1.399-2.914,2.358-3.954c0.959-1.041,2.023-1.815,3.191-2.324
			c1.167-0.508,2.318-0.763,3.451-0.763c0.809,0,1.578,0.127,2.306,0.382c0.729,0.254,1.37,0.636,1.925,1.145
			c0.555,0.509,0.994,1.139,1.318,1.89C110.859,232.104,111.021,232.964,111.021,233.936z M97.355,240.491
			c0,1.364,0.381,2.394,1.145,3.087s1.676,1.04,2.74,1.04c0.833,0,1.688-0.213,2.566-0.642c0.879-0.428,1.683-1.075,2.411-1.942
			c0.729-0.867,1.33-1.959,1.804-3.277c0.474-1.318,0.711-2.867,0.711-4.647c0-1.364-0.381-2.394-1.145-3.087
			c-0.763-0.694-1.677-1.041-2.74-1.041c-0.832,0-1.688,0.214-2.566,0.642c-0.879,0.428-1.682,1.075-2.411,1.942
			c-0.729,0.867-1.33,1.959-1.804,3.277C97.592,237.161,97.355,238.711,97.355,240.491z"/>
		<path fill="#FFFFFF" d="M117.137,228.317h2.248l-4.336,17.932h-2.248L117.137,228.317z M118.027,223.079
			c0-0.601,0.167-1.058,0.503-1.37c0.335-0.312,0.699-0.468,1.093-0.468c0.462,0,0.82,0.145,1.075,0.433
			c0.254,0.29,0.381,0.665,0.381,1.127c0,0.555-0.185,0.983-0.555,1.283c-0.37,0.301-0.74,0.451-1.11,0.451
			c-0.463,0-0.81-0.133-1.041-0.399C118.142,223.872,118.027,223.519,118.027,223.079z"/>
		<path fill="#FFFFFF" d="M120.697,243.404c0.855,0.463,1.607,0.775,2.254,0.937c0.647,0.162,1.375,0.243,2.185,0.243
			c0.578,0,1.133-0.063,1.665-0.19c0.532-0.127,0.994-0.318,1.387-0.572c0.393-0.255,0.705-0.59,0.937-1.006
			c0.231-0.417,0.347-0.902,0.347-1.457c0-0.602-0.168-1.099-0.503-1.491c-0.335-0.394-0.752-0.734-1.249-1.023
			c-0.498-0.289-1.035-0.572-1.613-0.85c-0.578-0.278-1.116-0.602-1.613-0.972c-0.498-0.369-0.914-0.832-1.249-1.388
			c-0.335-0.555-0.503-1.271-0.503-2.15c0-0.994,0.185-1.844,0.555-2.549c0.37-0.705,0.867-1.283,1.492-1.734
			c0.624-0.451,1.341-0.78,2.15-0.988c0.809-0.208,1.642-0.312,2.498-0.312c0.74,0,1.474,0.064,2.202,0.191
			c0.729,0.127,1.428,0.318,2.099,0.572l-0.902,2.012c-0.485-0.208-1.041-0.375-1.665-0.503c-0.624-0.127-1.272-0.191-1.942-0.191
			c-0.555,0-1.092,0.058-1.613,0.174c-0.52,0.116-0.977,0.307-1.37,0.572c-0.393,0.266-0.711,0.602-0.954,1.006
			c-0.243,0.405-0.364,0.896-0.364,1.474c0,0.602,0.167,1.098,0.503,1.491c0.335,0.394,0.746,0.74,1.231,1.041
			c0.485,0.301,1.023,0.584,1.613,0.85c0.589,0.267,1.127,0.584,1.613,0.954c0.486,0.37,0.896,0.814,1.231,1.335
			c0.335,0.521,0.503,1.186,0.503,1.995c0,1.018-0.191,1.896-0.572,2.636c-0.382,0.74-0.885,1.341-1.509,1.804
			c-0.625,0.463-1.341,0.804-2.151,1.023c-0.81,0.219-1.642,0.329-2.497,0.329c-0.902,0-1.804-0.099-2.706-0.295
			s-1.723-0.503-2.462-0.919L120.697,243.404z"/>
		<path fill="#FFFFFF" d="M150.665,232.514c0,1.295-0.318,2.347-0.954,3.156c-0.636,0.81-1.526,1.451-2.671,1.925
			c-1.145,0.475-2.521,0.815-4.127,1.023c-1.607,0.208-3.394,0.358-5.359,0.451v0.728c0,0.672,0.069,1.296,0.208,1.873
			c0.139,0.579,0.393,1.082,0.763,1.509c0.37,0.429,0.884,0.77,1.543,1.023c0.659,0.255,1.509,0.382,2.549,0.382
			c0.809,0,1.624-0.115,2.445-0.347c0.82-0.231,1.601-0.578,2.341-1.041l0.243,2.081c-0.787,0.439-1.653,0.78-2.602,1.023
			s-1.908,0.364-2.879,0.364c-1.272,0-2.341-0.162-3.208-0.485c-0.867-0.324-1.573-0.774-2.116-1.353s-0.931-1.271-1.162-2.082
			c-0.231-0.809-0.347-1.699-0.347-2.67c0-1.479,0.226-2.948,0.677-4.405c0.451-1.457,1.115-2.763,1.994-3.919
			c0.878-1.156,1.96-2.086,3.243-2.792c1.283-0.705,2.746-1.058,4.388-1.058c1.618,0,2.861,0.422,3.729,1.266
			C150.231,230.011,150.665,231.126,150.665,232.514z M145.428,229.947c-0.925,0-1.792,0.191-2.602,0.572
			c-0.81,0.382-1.538,0.896-2.185,1.544c-0.647,0.647-1.208,1.399-1.682,2.254c-0.475,0.855-0.827,1.757-1.058,2.705
			c1.965-0.046,3.619-0.174,4.96-0.382c1.341-0.208,2.422-0.497,3.243-0.867c0.82-0.369,1.405-0.814,1.751-1.335
			c0.347-0.52,0.521-1.115,0.521-1.786c0-0.902-0.272-1.578-0.815-2.029C147.017,230.172,146.306,229.947,145.428,229.947z"/>
		<path fill="#FFFFFF" d="M151.497,243.404c0.855,0.463,1.607,0.775,2.254,0.937c0.647,0.162,1.375,0.243,2.185,0.243
			c0.578,0,1.133-0.063,1.665-0.19c0.532-0.127,0.994-0.318,1.387-0.572c0.393-0.255,0.705-0.59,0.937-1.006
			c0.231-0.417,0.347-0.902,0.347-1.457c0-0.602-0.168-1.099-0.503-1.491c-0.335-0.394-0.752-0.734-1.249-1.023
			c-0.498-0.289-1.035-0.572-1.613-0.85c-0.578-0.278-1.116-0.602-1.613-0.972c-0.498-0.369-0.914-0.832-1.249-1.388
			c-0.335-0.555-0.503-1.271-0.503-2.15c0-0.994,0.185-1.844,0.555-2.549c0.37-0.705,0.867-1.283,1.492-1.734
			c0.624-0.451,1.341-0.78,2.15-0.988c0.809-0.208,1.642-0.312,2.498-0.312c0.74,0,1.474,0.064,2.202,0.191
			c0.729,0.127,1.428,0.318,2.099,0.572l-0.902,2.012c-0.485-0.208-1.041-0.375-1.665-0.503c-0.624-0.127-1.272-0.191-1.942-0.191
			c-0.555,0-1.092,0.058-1.613,0.174c-0.52,0.116-0.977,0.307-1.37,0.572c-0.393,0.266-0.711,0.602-0.954,1.006
			c-0.243,0.405-0.364,0.896-0.364,1.474c0,0.602,0.167,1.098,0.503,1.491c0.335,0.394,0.746,0.74,1.231,1.041
			c0.485,0.301,1.023,0.584,1.613,0.85c0.589,0.267,1.127,0.584,1.613,0.954c0.486,0.37,0.896,0.814,1.231,1.335
			c0.335,0.521,0.503,1.186,0.503,1.995c0,1.018-0.191,1.896-0.572,2.636c-0.382,0.74-0.885,1.341-1.509,1.804
			c-0.625,0.463-1.341,0.804-2.151,1.023c-0.81,0.219-1.642,0.329-2.497,0.329c-0.902,0-1.804-0.099-2.706-0.295
			s-1.723-0.503-2.462-0.919L151.497,243.404z"/>
		<path fill="#FFFFFF" d="M179.186,222.663c1.132-0.254,2.16-0.428,3.084-0.521c0.925-0.092,1.837-0.139,2.739-0.139
			c3.536,0,6.158,0.856,7.869,2.567c1.71,1.711,2.565,4.14,2.565,7.284c0,2.128-0.347,4.087-1.04,5.879
			c-0.694,1.792-1.716,3.336-3.068,4.631c-1.353,1.295-3.034,2.301-5.044,3.018c-2.011,0.717-4.333,1.075-6.969,1.075
			c-0.462,0-0.953-0.018-1.474-0.052c-0.52-0.035-1.028-0.076-1.525-0.122s-0.977-0.109-1.438-0.19
			c-0.462-0.081-0.867-0.179-1.213-0.295L179.186,222.663z M176.413,244.168c0.578,0.093,1.132,0.156,1.664,0.19
			c0.531,0.035,1.062,0.052,1.594,0.052c2.171,0,4.083-0.317,5.736-0.953s3.033-1.509,4.142-2.619
			c1.108-1.11,1.946-2.422,2.513-3.937c0.566-1.515,0.85-3.162,0.85-4.943c0-2.659-0.665-4.647-1.993-5.966
			c-1.328-1.318-3.401-1.977-6.219-1.977c-0.578,0-1.161,0.023-1.75,0.069c-0.589,0.047-1.184,0.116-1.784,0.208L176.413,244.168z"
			/>
		<path fill="#FFFFFF" d="M209.231,246.457c-0.138-0.277-0.259-0.595-0.363-0.954c-0.104-0.358-0.179-0.723-0.224-1.093
			c-0.811,0.787-1.662,1.365-2.554,1.734c-0.892,0.37-1.813,0.555-2.763,0.555c-0.741,0-1.447-0.127-2.12-0.381
			c-0.672-0.254-1.263-0.647-1.772-1.18c-0.51-0.531-0.921-1.219-1.234-2.063c-0.313-0.844-0.469-1.844-0.469-3
			c0-1.85,0.301-3.526,0.902-5.029c0.602-1.503,1.44-2.78,2.517-3.833c1.076-1.052,2.349-1.867,3.818-2.445
			c1.469-0.578,3.072-0.867,4.808-0.867c1.434,0,2.812,0.243,4.13,0.729l-2.67,10.787c-0.139,0.578-0.255,1.122-0.347,1.63
			c-0.093,0.509-0.139,0.994-0.139,1.457c0,0.624,0.058,1.214,0.173,1.769c0.116,0.556,0.324,1.168,0.625,1.839L209.231,246.457z
			 M211.245,230.259c-0.417-0.092-0.799-0.162-1.146-0.208c-0.348-0.046-0.707-0.07-1.078-0.07c-1.436,0-2.71,0.278-3.822,0.833
			c-1.112,0.555-2.05,1.284-2.814,2.186c-0.765,0.901-1.35,1.93-1.755,3.086s-0.608,2.336-0.608,3.538
			c0,0.948,0.093,1.74,0.278,2.376c0.186,0.636,0.44,1.145,0.765,1.526c0.325,0.381,0.702,0.658,1.13,0.832
			c0.429,0.174,0.887,0.26,1.374,0.26c0.95,0,1.842-0.225,2.677-0.676s1.623-1.093,2.365-1.925c0-0.625,0.092-1.341,0.277-2.15
			c0.185-0.81,0.358-1.538,0.521-2.186L211.245,230.259z"/>
		<path fill="#FFFFFF" d="M219.457,228.941c0.9-0.254,1.859-0.479,2.875-0.676c1.016-0.196,2.021-0.295,3.014-0.295
			c0.832,0,1.616,0.087,2.355,0.26s1.386,0.48,1.94,0.919c0.554,0.439,0.993,1.018,1.316,1.734c0.323,0.717,0.485,1.607,0.485,2.671
			c0,0.601-0.047,1.22-0.139,1.855c-0.093,0.637-0.22,1.278-0.382,1.926l-2.15,8.914h-2.248l1.908-7.978
			c0.185-0.764,0.352-1.538,0.503-2.324c0.15-0.786,0.237-1.537,0.26-2.254c0-0.716-0.11-1.306-0.33-1.769
			c-0.22-0.462-0.521-0.832-0.902-1.11c-0.381-0.277-0.827-0.474-1.335-0.589s-1.04-0.173-1.595-0.173
			c-0.602,0-1.214,0.046-1.838,0.139c-0.625,0.092-1.237,0.208-1.838,0.347l-3.781,15.712h-2.248L219.457,228.941z"/>
		<path fill="#FFFFFF" d="M238.603,228.317h2.248l-4.336,17.932h-2.248L238.603,228.317z M239.492,223.079
			c0-0.601,0.167-1.058,0.503-1.37c0.335-0.312,0.699-0.468,1.093-0.468c0.462,0,0.82,0.145,1.075,0.433
			c0.254,0.29,0.381,0.665,0.381,1.127c0,0.555-0.185,0.983-0.555,1.283c-0.37,0.301-0.74,0.451-1.11,0.451
			c-0.463,0-0.81-0.133-1.041-0.399C239.608,223.872,239.492,223.519,239.492,223.079z"/>
		<path fill="#FFFFFF" d="M258.257,232.514c0,1.295-0.318,2.347-0.954,3.156c-0.636,0.81-1.526,1.451-2.671,1.925
			c-1.145,0.475-2.521,0.815-4.127,1.023c-1.607,0.208-3.394,0.358-5.359,0.451v0.728c0,0.672,0.069,1.296,0.208,1.873
			c0.139,0.579,0.393,1.082,0.763,1.509c0.37,0.429,0.884,0.77,1.543,1.023c0.659,0.255,1.509,0.382,2.549,0.382
			c0.809,0,1.624-0.115,2.445-0.347c0.82-0.231,1.601-0.578,2.341-1.041l0.243,2.081c-0.787,0.439-1.653,0.78-2.602,1.023
			s-1.908,0.364-2.879,0.364c-1.272,0-2.341-0.162-3.208-0.485c-0.867-0.324-1.573-0.774-2.116-1.353s-0.931-1.271-1.162-2.082
			c-0.231-0.809-0.347-1.699-0.347-2.67c0-1.479,0.226-2.948,0.677-4.405c0.451-1.457,1.115-2.763,1.994-3.919
			c0.878-1.156,1.96-2.086,3.243-2.792c1.283-0.705,2.746-1.058,4.388-1.058c1.618,0,2.861,0.422,3.729,1.266
			C257.823,230.011,258.257,231.126,258.257,232.514z M253.019,229.947c-0.925,0-1.792,0.191-2.602,0.572
			c-0.81,0.382-1.538,0.896-2.185,1.544c-0.647,0.647-1.208,1.399-1.682,2.254c-0.475,0.855-0.827,1.757-1.058,2.705
			c1.965-0.046,3.619-0.174,4.96-0.382c1.341-0.208,2.422-0.497,3.243-0.867c0.82-0.369,1.405-0.814,1.751-1.335
			c0.347-0.52,0.521-1.115,0.521-1.786c0-0.902-0.272-1.578-0.815-2.029C254.609,230.172,253.898,229.947,253.019,229.947z"/>
		<path fill="#FFFFFF" d="M265.185,219.75l2.311-0.416l-4.301,18.071c-0.185,0.786-0.364,1.532-0.538,2.237
			c-0.173,0.705-0.26,1.358-0.26,1.959c0,0.37,0.034,0.711,0.104,1.023c0.069,0.312,0.207,0.59,0.414,0.833
			c0.207,0.242,0.5,0.456,0.88,0.642c0.38,0.185,0.87,0.347,1.468,0.485l-0.518,1.977c-1.68-0.208-2.853-0.722-3.52-1.543
			c-0.667-0.82-1-1.855-1-3.104c0-0.555,0.046-1.139,0.139-1.752c0.092-0.612,0.22-1.254,0.382-1.925L265.185,219.75z"/>
		<path fill="#FFFFFF" d="M78.225,286.796c-0.949,0.509-2.024,0.901-3.226,1.179s-2.393,0.417-3.572,0.417
			c-1.295,0-2.48-0.18-3.555-0.538s-2-0.913-2.775-1.665c-0.775-0.751-1.376-1.711-1.804-2.879
			c-0.428-1.167-0.642-2.572-0.642-4.214c0-2.475,0.381-4.688,1.145-6.643c0.763-1.953,1.792-3.607,3.087-4.96
			c1.295-1.353,2.786-2.387,4.475-3.104c1.688-0.716,3.457-1.075,5.307-1.075c1.087,0,2.099,0.116,3.035,0.347
			c0.937,0.231,1.89,0.613,2.861,1.146l-1.075,2.15c-1.665-1.018-3.434-1.526-5.307-1.526c-1.457,0-2.85,0.318-4.18,0.954
			c-1.33,0.636-2.503,1.543-3.521,2.723c-1.018,1.179-1.827,2.607-2.428,4.283c-0.602,1.677-0.902,3.556-0.902,5.637
			c0,2.358,0.509,4.156,1.526,5.394c1.017,1.237,2.578,1.855,4.683,1.855c0.924,0,1.746-0.058,2.462-0.174
			c0.717-0.115,1.335-0.254,1.856-0.416c0.52-0.161,0.959-0.329,1.318-0.503c0.358-0.173,0.665-0.329,0.919-0.468L78.225,286.796z"
			/>
		<path fill="#FFFFFF" d="M92.985,288.079c-0.138-0.277-0.259-0.595-0.363-0.954c-0.104-0.358-0.179-0.723-0.224-1.093
			c-0.811,0.787-1.662,1.365-2.554,1.734c-0.892,0.37-1.813,0.555-2.763,0.555c-0.741,0-1.447-0.127-2.12-0.381
			c-0.672-0.254-1.263-0.647-1.772-1.18c-0.51-0.531-0.921-1.219-1.234-2.063c-0.313-0.844-0.469-1.844-0.469-3
			c0-1.85,0.301-3.526,0.902-5.029c0.602-1.503,1.44-2.78,2.517-3.833c1.076-1.052,2.349-1.867,3.818-2.445s3.072-0.867,4.808-0.867
			c1.434,0,2.812,0.243,4.13,0.729l-2.67,10.787c-0.139,0.578-0.255,1.122-0.347,1.63c-0.093,0.509-0.139,0.994-0.139,1.457
			c0,0.624,0.058,1.214,0.173,1.769c0.116,0.556,0.324,1.168,0.625,1.839L92.985,288.079z M94.999,271.881
			c-0.417-0.092-0.799-0.161-1.146-0.208c-0.348-0.046-0.707-0.069-1.078-0.069c-1.436,0-2.71,0.277-3.822,0.832
			c-1.112,0.556-2.05,1.284-2.814,2.186c-0.765,0.901-1.35,1.931-1.755,3.087s-0.608,2.336-0.608,3.538
			c0,0.948,0.093,1.74,0.278,2.376c0.186,0.636,0.44,1.145,0.765,1.526c0.325,0.381,0.702,0.658,1.13,0.832
			c0.429,0.174,0.887,0.26,1.374,0.26c0.95,0,1.842-0.225,2.677-0.676s1.623-1.093,2.365-1.925c0-0.625,0.092-1.341,0.277-2.15
			c0.185-0.81,0.358-1.538,0.521-2.186L94.999,271.881z"/>
		<path fill="#FFFFFF" d="M103.211,270.563c0.347-0.115,0.74-0.23,1.18-0.347c0.439-0.115,0.902-0.219,1.388-0.312
			s0.983-0.168,1.493-0.226c0.509-0.058,0.995-0.087,1.458-0.087c0.971,0,1.856,0.133,2.654,0.398
			c0.798,0.267,1.464,0.746,1.996,1.439c1.177-0.693,2.209-1.173,3.099-1.439c0.888-0.266,1.76-0.398,2.614-0.398
			c0.785,0,1.518,0.087,2.198,0.26c0.681,0.174,1.275,0.469,1.783,0.885c0.507,0.416,0.911,0.983,1.211,1.699
			c0.3,0.718,0.45,1.631,0.45,2.74c0,0.602-0.046,1.221-0.139,1.855c-0.093,0.637-0.22,1.278-0.381,1.926l-2.15,8.914h-2.248
			l1.908-7.978c0.185-0.764,0.358-1.538,0.52-2.324c0.162-0.786,0.243-1.537,0.243-2.255c0-0.716-0.092-1.312-0.277-1.786
			c-0.185-0.474-0.444-0.85-0.779-1.127s-0.721-0.469-1.16-0.572c-0.438-0.104-0.912-0.156-1.419-0.156
			c-0.484,0-1.114,0.087-1.887,0.26c-0.773,0.174-1.702,0.607-2.787,1.301c0.139,0.602,0.208,1.249,0.208,1.942
			c0,0.602-0.046,1.221-0.139,1.855c-0.093,0.637-0.22,1.278-0.381,1.926l-2.15,8.914h-2.248l1.907-7.978
			c0.185-0.764,0.358-1.538,0.521-2.324c0.162-0.786,0.243-1.537,0.243-2.255c0-0.716-0.093-1.312-0.278-1.786
			c-0.186-0.474-0.447-0.85-0.783-1.127s-0.725-0.469-1.165-0.572c-0.441-0.104-0.916-0.156-1.426-0.156
			c-0.533,0-1.102,0.047-1.704,0.139c-0.603,0.093-1.159,0.208-1.669,0.347l-3.781,15.713h-2.248L103.211,270.563z"/>
		<path fill="#FFFFFF" d="M143.399,274.136c0,1.295-0.318,2.347-0.954,3.156c-0.636,0.81-1.526,1.451-2.671,1.925
			c-1.145,0.475-2.521,0.815-4.127,1.023c-1.607,0.208-3.394,0.358-5.359,0.451v0.728c0,0.672,0.069,1.296,0.208,1.873
			c0.139,0.579,0.393,1.082,0.763,1.509c0.37,0.429,0.884,0.77,1.543,1.023c0.659,0.255,1.509,0.382,2.549,0.382
			c0.809,0,1.624-0.115,2.445-0.347c0.82-0.231,1.601-0.578,2.341-1.041l0.243,2.081c-0.787,0.439-1.653,0.78-2.602,1.023
			s-1.908,0.364-2.879,0.364c-1.272,0-2.341-0.162-3.208-0.485c-0.867-0.324-1.573-0.774-2.116-1.353s-0.931-1.271-1.162-2.082
			c-0.231-0.809-0.347-1.699-0.347-2.67c0-1.479,0.226-2.948,0.677-4.405c0.451-1.457,1.115-2.763,1.994-3.92
			c0.878-1.155,1.96-2.086,3.243-2.792c1.283-0.705,2.746-1.058,4.388-1.058c1.618,0,2.861,0.422,3.729,1.266
			C142.965,271.633,143.399,272.748,143.399,274.136z M138.161,271.568c-0.925,0-1.792,0.191-2.602,0.572
			c-0.81,0.382-1.538,0.896-2.185,1.544c-0.647,0.647-1.208,1.399-1.682,2.255c-0.475,0.855-0.827,1.757-1.058,2.705
			c1.965-0.046,3.619-0.174,4.96-0.382c1.341-0.208,2.422-0.497,3.243-0.867c0.82-0.369,1.405-0.814,1.751-1.335
			c0.347-0.521,0.521-1.115,0.521-1.786c0-0.902-0.272-1.578-0.815-2.029S139.04,271.568,138.161,271.568z"/>
		<path fill="#FFFFFF" d="M160.95,275.558c0,2.174-0.307,4.059-0.919,5.653c-0.613,1.596-1.399,2.92-2.358,3.972
			c-0.96,1.053-2.024,1.833-3.191,2.342c-1.168,0.508-2.319,0.763-3.451,0.763c-0.81,0-1.579-0.127-2.307-0.382
			c-0.729-0.254-1.37-0.636-1.925-1.145c-0.555-0.508-0.994-1.139-1.318-1.891c-0.324-0.751-0.486-1.624-0.486-2.618
			c0-2.174,0.307-4.059,0.919-5.653c0.612-1.596,1.399-2.914,2.358-3.954c0.959-1.041,2.023-1.815,3.191-2.324
			c1.167-0.509,2.318-0.764,3.451-0.764c0.809,0,1.578,0.128,2.306,0.382c0.729,0.255,1.37,0.637,1.925,1.145
			c0.555,0.509,0.994,1.14,1.318,1.891C160.787,273.726,160.95,274.586,160.95,275.558z M147.283,282.113
			c0,1.364,0.381,2.394,1.145,3.087s1.676,1.04,2.74,1.04c0.833,0,1.688-0.213,2.566-0.642c0.879-0.428,1.683-1.075,2.411-1.942
			c0.729-0.867,1.33-1.959,1.804-3.277c0.474-1.318,0.711-2.867,0.711-4.647c0-1.364-0.381-2.394-1.145-3.087
			c-0.763-0.694-1.677-1.041-2.74-1.041c-0.832,0-1.688,0.214-2.566,0.642c-0.879,0.428-1.682,1.075-2.411,1.942
			s-1.33,1.96-1.804,3.277C147.52,278.783,147.283,280.333,147.283,282.113z"/>
		<path fill="#FFFFFF" d="M176.532,263.834h2.353l-2.573,10.44h12.467l2.485-10.44h2.353l-5.723,24.037h-2.353l2.75-11.551h-12.398
			l-2.766,11.551h-2.353L176.532,263.834z"/>
		<path fill="#FFFFFF" d="M205.503,288.079c-0.138-0.277-0.259-0.595-0.363-0.954c-0.104-0.358-0.179-0.723-0.224-1.093
			c-0.811,0.787-1.662,1.365-2.554,1.734c-0.892,0.37-1.813,0.555-2.763,0.555c-0.741,0-1.447-0.127-2.12-0.381
			c-0.672-0.254-1.263-0.647-1.772-1.18c-0.51-0.531-0.921-1.219-1.234-2.063c-0.313-0.844-0.469-1.844-0.469-3
			c0-1.85,0.301-3.526,0.902-5.029c0.602-1.503,1.44-2.78,2.517-3.833c1.076-1.052,2.349-1.867,3.818-2.445s3.072-0.867,4.808-0.867
			c1.434,0,2.812,0.243,4.13,0.729l-2.67,10.787c-0.139,0.578-0.255,1.122-0.347,1.63c-0.093,0.509-0.139,0.994-0.139,1.457
			c0,0.624,0.058,1.214,0.173,1.769c0.116,0.556,0.324,1.168,0.625,1.839L205.503,288.079z M207.517,271.881
			c-0.417-0.092-0.799-0.161-1.146-0.208c-0.348-0.046-0.707-0.069-1.078-0.069c-1.436,0-2.71,0.277-3.822,0.832
			c-1.112,0.556-2.05,1.284-2.814,2.186c-0.765,0.901-1.35,1.931-1.755,3.087s-0.608,2.336-0.608,3.538
			c0,0.948,0.093,1.74,0.278,2.376c0.186,0.636,0.44,1.145,0.765,1.526c0.325,0.381,0.702,0.658,1.13,0.832
			c0.429,0.174,0.887,0.26,1.374,0.26c0.95,0,1.842-0.225,2.677-0.676s1.623-1.093,2.365-1.925c0-0.625,0.092-1.341,0.277-2.15
			c0.185-0.81,0.358-1.538,0.521-2.186L207.517,271.881z"/>
		<path fill="#FFFFFF" d="M217.442,261.371l2.311-0.416l-4.301,18.071c-0.185,0.786-0.364,1.532-0.538,2.237
			c-0.173,0.705-0.26,1.358-0.26,1.959c0,0.37,0.034,0.711,0.104,1.023c0.069,0.312,0.207,0.59,0.414,0.833
			c0.207,0.242,0.5,0.456,0.88,0.642c0.38,0.185,0.87,0.347,1.468,0.485l-0.518,1.977c-1.68-0.208-2.853-0.722-3.52-1.543
			c-0.667-0.82-1-1.855-1-3.104c0-0.555,0.046-1.139,0.139-1.752c0.092-0.612,0.22-1.254,0.382-1.925L217.442,261.371z"/>
		<path fill="#FFFFFF" d="M232.384,288.079c-0.138-0.277-0.259-0.595-0.363-0.954c-0.104-0.358-0.179-0.723-0.224-1.093
			c-0.811,0.787-1.662,1.365-2.554,1.734c-0.892,0.37-1.813,0.555-2.763,0.555c-0.741,0-1.447-0.127-2.12-0.381
			c-0.672-0.254-1.263-0.647-1.772-1.18c-0.51-0.531-0.921-1.219-1.234-2.063c-0.313-0.844-0.469-1.844-0.469-3
			c0-1.85,0.301-3.526,0.902-5.029c0.602-1.503,1.44-2.78,2.517-3.833c1.076-1.052,2.349-1.867,3.818-2.445s3.072-0.867,4.808-0.867
			c1.434,0,2.812,0.243,4.13,0.729l-2.67,10.787c-0.139,0.578-0.255,1.122-0.347,1.63c-0.093,0.509-0.139,0.994-0.139,1.457
			c0,0.624,0.058,1.214,0.173,1.769c0.116,0.556,0.324,1.168,0.625,1.839L232.384,288.079z M234.398,271.881
			c-0.417-0.092-0.799-0.161-1.146-0.208c-0.348-0.046-0.707-0.069-1.078-0.069c-1.436,0-2.71,0.277-3.822,0.832
			c-1.112,0.556-2.05,1.284-2.814,2.186c-0.765,0.901-1.35,1.931-1.755,3.087s-0.608,2.336-0.608,3.538
			c0,0.948,0.093,1.74,0.278,2.376c0.186,0.636,0.44,1.145,0.765,1.526c0.325,0.381,0.702,0.658,1.13,0.832
			c0.429,0.174,0.887,0.26,1.374,0.26c0.95,0,1.842-0.225,2.677-0.676s1.623-1.093,2.365-1.925c0-0.625,0.092-1.341,0.277-2.15
			c0.185-0.81,0.358-1.538,0.521-2.186L234.398,271.881z"/>
		<path fill="#FFFFFF" d="M244.496,270.91c0.694-0.463,1.435-0.81,2.222-1.041c0.787-0.23,1.562-0.347,2.326-0.347
			c1.967,0,3.425,0.602,4.374,1.804c0.948,1.202,1.423,2.833,1.423,4.891c0,1.479-0.255,2.942-0.763,4.388s-1.26,2.734-2.253,3.867
			c-0.994,1.133-2.231,2.053-3.71,2.758s-3.189,1.058-5.13,1.058c-1.642,0-3.202-0.336-4.681-1.006l6.208-25.91l2.359-0.416
			L244.496,270.91z M240.939,285.824c0.832,0.255,1.652,0.382,2.461,0.382c1.502,0,2.825-0.301,3.969-0.902
			c1.144-0.601,2.097-1.375,2.86-2.323s1.34-2,1.733-3.156c0.393-1.156,0.589-2.301,0.589-3.435c0-1.664-0.363-2.879-1.09-3.642
			s-1.644-1.145-2.751-1.145c-0.738,0-1.528,0.168-2.37,0.503c-0.842,0.335-1.667,0.815-2.474,1.439L240.939,285.824z"/>
		<path fill="#FFFFFF" d="M272.461,274.136c0,1.295-0.318,2.347-0.954,3.156c-0.636,0.81-1.526,1.451-2.671,1.925
			c-1.145,0.475-2.521,0.815-4.127,1.023c-1.607,0.208-3.394,0.358-5.359,0.451v0.728c0,0.672,0.069,1.296,0.208,1.873
			c0.139,0.579,0.393,1.082,0.763,1.509c0.37,0.429,0.884,0.77,1.543,1.023c0.659,0.255,1.509,0.382,2.549,0.382
			c0.809,0,1.624-0.115,2.445-0.347c0.82-0.231,1.601-0.578,2.341-1.041l0.243,2.081c-0.787,0.439-1.653,0.78-2.602,1.023
			s-1.908,0.364-2.879,0.364c-1.272,0-2.341-0.162-3.208-0.485c-0.867-0.324-1.573-0.774-2.116-1.353s-0.931-1.271-1.162-2.082
			c-0.231-0.809-0.347-1.699-0.347-2.67c0-1.479,0.226-2.948,0.677-4.405c0.451-1.457,1.115-2.763,1.994-3.92
			c0.878-1.155,1.96-2.086,3.243-2.792c1.283-0.705,2.746-1.058,4.388-1.058c1.618,0,2.861,0.422,3.729,1.266
			C272.028,271.633,272.461,272.748,272.461,274.136z M267.224,271.568c-0.925,0-1.792,0.191-2.602,0.572
			c-0.81,0.382-1.538,0.896-2.185,1.544c-0.647,0.647-1.208,1.399-1.682,2.255c-0.475,0.855-0.827,1.757-1.058,2.705
			c1.965-0.046,3.619-0.174,4.96-0.382c1.341-0.208,2.422-0.497,3.243-0.867c0.82-0.369,1.405-0.814,1.751-1.335
			c0.347-0.521,0.521-1.115,0.521-1.786c0-0.902-0.272-1.578-0.815-2.029S268.102,271.568,267.224,271.568z"/>
	</g>
	<path fill="#FFFFFF" d="M129.371,152.732h-26.61V67.041h26.61V152.732z M116.052,55.352c-8.509,0-15.411-7.048-15.411-15.557
		c0.001-8.511,6.902-15.41,15.413-15.408c8.509,0.001,15.407,6.899,15.408,15.408C131.463,48.304,124.558,55.352,116.052,55.352z
		 M228.963,152.732H202.41v-41.714c0-9.941-0.201-22.69-13.835-22.69c-13.835,0-15.955,10.801-15.955,21.974v42.43H146.04V67.041
		h25.521V78.73h0.372c3.553-6.733,12.23-13.838,25.177-13.838c26.931,0,31.881,17.734,31.881,40.768v47.071H228.963z"/>
</g>
<rect x="0" y="0" fill="none" width="329.633" height="333.834"/>
</svg>
